<mxfile host="65bd71144e">
    <diagram id="Gd5xziF_T1uGAZuicuKe" name="Page-1">
        <mxGraphModel dx="1876" dy="1624" grid="1" gridSize="10" guides="1" tooltips="1" connect="1" arrows="1" fold="1" page="0" pageScale="1" pageWidth="850" pageHeight="1100" math="0" shadow="0">
            <root>
                <mxCell id="0"/>
                <mxCell id="1" parent="0"/>
                <mxCell id="3" value="" style="shape=image;verticalLabelPosition=bottom;labelBackgroundColor=default;verticalAlign=top;imageAspect=0;image=data:image/png,iVBORw0KGgoAAAANSUhEUgAABCkAAALYCAYAAABR6KjhAAAAAXNSR0IArs4c6QAAAARnQU1BAACxjwv8YQUAAAAJcEhZcwAADsMAAA7DAcdvqGQAAABjaVRYdFNuaXBNZXRhZGF0YQAAAAAAeyJjbGlwUG9pbnRzIjpbeyJ4IjowLCJ5IjowfSx7IngiOjEwNjUsInkiOjB9LHsieCI6MTA2NSwieSI6NzI4fSx7IngiOjAsInkiOjcyOH1dfYh+BMoAAP82SURBVHhe7N0JXFRV+wfwn2WJS4FZoVlBWqlp4o5aCX8sAU0UN9RUcBc3xA1ERURUUFNxA3dcQnFDMUAtDaxM3BLTlErFypRygdTAXm3+99w5wzoouwP8vu/nNPc8986dgXcc5j5zznMqaBQgIiIiIiIiInrCnpK3RERERERERERPFJMURERERERERGQQmKQgIiIiIiIiIoPAJAURERERERERGQQmKYiIiIiIiIjIIDBJQUREREREREQGgUkKIiIiIiIiIjIITFIQERERERERkUFgkoKIiIiIiIiIDAKTFERERERERERkEJikICIiIiIiIiKDwCQFERERERERERkEJimIiIiIiIiIyCAwSUFEREREREREBoFJCiIiIiIiIiIyCExSEBEREREREZFBYJKCiIiIiIiIiAwCkxREREREREREZBCYpCAiIiIiIiIig8AkBREREREREREZBCYpiIiIiIiIiMggMElBRERERERERAaBSQoiIiIiIiIiMghMUhARERERERGRQWCSgoiIiIiIiIgMQgWNQm4TlYjbt2+jb79BskdERERERGXRooUBqF/vbdkjyhsmKajEiSRFO2tbfLpgrowQEREREVFZMmHiFGzftplJCso3JimoxOmSFAf2R6BWzZoySkREREREZcF///0Hi6atmaSgAmFNCiIiIiIiIiIyCExSEBEREREREZFBYJKCiIiIiIiIiAwCkxREREREREREZBCYpCAiIiIiIiIig8AkBREREREREREZBCYpiIiIiIiIiMggMElBRERERERERAaBSQoiIiIiIiIiMghMUhARERERERGRQWCSgoiIiIiIiIgMApMURERERERERGQQmKQgIiIiIiIiIoPAJAURERERERERGQQmKYiIiIiIiIjIIDBJQUREREREREQGgUkKIiIiIioVzv14Hg8ePJA9orLn4cOHcouo/GKSgkq9//77D7/99rvsERERUVnWq3d/nI4/I3tEZcvff/+NPRGfyx5R+cQkBZUJHT/uhuUrVuLhw/9khIiIiMqin3++iP4DhuCz0DAZISpbpk33xdBho/H96XgZISpfmKSgMiN45Vp07NQV4bv3yggRERGVVf4Bn8Jr6gykpqbJCFHZcTTuGAY4D8UsvwDcunVLRonKhwoahdymcmb9+k34JzVV9vKmRYtmsGzVQvYK5vbt22hnbYsD+yNQq2ZNGS04Md3Domlr2dMSz9N1xFC0atlcRoiIiKi0EzUpevdxlj2tN94wh/c0T/VvP1Fpp/ucnFmVKlUwynUYBgzoKyOGT/f5fPu2zahf720ZJcobJinKMZGkWBS4TN2uUKGCevso4s1mzeoVpSJJodOly8dwHT4EtWu/IiNERERUWulLUuhMnOAG5wGfyB5R6aQvSaHToH49jBw5DNZWH8iI4WKSggqD0z0IH7b/P7z5Zl0c2BeB+O+PZmk7tn+Gl156EZ066n+zNHR79nwO+06OCApeIyNERERUFi34NBCTPKbizp27MkJUtpy/kIAxYydg4iQvXLqcKKNEZQ+TFISFn/rD7PXXMHK0O5KS/pRRIDHxivpG+F7bNhg7ZqSMGr6W2aZ4iMFCK4JWqcmKiL2RMkpERESlXYvmWad47Nv3BZz6DMDRo8dkhKh0G9A/5xSP/Qe+RJeuvbBkaRCXLKUyiUkKUmVOVFxPSsLvv19VExTNmzXBTJ+p2oNKiTp13sAs3+l45ZVaMqIlfqap02ZiyLBROHnqexklIiKi0urjj+1yTPEQy5IPHT4aa9dtkBGi0qtSpUrYtnWT3ikeq9esV7+E45KlVNYwSUHpdImK4SPGwnXUODR4pz5m+/nIvaVL1y6dER0ZjhHDh8hIhri443AZOBwzfGbj+vUkGSUiIqLSSNSimB8wG889V01GtBYHLof7BA/cvp0sI0SlU4MG9bB0yadYMG+OWig2s2vXrsslS0dxyVIqM1g4sxzTFc48czpORoCbN2+hc5ee6hSJ8F1bUNPUVI2Li/mPbDuroxMqVzZSYwUlhqUlJv4KM7PXULFiRRktBOUVfPHSZdkBnJx6YJrXZNnTfqMialLs/TxKRjKIx3cdMQTDhg6SESIiIjJU2Qtn+szwQvduXdVt8ffe188/x1SPWrVqqqt/vP9+WxkhMlzZC2cOHTIQY8e4yp7WqtXr1anM+qZ69OrZHaNGDsMLL1SXkSeDhTOpMJikKMeyJylSUv6G6yg31KjxAp6p+Ayu/Porli9bpCYqdEmKwYNdULfOG+rxBXXv3j3MnjMPkyeNh4mJsYwWnEbznzqNQyd7kkLnaNxxBAWvxqlTp2Ukg5nZ62qyolNHOxkhIiIiQ/OoJIWOGEGhb6rH6JHDMXz4YNkjMkx5SVIIf/xxDSuCVuud6qEuWTpymN56FiWFSQoqDCYpyrHMSYp//vkHI0a6oarypha0IlDdP36iJ65c+RXLly5S+yJJURqWIM0tSaGzc9ceNVmRuUioTts2lnAdMRRNmjSWESIiIjIUeUlSCF9++RV8/ebmmOphbd1OHVUhVi4jMkR5TVLoiJFDIlmhb6rHk1yylEkKKgzWpCD8+++/GDN2Ip599ll1vpvOwgX+6giDUWPc8ddfN2S09OverQuiI3erb/rZHfkuDv2dh8B31twy9TMTERGVJx9++H8I27IxxxSPmJjD6uof4paoOBw/cQrvWrQqcMucoMiL1q1bYeOG1Zg21SPHFI/0JUsnc8lSKl04kqIc042kaNPGEvfT7qsjKPTVmxAjKi7+ckl9cysLIykyS7zyqzqqIipqv4xkENWUxRSQwYMyvrEhIiKiJyevIykyW75iJYJXrpW9DMOHDcboUcNlj6hoiCTFoMEjsG5tsIzkz907dzB23CTZe/xIisxu3LihvtbDtu2UkeIlfsaWLbIuA6zDkRRUGExSlGO6JMXbb70Jb+8pqFq1qtyT05EjRzFv/qIyl6TQ+Vb5+USyIj7+BxnJUOcNc3UKiJ3dRzJCRERET0JBkhRCTOzXekdJipEWYvqHKK5JVBR0SYof4rMWcM2r/E730FmzNkRNUNy/f19GMoiRRWLFu3pvvyUjhSdGfTBJQcWF0z3KOZGjSvjpZ3zSbxC6Ojrl2kSCoix7r21rbN64VjtP9cWs81TFCJJJHlMxctQ4/PDDORklIiKi0kLMyQ/bulGtSZHZN98cUad/iBoWRKVRZOQ+dHbogcAlK3IkKBo1fAfLlnyKRZ8GFGmCgqi4MUlRjrVo0Qyhm9fnq1WpXFneu2zq2bMboqPCMXjQABnJ8LXyQaZvv4HqyiQ3b92SUSIiIioNxJcQSwMX5JjiIYpruk/wUFcFISotTp76HkOHj4anl7c6fTmzGjVqYKrXZGwJDYHVEyiaSVRYTFKUY+++27BArawTtSjGuY3GnvAw2NnmnOKxNWwHOnZyREjIZhkhIiKi0kLUohB1uLJP8RDLloqLvt9++11GiAyPWHrUe8YsuAwcrq7skZ2opbYvKhy9nXrICFHpwyQFUS7q1HkD8+fNxopli/Buo6zJmX/+ScWni5agW/c+OPDFQRklIiKi0uD999pg29aN+OhDGxnREhd9YvrHvn1fyAiRYRA1HsRSo3YduyJ8914ZzdCxoy0i9mzHOLdRMDLKWQifqDRhkoLoMT744D2EfrZeHTaXfWmnn3+5iAkTp2D02AlqMS8iIiIqHUxMTLDwU3/1oi6zO3fuqrWoFnwaKCNET1Z4eATsOzmqRd6zr3nQrFkTrFq5FAFzZ+ENczMZJSrdym+S4tg8VK5WLWur2xz2Dp3gung/Eu/J4xCHgOzHida4vTw2DsnySCHOX+z3QkyaDDyOvuehtAY2nZTzj0LgdynyQEUux2Y03ePm8px1zWEDuFJy/olhc9GR4XBx7icjGWJjv1arjc8N+BTJyZn+PyMiIiKDJobHr1m1HK+99qqMaInpnURPmqg94e3jp07zyOyVWjXh6zMNG9avQpvWljJKVDaU+5EU1p6hiI6K1Lb1CzHCxhgx07qjQf9sF/I2C3H06lVcU9tZHF02GU7vANHT2qOJTyzympPIjfWCb+W5lXbuWwR59oLFg33w/KgZfA5nPXuW55ylOaGBPEZlMxlb9R03sTVM5CGUP1WqVMGE8WOxa8eWHENEhdDQMDXTvXFTqIwQERGRobO0bIltWzfB3q6DjBA9GWfP/Si3tE6dOi23tCpUqKAujR8dtRuOjg4ySlS2cLpH7cawbmeV3rqMC8VWPwvgwCiEZalFUwnGxsYwUZs5LNrZwsV/OXyU69SkBftxtLBZikq6cyvNzALWHZzhv8wb1khCwIG4rEmQbM85o1nANMsUNDPleeo7rh6TFIX01lt11SGiS5d8infeqS+jWnfv3sX8BYvRo1c/HDwUI6NUlMTvd9BgV0zxmiEjRERkaMT79LsWrdCkWWv1fdvQVatWFRWfqSh7RE/G1d+zjpjIzLFrZ+yL2o2RrkPx1FO8jKOyi69uPWrW1s7nun33cZmHyqhsLG7TkPZQDRStSpWhPX1hMyBUXNR117dshKfHBBgbPy+jWgkJP2Gc+2S4uU/ChQs/ySgVlvjQK0aqfP3N1/g8MlrtExGRYRHvzcdPnERyyk01eS/etwOXrJB7iSg/WrduhZD1K+E7czpeeaWWjBKVXRU02auvlBeivoONL6yXnkX0QHMZVDxIRMjARnANd0BIQiicaov6Du3hY7Mc5yOcoT0yTfmjm4IrEb7o7boBqUN24vRiW3V0gqhJYe03FtE35sA6L4V19T2PtBTl/InY7fMJXDelYsS2U1jU0Tj9WEv/g9jdP+u39yoxGkN9TPmc28xBzA5n1FN36lSCifGTrfh7+/ZttLO2xYH9EahVM+vyXwUhqh1bNG0te4CTUw9M85oseyVHFNoSBY02bd4iI1m99dab6qiLZ555RkYov37++SLi488or6EbuHnrT1St+pzyGnoNFhaN1dEtRERkGMJ3RyAl5TauX9cu52n2+lvqlMkuXT5W+zrXrl1XWu7fHGd3//6/uHr1D9kDfGZ4oXu3rrJXeF7TfLB3b5S6LZYkP3Hsa3WbKK+OnziFQYNH4If4nMuD5sXWrTswe+482QNefvklTJo4Tu+y+E+SGCW1bm0wWrZoJiNZ6T6fb9+2GfXrvS2jufvnn3/kVv6I9xUqe8r9SIqYRYPVApi6Zt1MJChM4bR0BrrUlgcJh0ahQXrxyRdRq3ZdtJ5/AdZ+OxEzU5ugKIyYMY0yClu+WBu16r6HgAQr+O86iBkiQZFJnGd75fGVY7K1PluylcP8zgvWOY7zzXtRTyIDJRIUwr17d9RbIiIyPGlpGRcdDx78T24RUX78+edfmDR5KkaOdscPZ8/JaNkTGbUflm2s89W+/vY7ee9HkQsK6F04IAlh/cX1V+ZFD1IQt3gUrBuLeCNY95+HmJtylyJpe9+MazZdUxdU6AvPTfFZFlSggiv3Iyks+kxGn4YZKQbjOhZoUL8JLN/WJQZ0IykW4ugmJ5ghDddjV2JE33lI6h+K6CAHObpCq8AjKRZ8iy19lDOlXUds0Ej0XpAEl02fI8gx09lzG/2Rg+45Zx79YTjK4kiKz0LD1FEUKSl/y0gGm/+zUgsc1a//+CwyPdrmz7YiYN5C5Q/2H/j7jvbPwJt134HH5PHo90lvtU9ERE9eB1sH/Pb7b0i88rPaF+/V9evXw/awTWq/oMRy32I1LR2OpCBDU9QjKbITq82Jz5XZl8UvaUU9kmL7jnD4zpqLmjVNUatWTQzo31fuyWrd+o347+F/6nvBggVzYftRe7knN4+6LhJJirpwCdddu6UhfkEntA4ygU/QHLjUu46QSYPgc9IZ0ee81Ws7kaQwHxgBl8WRcEr/sdKQGLUEPstigYmRuOBjhSc7br30K/cjKaq3HQC3cWPTm4uDVaYERWa6wpmmqO/gjZD1vZC6qS+spxV+ZQ+VrnCmaT108VmLkD6pCOnfHp6HOOzBkMXEfg2nPgPgH/BpjgRFvXpvYfGieQhcPJ8JiiIiEhHPPfccXn75FdR+xRxvvdUQpqYvM0FBRGRgpk/3VC7yjVDnjfpqgqJGjRcKnaAgKg+qVn309AWxNK5YSS5kw2YZKVniC6PirAcWsm4l/v77b+w/8CU+bP9/Wdrez6Px4H8P1OL1xSIlFiE+cbAYOBluHerB1MwKHv7esEuah4BsI9aN61hmWpRALKgQisD+YkGFldhzVR5EBcbCmQVk3nMRgoeYImlxJ7hHpMhoUTGHk/8KjDBNQqDDBOzJNMSIDIOojTB+gifGjJ2AH3+8IKNaojq4mDu4Y9tnaG9jLaNUVI58cxAdOrSHkVFlvFO/Pr488LncQ0REhuKD99ti8iR3dQWCli2aI+bQPrmHiPJj+dKFaNTwHdnTEvUbPl24BN169MUXXx6S0eInVukRI1pPnDql9idOnKLeFqXatV9RfuZFymftXzDJY6qMAm7uk3Htj2tYvmwRXnyxhowWsR/jEKzctGllkTESok4TtDaF8h52DEkypJ8xaqprL6Qg9b4aoEJgkqLAjGE3aRGclBdtSN+Z2HdPhotKDVt4LugFU2xA77n7s4zWSL2XpBbu1Nc47qJ4ZfxR6KP3j0LfPr0QHbk71yFqVDR6O/VU1wnfumWDjBARkaERBaOFdWuD1Fsiyr/nnn8OW0JD4DVlEqpXz1oFT1zIq1+auU3Aj+ezfmlWHMQoitTUf5THPadcd9zErdu34TNzttxbdLInKjInKF566UV5VNFL+l38Dq1QzzzzZI2aMG+r3KSkIlUb0C8lFtERym1jKzR4RRuiguPqHoWs75AUPgiW/bcB4yJxwc8K8UWxuke6JOwZ2ha9twBuEefgX22JemzurBB0JhIudViTojhqUojhdaLuxK1bt2Ukg5XV++r8wIbvNJARKk6Fne9JRETFrzjeq0tDTQqbDzvJLSoM1xFD0LOHo+yVHoV93YvXn3gd6mzcsBpNm1io2/fu3VM+i67Bho2fqf3sRO2Hxo0bqa/d4iBWsPvl4o+yB9St0wA1lc/yHT6ykZEM4hJTJDU+7mSH6tUfXz/jp59/QVzc8Sy/N7GST/eeffH0009j966w9ATFv//+i+Yt3y/ymhQN9op6EynyekoeojsmRXv/yrImhek7VmiQ6TLm+rlYXEiyhEfELuWx9JUOoPwovyMpWk1G6t27j0lQCMqLTTkuNZeLfVPHdUhU9if6aQukWHoqx97NY4JCeOTzMEWX1ReV/Rfhb6OcUB6be9P9g3r0c6b8+frrb9H3k4GYPWdejgTFm2/WxafKG+SyJQuZoCAiIiLcuXMHf/31F1shG+VUtWpVTJzghp3bP1NrNGR3IeEndfnfU9+fRnJycpE3QSz/nplYuUffsaIJ4t+Dvn3ZW+o/OccpzFuwWP1CUxQJnbdgkYwahqZtbWFno2td4BkUiaMJkUxQFJHyO5KCnpjSMpLi0qXLarZ63/4vZCRD5cqV1Qz/QJf+MkIliSMpiIgMX3kdSdHSsh3S0jgBt7C8p0/hSApF5pEU2X0Vc1gd5Xv+fIKMZBBF28UoX7HKXFF57/32uJ18W2k3ULXKc8rn4aq5rrBW0NU9dL+3zFM8xMiJUWPc1Slk8wNm53MkRSJCHBrBNXUhvv9iGOrLqJbcB2VfxDCYH/JCdYcl8Ii6C5928hDdMRWX4/yujJEUbhE3tF8iU7FgkqK4XN2G3vUGYY/s6pePaSFliKEnKe7fv6++4a9dt1FGsnLqJZZ+GqJWKqcng0kKIiLDxySFmA76gXpLeRMbm/H7ZpJC61FJCh0xrUJ8dv377zsykkEUcRfJCrHqXGHFxBxWnttMdXSEmIIhCuQuXfKp3JtVYZIU+mpQiKkfukTF7Fkz8pGkSEPMtBdhv9gZW68sR5fMNTdvRsDVrC9CBobi2lIHmFzaAMfGo5CWeRq+PCbR/1uEj7ZACpMUJYJJCipxhpyk2L59lzp64q8bN2Qkw/vKG7FITjR+t5GM0JPCJAURkeFjkgLo/LE95syeqW7To4nV0sSy7jpMUmjlJUkhiASFSFSIhIU+oqi7SFaIVehKQkGTFDY21rkWydQlKurWrYMDBw7mMUkBpJ2aB7t2vohrNRlbg4fDytQISD6NlZMGwSfKHB5Ru+DTTkzTSMG+cc3guMYOIReXw8k0BTE+3WC/wBRBZ9bBpY4RkpikKBFc3aMcW79+E961aJWvFnfshLx32XLkyFH0HzAEvn7+ORIUb7xhjnkBfghavpgJCiIiIipaSbEIdG2PBtWqobJs5q0GIfC7Aixxn5KAPdvjoK0GUEQeJCFm034kyi4Zpueff06derFt6yb8n3X6XIV0GzeFwr5TV4Ru2SYjhulRq3joVv14+aWXZCRvjJpNxu4Ib9jdmIfezeqiVu3aqNWwE4ISreC/ay081QSFYAy72buwyDEWLnXFv8XasN9lAp/QOehdhwmJksQkRTknlnGsUqUyOn/cEdOmeuhtYi6bre2H8h5lS+KVX+E5ZTqGu47F6fgzMqr17LPPwm3sKETs3gZ7uw4ySkRERFQ00o7Ng3XdTlh0xRIeUSeRePUqEk/thGfzK/D8qDasF8TnY3n5eAQ0a47emy4UYZIiCXtc68LeNRaJLLNRKjRoUA9LAhdg0cIAvP121ikeyckpmOu/AL37OiP28DcyalguXroM+06OaNHqA72ti6OTOuoiv0xsJiP8zF2kJl3FNeXf2bWrN5B4bB3cOpirix+kq2qBEZvO4rZ6zFXcVv49ejhkHGPaM1RdsICjKIoXkxSEiRPGYe/nUaikXJQ79eqepd1V/hEe+ioWbVpbyqMNw507d+E6chzavt8e/2djL6N597//PcCSpUHo7NADkVH7ZTRDjx6OiI4Kx5DBGUNKiYiIiIpMWiz8+/girsMc7NkyBy7t6sHU2Bimb9tiRFAkYjwtEOfTDYF5njWQJnIKRY41QEsnsfqHWAVErAYiVgXJ7Ny58xg9ZjwmTJyCX365JKNPXheHj9UvBu1sP3psE8cWSFVjmCj/zkyMH51kMFKPMYZRRRmgEsUkBanz/cS8v+kzZmH37r0yCqxdtwGLA5dj8aJ5eK9tRs2HJ+23367C2sYOcceOoW7dN1A1n3Prdu7aow53W71mvYxkaNPGEhs3rMEM5feR36FkRERERHmVfGgPApIAFxdnWORYtdAIlgPd0AVJ8Andr46MiA/uBHuHJYh7oD1CyIglYZ+nF0JE8NB8uDiMQtiVeAQ7dIKr/xJ4dqwrp5LUhb1fbPpIi6QoL+X+4lgZUGSOxQcPgv8REQ2De7dO+UiYkKFwHvAJoiPD0ad3TxnJcOCLg3Ds3hsLFy1FamrOJUBLkrge8Zvlna+Wl3oUVDoxSUGq7ImKzAkKURXYkDgPHKoWszr0ZRQ2bViDqM93Yfy4MXJv7o7GHVfuOww+M2cjKelPGdUye/01zJ3ji1XBS9G0SWMZJSIiIioeCWdWKf+1gmWjHBkKrdqtYGej3B5OgMghpCXHIubQdaRmSlJkxExhPWUynETQZiwCN81Bl9ppSDkUixC/QFzvuQvXku8icZczUv07wW5ZvHp/3EtU7p+I1IfaripTzKL/Qripg2m7wGd9KJz5EalUql7dBF5TJmFLaAjatXtfRjOsD9mkTrEI27ZTRoieLK7uUY6JwpmLApfhzOk4GcmorCtkTlBcv56Ej2w7Y6rXZDRs2ECNFZSoPjzCdSyWLlmAGjUyrwP0eMnJyRg5yh1+fjPQpXMnGdUSoytu3ryVY3WP3377HUEr16RX686s4tNPw9V1KIYNHSQjVBpwdQ8iouK1Ini13Cq4P/64hj17Plf/zubm/PkE3Lt7T/Ye794/99RVIHRK7+oeYhWB2nBcMwzhSQthp3dQaBLC+teFS7h2yfrKi6vB2i/r8vVx/pljcQio1h4+NstxPsIZ5pB9x3U4v6mX0hd0yzFq79Ngr1ipIAVBZyLhUkc9QK5eoItlfQ7FuWw+V/fQKujqHvmx/8CX6mp2Fy/mnOohisSL1ezEqnaFkd/VPYgy40gKyuLvv/+WW8AdPWsti2I7YhWMwrRRo93Vc41z99C7/1FtzNiJ6n0tW7ZQbzN77bVX5ZaWeHNcvmIVOn7cTW+CopujA6KidjNBQUREpMeJ46cK1RIu/PTY81y4kICff/klz0188VA2GKO6ugp7Aq7nWkciFaligY/GJqisDRSIRUMzZCz4boQGFg7KbTwS/9BGqPyx7fAhdu/aCvdxY2BklDXzdOaHs3AdNQ6TPabh8mWu6UJPiBhJQeXTunUbNe9atJI9jWbN2g2aRo1bar48+JVm2/Zd6nZ4eIS679q162r/aNxxtV8Yt27dUs/1x7VrMpJ3qampmsZNLDUTJ3nJiJYuLs47a3aAJnx3hKaDnYPaz94GD3HVnDhxSt6TSqNjx0+q/18SEVHxWB60SjNw0AjZK5jieK8+e+7HLH/Td+wMl3uKxpSpM9LP3bzl+zKaPy1afZB+jile3jKa0/VtfTRGVatqxkUmy0g2N/ZoRij7jUbv0dxWukfnKttVp2i+StXuFrLGjmr8xfGdQzSXtXvVfpOlp9WezuVQ8bgdNesv6p6Ddlsna+y6Zmu/nI9bHM6dO5/+exNNfBYtjQr7uo+IiMzyezj1fdb//4raXzduaHz9/LM8Zua2OHC55v79+/LovHv48KF6//MXEmSEKO84koJUa9dtxOLAZelTPHIrpvmkiWxv2zat8cWXh/DTT7/IKDDZc5o6ckK4dOkypnvPUoeZZvZq7dqYPWsG1qxegebNm8ooERERUckztXHGCFMgODgMGRNYdNIQtzoQIbCAm6MVTGQ0qxTcvi43VUbKSeVmJhcSrmRakjQNiecilOMsYK7nWOF6UqYqmopsX7RTGfNijRqYPtUDmzetxfvvtZHRDGvWhsC+oyN27Mz/sp9EBcUkBeVIUOhkTlTs3/+ljD55opaFWHmje8++aNzEEu9atMJXXx2We4Hjx0/KLa0KFSpgpOtQdUlRB4esdSyIiIiInogatpi7xRuWh8ajqY0v9vyUIhYRRVpSPMI8u8PJLw6WE+fA00ZbWNO0tq3y3yXYc0DMAQGSD6+E/xp1U6oJc1FG4PckJKZoz6Va7w5/3X2+WwKfxYDl0C5oXRUwNq0PU8Qi7EC89rEvbcOiRbKopsoUNeuK2xQk/aGcM1PRTtLv4iVtnYfzFxLU29LCovG7CFoRiAB/P7xhbiajWn/+9Rdm+s7FAOeh+O67jFp2RMWFSQrSm6DQ0SUqovd/ISNPXsWKFXFgfwRmeHuhm2MXTJ44Tu7JqYtDJ3XZJdcRuRftIiIiInoSjFpNxu5j6+Bmsg29m9VG9WrVUL3ue/A4ZArX9d9it0/GKArzbt5Y5GiO4L611eVEa42+AutxVnKvYAqLDrYw/ckX9rW7IURbEgTo0AQJrvI+H21E9WmhCBljKcZdwKjdAASPtsL5ie9pH/ujDTDv76y9n1Sv7VhYYgNcGtfGlEPpqQ/SY5/yeXnOnPnqdp++LjgUk/ElWmnR0b4DIvZsh9vYkXj22WdkVOv70/EYNmIMpnjNwK+//iajREWPSQpC5cpGmO7ti7bv2+htixYvxZUrWYf+GYIe3buqVb0/+aS3jGRo0bwZ1q5eAb9ZM1C79isySkRERGRYTN7pBf9dZ5F64yquXRXtBhKPrYNHT4us0zyqWmDEJuW4JO1xt88sh49fJFLvZqy6Ub//TiTevYHbNw5ihG5BhXfGYkvCDe25k84i3NMB5umriZjDzj8SifKxbydEwsdnuXLOjNU+TNrNQczdu7iddBeLOnDuR25OnDiFSZOnIjX1Hn65+CP+/TcNbm4TcfHSZXlE6TJksIvaxIjk7D6PjFangVy7lmW+EVGR4RKk5ZhYglRkRPNDJAQsW+VcWSM/bt++jXbWtupoiFo1M+pNF5RuiSOhVq2acB0+BI6OonI1lVVcgpSIqHiJJUjF6hvr1gbJSP4Vx3v1uR/Po3efjG/6i3MJ0qeffhqOXTur2/kRvnsvHj58qG7nvgRpSZBLkI6LxG0/K3XkhCHLvgRps2ZNUOcN7cKppUHcsRPq6jMiQaHzZt13lFYHTZo0lpHHu/Lrb1mmLm8shiVIHyciIlJdovT3q1dlJEOrls3VEcotWjSTEf24BCkVBkdSlGMDB/bHksAF+WqFTVAUh6io/ert8GGD1KkdTFAQERFRUahQ4al8NyoaFcT/9Px+DbU9JUccPPWU9jUgpicLFZS+vuNzbcr/npQTJ7/HkKEjMXX6zBwJitqvvAI/X2+sXRP02AQFUWFxJAWVuKIeSeE3OwC//HIR7u5j1KI/VPZxJAURUfHiSAqgUqVKOHHsa3U7P1patkNamrZ2w5MdSVG6ZB9JIWqiidpopYWY1tHV0Qn3/rmDpKRreP01c1Ss+CxiDkWjRo0a8qjHE68/8TrUKYmRFNeuX0dw8BrsCo+QkaxcRwxRR0/om/qRG46koMJgupdKP+UN8+Sp0+jXf7CasLh565bcQURERERU/OrWeQOek8ejWtXnUeeNt/Hss0aYOXNavhIUT8LKVevQsZOj3gSFQ+eO6ijlka7D8pWgICosJinKMZHhzG8zdGHbdqpvtCEbNssIEREREVHxE7XbvLwmqdtbt2xAt66GOwX588h96NS5O5YtD8aDB9oaKjrNmzXFmlXLMdvPB6++WltGiUoOkxTlmFgaSQzDymtr3vJ9eU/D9s8/qfh04RJ079EXXx78SkaJiIiIDMixeeqyoJlbA5tOsHcYhcADiUiWhwlJ2/sq+zsh5JIMPMJjj726Db2Vx7JfnygDxSftp23w7NUc5srjmbfqBPdNCSjri5jWraNdFqVB/XrqraHJWEbUO8cyojVrmmKmz1SErF8JS8uW2iDRE8AkRTlX3US7uJVYzjNg7qwcbe5sX3Ue2Ucf2qjHlSY//fwL3Md7wG3cJFxI0C0WTkRERGQ4rD1DER0VqbYgT2fYmSViUbdGaDI0AknymEpmtvD36wLzSjLwCPk5tlhdjcAI+0E4+vpYhJ27iD2T6uF71+bos6n4kyOU059//oWZs+ZigPNQfPddnIxmGDZUW4C+m2MXGSF6cpikKOeqVKmCGd5TsGPnbjz87yE6drRNb+3bWyNibySMjIxgbPy8vEfpc+irWPTs1Q/zFyzGvXv3ZJSIiIjIANRuDOt2VtrWoRfclu5E2DRLJG3pC7ft2jSFSStnuI0bBus8jLzPz7HFKT48AGFJDnAd4wxLM1NY9JwDn4mm2Oe6CjFlfTiFgVmzNgT2nRyxY0e4jGTo1NEOn0fswJjRI9JXJCF60pikIPTo7givKZPgNdUH0fsOqDFxMT9ipBv+9+B/CFoRqFa4Li12bg9F+/b/J3sZNm4KVd+gt2zdLiNEREREhsYIluO84aZs7YmIVUdTJEV5qdNAwq6kYM/E9sr2KsSrx0qXtsHVoRNctydmOlbuuxIBz26N5JSSurD324cUuUsnMcILjq3qph/TdKByft33Okn74SnO7doXDdT9zeFz+HFZhkRcOKI8QxtrWJjJkPJzNbCwUm6XIO6MNkLFS3yud+jaC4FLVuDff/+VUa0mTRpjZfBS+M/1hZnZ6zL65GzfEY5mLd5D0+Zt1du8tP1fHJT3prKGSQpS9endE5MnuWOyxzTs2ROpJiieqVgRwSsCUa1aVXlU6fDmm3WweGEAAhfNR71sSx7dvp2MOXPno+8nA/H1N0dklIiIiMiAGJmhqai5GH4B5x8ot/cSEXMoEakPjWHVrr6yPR7h36lHquIjAhFyyBx2NuaZjlV2pMXCx6YvttYYi5iEG7h9JRR2N2MRo72bKjlqPKz7hsF4UCgSb9zF7YQV6HJlPFr32QB1YsaDFCQeikXIgRQ4rY9E+HoP2Dc0Uu+buyQkisUi3jaD8ozSmdaur97evsuhFMXpzA9n4TpqnPq5/vLlrNNrXnrpRXV5100b1qBtG0sZNQz/+9//1EL9b731JhwdHfS2Zs2aoGlTC/VYKrsqaBRym8oZp94DkJLyN/ZF75YRYOmylVi1ei3eeacBQjevw9NPP63G/QM+VUcgOA/4RO0Xhlg7XJyrV89uqFq18AmQ744ew4ULCbKn/KH+/iieeioj/7ZxY6i63ru+qR72dh3g6joUb5inp/mpFCiOtfeJiMoS8T5ZGHsiPkfChZ8wefJ4Gcm/hISfEDBvIdatDZaRnK5c+VX9XJBX164nKX/XP5M9wGeGF7p36yp7hec1zQd790ap22IU6YljX6vb+dHSsl36z9T5Y3vMmT1T3c5BFM608YX10rOIHpj5Ul5IQlj/unAJH4voG3PQYG9fmA9MQdCZSLi8Egufhp0QMPAgUqeJi8x4BLZ9D4ta7cTpxba4vz3j2K4XxqNWrzh4fHEQPm1kYuHMErRu64Xq6uMCId0awRUL8X3oMNSXh6QdUvY7LIFH1F341N2G3vUGYc+Inbi9wBaPS09oxSGgWnv4jIvEbT+rjPvIn9kt4gb8bbKe6ccfL8CpzwDZg3oh3bOHo+yVHoX9jCJef+J1qLNxw2o0bWIhe4928+YtBCmfecVqd/oMHuQM1xFDldf2szJSfESyQRTe375ts1rf7nHESArfWXMRHLQEriPdMGrkcAwfNkju1QrfvRfeM2apX6zOm78ICxbMhe1H7eVeKkuYpCjHsicprl2/jjFjJ+J///6LS5cT1VEU773XRt2nS1J0KII3AjHcTNSJsLb6QK13UVg/nr+QpTpx9iSFIEZQiETF1lymegwdMhAjXYdyLl4pwSQFEdGjDRrsqrxXnpS9sqvsJikSEda3EVziJiP6nHfWJEWdNMT4NIT9Aic1gWF9Zh7MbfbARSYixOoeumOb7qqL1j6WCEkIhVN6jYo4+FRrjzj1cZPU7QDTerBuWFPuV9y9gphjidrn1uGYmqRI0fs8c8MkRUknKdaHbMLyFatw//59GclgZ/eRmpyo80Ze///Tb/NnW3HoUCwaNKiHSRPHyah+BU1SiN9b7OFvMHrMeLiPG41BA7WvCd1+8bro4tBJXXWQSYoyTCQpqHzq5dRfY2vXRd1WLvI1XRydNOMneKr95StWapo2b6s5GndM7c/1X6Bp0qyNul1Yt27d0jRq3FLzx7VrMlI4s2YHqOfTtYcPH8o9OZ05c1YzYqRbluN17cOPPtbs3LVHHkmG7Njxk+r/Z0REpN/AQSM0y4NWyV7+ifuKcxRGcbxXnz33Y5a/3Tt2hss9RWPK1Bnp51YugmQ0f1q0+iD9HFO8vGVUj7gAjVHVqhq7dZdlIJPUGI2Hss+oX5jmutK9vq2PcmxHzfqL2t2a+ECNpbJ/XOR1zVcz6miM2szUHL2r3ZX52NPzlX1VR2p239Du0zqq8dc9ru5xRq/UfBUbk7MlJGs0v4dpnHJ7nrm6rFnfWTmvY4iylSH14BTl+dTRzIhNlZEM586dT/+9ibZt+y65p3Qp7Os+IiIyy+/h1Pen5R799h/4UtO1m1P68eJ127R5G3W7nXUHzeGvv5VHFo54PxDnfLdJK/X2ce8P4vO4OO78hQQZeTTx/7c4XueLLw+p/Q0bP9OEhoap2+HhEeq++/fvq/19ys/+eNrXu1HnrK9Freuarf2UfVWnaL5Kf0kma44uGqmxelfEG2qs+gVovsr070f776uqxnKpnv9f5L9pj4M5X9+UP6xJQeqoCTGsql69t/DpgrlqbKTrMHVqhxhZcerUaTVWFrz7bkMELV+Mef5+MM82xeN6UhJm+PhBedOF8gdGRomIiIhKVmL4SgTCFE7drJT/6tHYCn0aA8HRvghbkAS7AU6w0DOD1uwdsZzkBly4qO2rLl3IqElhZIJaynlwpRLMdSuMiFYzDReS0lC9qrH2uHyrCfNmyjM/kIDETLN5Es7EKv+1Q9PH1rSgxzl37rw62mDCxCn45ZdLamzC+LHq6J9TJ46gj1NP3Lp1Gz+cOatOAylMW7lqrToy68bN6/j553NI+vOq2hdxfcfrmpCS/Lfefdlb9mnZH7b/P8yfN1tdnW+O/wLMnTMTXbt2lnuLSxriF3SD9dLrsF9wEonnlsP+/krYt/LNsSJNvOdIBLIAbLFhkqKcE0VnRIJCVPgNmDtLRrXcxo6EU6/uGOM2ATdu3JTRssHevgP27tmOMaNdc0zxOHHyFAYPccV0b19cu3ZdRomIiIiKXuq9JCSnpCgtEfGH9yPMpzush0bAtI83PDvoTVEoLNDF1RZYvwEhsIVtOzO9tSJMbJzg0xjw8V+iXa3jQSLC5ioXXNrdCgv0dncADo2C+xpZ3yslASHzR8LdMwwXRNHOAjGCdTc3WGIJAoLjkKxE0n7agEVL42ExrhesamiPovxLTk7BXOWivXdfZ3VahFChQgW0bNkcLs791L7g5TUJ5mavY9Wa9bC2sStUW7Z8pXrO5GRt4uHOHe36MCKu73jRbD7sqB4zZNhIvfuzt08XLlGPz+yPP67JLeXfSWrea9cUWEosQnziYDFwMtw61IOpmRU8/L1hlzQPAVuyFiAVtWA8Ryv/rmSPihaTFOXYgwcPcfPWLbRpbQm/WTNkNCuRke38cUf89vvvMlK2DBs6ENGR4Wq14Ox27/kc9p26qlliIiIiouIQ59ketWrXVlojtO44Ev7HasJ1fSRiFjuj/iPqi5t3dIaL2HB0gt07uYxMMLKEx5Z1cPk9EK1Nq6GySSP4VLSDGF+hY9ozCEcXOODCuObaJUhrN4dPvBX8Ny+CU2Hqijcei5BtY4Glys+nnLd6M1/Ed1yIle5WMJGHUP5ol9PvitAt22RES6PRqCMPsmv7Xms8VaECvjzweaGaqNumj4jrO160A/vE8i7AyqAlevdnb+PcRqvH66xctQ6LFi/D4oXz4DtzulqPYvfuvXJvMfkxDqLMb5tWFhlJvzpNlH87QMyhY+pywFrKvw//sTA95YXhy5imKA5MUpRjFSs+rY4iiIrej1atrXJtu8IjcPmybrHtsqdmTVP4+kzD+rXBahY6s4cP/1OzxB937o7IqH0ySkRERFRIrSYj9e7dbO0ivo9aDo+eVjDPlKAw7Rmq7BNFM2VAqOGAIHGfTb2yLvOZ/VizXgg6dhG3r17Ftas3cD5oObYq98sogmkMixGhOH/3hrJfe0zisXVwayOnetTule34vDPvOAfRCbrznsP3S4fBgqMo8u3gwRj06PmJOvXh7t2s0yIavtMAzzzzDI4cOSojGU6ePI3nnn8OpqYvF6qJopvGxs/jrTffQe1XzPFmXe1jdnPsovd4XRNeqPGC3n3Z2/PK89QRBUCXr1iJZUsXon17azh27Qzv6Z6YPmMWPo+MlkcVvaTfLyj/tUI988xJv5owb6vcpKQiVRtQGXf0Rsg4U8R7dkMA67gXOa7uUY55TJkut/Iu+5SQgrh9+zbaWdviwP4I1KqZqZJ0AfnNmYewsB2yp391j/wQWVqxEoi+qR7vtW2t1uto3LiRjNCTwNU9iIgeTazu0aJlM4xULi4KQvwdPHH8FNatDZKR/CuO9+pzP55H7z7Oslc6VvdoksflIwmY5ecvt7i6h47N/1mpq+JlZ2JsrC6j37dPL3h6eSMqaj927QjFm2/WVfeLJfqHDR+tJhhyGwmRHzExh5XnNRN37tyBsfLYfr7TYW3dTu7NqaCrewwZ7KyOGFka+CnaKp+7MxMjSMRUF/85vurPnLfVPeRKMzbLcT7COUtC75FL/aYnBOUxKdr7V860eo6LaSw8G3dCILwRc3EyLB+xeg3lD5MUVOIMPUkhPHz4ECuCVmPV6nUykpWo1SGSFS+8UF1GqCQxSUFE9GhMUhRMUScpqOCYpMjdgP594TpiCKpVq6b2xfL+7T/6WC0++fxzz+E/5fLu77//xiu1aiIqMlw9pqi8a9FKeV8IRssWzWREv4ImKapUqYKlgQvQqlULuScrkcAQLSnpzyefpFCOSTvkhfoOS4BpB5FoE8skRRHhdA8iPZ5++mmMGT0Cn0fsQEd7WxnNELZtJ+w7dkXIhs0yQkRERERUfNrbWGPHts8waeK49ASF8Oyzz+KL/RH4P+t2MDYxRo0XqsOhc0d8vnenPKL0qFatKnx856Djx930tq1hO9RCoXlnClMb5Sb1PnKmDlORKmqA2pijphFgXEOkMGKRmKUUnzwma539dEY22mkfSX59EXCIycmiUi6TFGk/bYNnr+YwF8WB1FYXTXt5IeynTC8sMVwnfb++5pV1KZqUBOzxHwXrxpmOadwdnhHZK8E+isjUZbq/rtVtDnuHTug9bRsupE9Dy+XYTM1+vfaxk7b31btf1zz5DypXZmavI8B/FoJXBOaY4vFPaqpaibh7j744ePArGSUiIiIiKph79/6RWxnESITAxfOxeNE81Kv3loxmZWRkhE8XzMWe8DCE79qqFpss7MjikiZ+turVTVClSuVHNlEfI7ffQ041YS6W2f0uHgnZFyu8eQZxh5Rbs5rKUcrv0Lwe7JTbuIuZrt/kMdY2TdRjcjKC9ZR1cDNNgo/fPBmjwip/0z2uRsClXV/ENPdG4LResDKrjuSE3Qj28UXg4SYIOrNTO7xHzimy9gyFRzt9a0SboEErC5iKkTz34hDQuT18rtjCZ5E3nKzMYZKWiP2LvOCxLBZNl55FeJ6KDemGHA3D1oszYKWOEkrD9YQLSDiyEp7TIpDYYTnO7xJDlXTHOmNRVC/UV++fTc0msH7bWE1SmA9Ufu7FkXDSM9qqel1LWNQuuSFJpWG6R25E9jYoeLW67nR2Ys6gmPNXLw9D2qhwON2DiOjRON2jYIpiusf583IpTyq0Bg3qya3So7Cv+61bd2D2XO3F7nPPVVNrSvTv10ftG4Limu5RnNJOzYNdO1/EtZqMrcHDYSUu4JJPY+WkQfCJModH1C74qNd7Kdg3rhkc19gh5OJyOJmmIManG+wXmCrXiOuUa0QjeV2VfUpIxrQPsQIIp3sUAZGkKE+ub+ujMaraUbM4PlVGpISVGruqVTVGc49q+3EBynFVNXbrLmv7uUrWRLvVUY7towlKyHbOTPu2JsrQI13XbO2nPIeqUzRfZT+VJlXz1VSxr6Nm/UXRf9SxWWl/5qoaj4OPObCE3Lp1S9OocUvNH9euyUjhzJodoJ5P1x4+fCj3FI979+5p5i9YnOUxM7d58xdp7t69J48u3zZt3qK2onbs+En1d01ERPoNHDRCszxolezln7ivOEdhFMd79dlzP2b5m7tjZ7jcUzSmTJ2Rfu7mLd+XUaK8K+zrfsuW7emvQQ/P6Zpr16/LPYZBPC/xMz6O+Dwujj1/IUFGnqzbBwM0Xd8V104ZzazlQM3i/ZeVq6xM7p7WBPVrmHHcu900/nsyjtFdS2qvxzIT12rius9wrrlKs/I33aOiyGqJuUb3tX2dt4chXCyP5JrPCsxX9yNkTRIwsDd6v509Y2YM60m7EH1kDmxNZajAjFC5mvYkaQ/UG3pCREGfiRPcsHP7Z+rcwOzUNaw7dsWWrdtlpHwS3+IFzFuoto8desgoERE9yueR+9T3T9FENX0iKr/E8vcdO3XDmrUbZIQKysRmMsLP3EVqklgON9NSux3MlausTKpaYMSms3LJ3qu4fWonPBwyjtG7HLDKCNZ+F9WlhDmKovDKXZLCtMNw+LQCgnvVRgObUQjYvh/xV1LUQipGxsYwMc76okq9l4TklJScTVfG4Woi9ig31s0aw0QbycKotgWsG5vDpBCv1TTl8RIP+MJndRLQoQusX5c7VGlIuann+aXkrDNxP8cxSmM5igJ7++231LmB6vxAZTuz28nJmDN3Pvp+MhDffHNERsuPce6TcfzESeU1dhO3bt3AlSu/qut7ExFR7kRSYoqXt/r++d3Ro3Af78FEBVE5Y2ubdbWK//3vfwhcshxdu/XGF1+IAgpUKFXF9V7Oa77stNeFxjDKpWAmFa/yuQTpgyTEhW9AyPowRB9OUOcOAeaw81uL9eMstckGWZMiN9ZLzyJa1JnQ1a7Q9QtFV2dCdjMzrQe7PmPhOcYZluqAikccq9IupWOt/PvT1aTQp2ied/6U5poUj7Jh42dqvQp9BY+aN2sKe/sOMH35JRkp2yZ7TsetWzdx9Q9t4SETkxfwSq3X8en8OWq/sH7+5SKWLA1Sl6giIiorPL1m4M6dv3HpsramgbnZW8r7pwnmzp6p9vNDvEe++WZddFT+9hREVPQB/KK8144d4yoj+fe492qx3PeP5y/IXt78deMmwsMzPtMYYk0KKt8KW5NC9zk5N9oaaMPyUTiyaJXGmhRU+pTPJEVmD9KQ+OMB7Fu9Ev7rY4GJkbjgYwWjvCYfiiVJkVE4MzkhDD59xiOmnjfCtk+GZVV5aPqxGcmI3OiSFIZSxKWsJimE9SGbEbxyDf75J2eiQnzYqVq1CipWLPsp2b9u3MA/9+5lSVK8+GJNvPxS0SRp/v3f/5B8Oxkvl5OkDxGVD3/+9RdSlb8fuvfO2q+Yo3KVKgV67xQj+p595hnl7076B4d8uae8h4v32uom+saJ5s3j3qvFR9CbN2/JXt6Jix8dJinI0BR3kkLHxbkfRo0cpq7qUZKYpKASIZIU5cdlTfSiQM3ibaezFkhRJWt2jxAFUmQhyrwWzry+R+MsiqqM3qO5LUNZxK/UOPVz16zPXqhTL/3FMFOV52IlHsMxRPkJdFg4U6ekC2fqs2/fF5qujk5Znoeu9erdX/PVV4flkeWD27hJ6s/+qlkdzSuvvqFud+/ZV+4tPBbOJKKy6L3322verv+u+jdbtLpvNVRjBcHCmQXDwplUWIV93es+J+ta4JIVGvfxHlliumZtY6fZvn2XvGfJEI9bGgtnUulSzmpSVEbKSS94DlyF/dnXydVR1xTNB1Mr9B5iCqzfgN2XZCxdGmK2BWBP+BWkFeLLc6NWkxHobwkcGIXey+JllAzBmTNnMXLUOEyc7IVfLmZ9AYh1nr08JyJsy0ZYW38go+WDqNPRskVzmBjXwAsvvAgzs9exY9tnci8REenjqfzNePZZI5i9/qZ2FEXlKmqMSkbSn3/ir79uyB6R4Vj4qT8CF83PUQPtxo2bmDlrLlwGDsOxYydklKj0K2dJClN0GeMNS2xA7/8bheBjidrikUkJ2LdgENw2AXbuXdA6U54i18KZStPWnDRW7jMXTqb74frRIPWcYvWNtJsJ2OPXHS6Lk2A5cSx6v1O4oVgWQxaqBT/jPb0Q/JMMqnIrnKm0e/IQKnJiOsMsvwB80n8QvtZTGFMMwdsXtRt9+vSSkfJHt7Z+nz498XlExnQcIiLS7+NOdvCYPF6d4lG1ajUM6N9XjVHxi1Mu8Pr1H4yjRws2RJ+ouNnYWGHH9s8w3n1sjikeJ0+dxuChI+E9ww/Xk7TV9ohKs3K3uocYlbD7izlweTEW7jaNUKt2bdSq2xyOG4HeQd9i/WiLLMvQxHm21x6To/XFVt0X52a9EHJoJ3zaxcNfOWd1k2qobtYcvdeLcx5E2DQrvSt/5IuRBdwWiASL8rw9N0A7W1VYhd719D0/pc2NlYkUKkpr126AfUdHbNu+U0Yy2Hb4EOG7tmLC+LHqUqUEfPRh1irVRESUu36f9MbQIQPVgsuTJo6TUSpOYdt2YohygXf9etaLu/HuY+QWkeEY6NIPUZG70KO7o4xkCN8dwSVLqUwod0kKwaTNWAQdOovUGxnr5Kae2Qn//hYZyYRWk9V1bnNv2dbHNbOFx/qTSEy+Ic95FbcvRirntIRpnqd6mMJpkzi3/kKYRs0mI0Y89i5nmKcf+4jmZ6UmXLTr+XLN3sKKit4Phy49sXjJcty/f19Gtd59tyFWLFuEBfPn4M26ORZOJiIiIgMUMG8h/GYHyJ7WSy+9iJXBS9C3HI+GJMP20osvYob3FISsX4lWLVvIqBaXLKWyoFwmKdIZ5W2d3HypaCTPaZxlRAaVXt+fjsfwEWPh4TkdlxOvyKjWiy/WwLSpHgjdvB4ffPCejBIREZEhu3nrFlxHjcPmz7bKiJaop7R541q0bdNaRogMlxhxtXbNCvjOnIaapqYyqnXx4iWMn+iJD6w6oHdfZwwa7FokjagklO8kRUkSS5VWq/bo5pB5Ggc9aWJOn4/vHAxwHooj3x2V0QyDBzkjOmo3nHp1lxEiIiIydCdPfa/Wn/gmW02pnj0c1XpKr7xSS0aISgfHrg7qFJDBg51lJENycjLOnTuPBw8eoElTC7Ro2axQzdV1qDwzUfGpIJb4kNtEJUK3/vOB/RGoVbOmjBac35x5CAvLKMwY//1RPPVU4fJvq1avQ1DwGvUNPbuO9h0wYvgQvPGGuYxQbvK6lnZ+FXYNciIiQ7YieDVOHD+VXoC4IMQ3nuKCYuSIgl1QFMVzKI736nM/nkfvPhkXYj4zvNC9W1fZe7ydu/bAZ+Zs2csg6n+IQqVEhaV73Rf0Yj4tNRXrQzbLHtQaNWPH5G0EgxgZtCJoNe7cuSMjGUQR3pGuw/Daa6/KSPH677//YNG0NbZv24z69d6WUaK84UgKokz2fh6FTp27Y+my4BwJiiZNGmNl0BIE+PsxQUFERFTKfLpwSY4EhVgufPnShUxQUJES04ZEkq8g7fTpM/Iseff119+id18XtcZK9gRF43cbIXhFIObO8S2xBAVRYXEkRTnm1HuAOidTXIxXrJi36p5fHvhcbhWcIY6kOHHyFIJXrkVc3HEZyWBq+rI6cqJH97x/U0NaHElBRJR/HEmRu4KMpPj7778xddpMxMR+LSNaTZtYwG+WN15//TUZIXrydJ+TdR41kuLKlV/VkROiuHt2xsbGGOU69Ikth8+RFFQYHElRzt1Pu487d+7CxMREuRg31dsqVHgKL7/8Mm7evCXvVXb88cc1TJ8xCwMHjdCboBg2dBCiI8OZoCAiIiqF4s/8gE/6D86RoHDs2hkbN6xmgoJKJfEd8/IVq/CxQw+9CYpP+jopn193PbEEBVFhMUlRzlWtWhV2th/ifloaAub64rNNa7O0dh+0xfXr11HdxFjewzCI0R+fR+7Dps+24PbtFBnNO/HmHhS8GvadHLF7914ZzdD5Y3tE7t2JMaNH4JlnnpFRIiIiKi32RESqBTITs63M5T5uNHxnTpc9otJl7+fR6PhxNwSvXCMjGT54vy22hIbA02MCnnvuORklKn2YpCDM9vNBg3fqY4zbBCQl/SmjwLLlK9Us7bKlCw1qDtu27TvRrMV7mDZ9JpYrz/HAgS/knrzZvWevmpwQw+PEULTMmjdvitWrlmPO7Jn8doWIiKiUClyyQv2ckNlzz1VD4KL5GDRwgIwQlR5nzpzFCNex8Jo6A7//flVGtcRn1gD/WVixfDEaNXxHRolKLyYpSDVPFIM0N8fosRPUaR2LA5djfchGtdCOVbv35VFPXnz8D/CbPQ916pjj1IlvcfRIDAIDF+Dpp5+WR+Qu7tgJDBw8AtO9Z+Hq1T9kVOuVWrXUb1VC1q1Ea8uWMkpERESlyT///AP38R5YszZERrTebdQQmzeuhY2NlYwQlR5z5s7HJ/0H4dsjOZfEFyt2iNG/He0z6lgQlXZMUlC6hZ/6o1ZNU/To9Qm2bNmGoBVL0LZta7nXMPj6zcULL1TH7l1h6cUxbazbYe3qFeq2Pr/99jumTvPBkKEjceLEKRnN4DpiCKKjwtX5qURERFQ6/fjjefVC7suDX8mIlpjCuXnTWtSp84aMEJUeW8O2Y8vW7bKX4eNO9oiKDFc/xxKVNUxSUBa1atVEcnIKXn2tNho1bCCjWg8fPlSrDRe2OXR1Us/Xs1d/vfsf1X7++SLefLOuev/MLCzeRYUKFWRPS9StWLY8WJ23F7E3SkYzdOnyMfZF7VYz0PldDYSIMixfsRI3btyQPSKikhcZtV8tkPnLL5dkREvUlhJTOPl3nkorUeA+M3VJ0aAlmDtnJl57tbaMEpUtXIK0HBNLkKak/I190bvVvq+fPw4disHiRfPUWg+iXkPQikA8++yz8A/4FFvDdmD5skXqsYVx9+5dTJzkpX5oEKMi8sN7xiz1eX11MFpGtM5fSEAvp/7qtliCNHz3XrWg0PXrSWoss1atWmDE8MHqGtZUvLgEafkgkhS7wiPgPc0TVlYfyCgRFRSXIM2dviVIr1//M0cRQSMjI8yeNQMdOrSXEaLSIfsSpDrqkqIjh6FP754yYti4BCkVBtPKpPKe4Yevv/4WwSuWoIlFYyxd8ikeKm8uY9wmqithCGKkwnttWxe6tWqpTQ60aNFU7/5HNfGNyI0bN9WCnjpixISX14z0kRQug4bDZ+bsHAkKkW2e7TdDnRrCBAVR0frzz7/UmjYrgjL+bRIRFbejccdzJCjq16+nrlDGBAWVFZ98IpcULSUJCqLCYpKC1CrBx0+cVEdN1K+vzXSKbyCWBn6Ke3fvYYxy4WEounbpjP/7v3ZYuWot+jsPUVvzlu/j4qXL6cmU77+PV291RFHNUSOHq/P2HDp3klEiKg5BwWswasz4LCsFEREVl337sq7wZWf3kZqgePvtt2SEqPRKX1J0MpcUpfKFSYpy7tbt2zh79kd1FY8369aRUS2xVJcYUfHXjZs4/PW3MvrkLV44D127fKwWxLx48TKef/659ARFdt0cuyA6Mlyd3kFEJePw4W/g1McZh76KlREiouInCgjOD5itTlMlKs3MzLikKJVvTFKUc8888wxeeuklzJu/GKNGj8/Rpk33xfPPPYfXXn1V3uPJE8WvxHKhMYf24cg3B2Fr+5Hck6FN61bYsH4VZvpMVYuBElHJunnzJtzGTVKL1xIRFaeKFSsiYO4stRA2UVnweQSXFKXyjYUzyzFROPP3q1dlL2++/fqg3Co4XUGgA/sjUKtm4RMIfnPmISxsh7ptZvY6XIcPQadOdmqfnqzSUjhz1Gh3nI4/I3uU2bChg+A84BPZ008UzgxeuVb2cnr/vTbwnj6FCUOiPGLhzNxlL5wpVvyaPcsb77yTdUUyInqyWDiTCoMjKcqxsK0b1aRDfpqhEkM7x45xxecRO5igoAL5++87bHpaQYi6MZl98+136vSPLw9+JSNERIX34Yf/p9afYIKCiKhsYZKCygRRd2LokIGyR0RPkve0KRg9arjsaYkRVO7jPbBk6QoZISIquCGDXbDo0wBUqVJFRoiIqKzgdA8qcUU93YMMV2ma7qErDvvyyy+py/CWZwe+yBg1NXGCW76ne3x1MBovvlgD33xzBL6z5uJatuWA27axVKd/1K79iowQUWac7pE7Md3jl18uoYsDV+siMmSc7kGFwSQFlTgmKcqP0pqkOPhFpLpdHiUmXkHnLhnrsBcmSSGIFYREouLgwRi1r2Ns/LyaqOjwUXsZISIdJilyJ5IUDTm9g8jgMUlBhcHpHkREVGxeqF5dXTZY1IzJLCXlb0yYOAWLFi+TESKix2OCgoio7GOSgoiIip2oGbMyaAlqv5J1ise69RsxdNgo/Pbb7zJCREREROUZkxRERFQi2rZtjbCtG/DRRzYyonU07jic+gzAvv1fyAgRERERlVdMUhARUYkxNjbGwgX+GOc2Ska07ty5i0mTp+LThUtkhIiIiIjKIyYpiIioxA0e5IzVq5bhtddelRGtkA2bMWiIK65c+VVGiIgyiMKZRERUtjFJQURET0Rry1YI27IBdrYfyYjW8eMn1ekfUdH7ZYSIKMPGTaFyi4iIyiImKYiI6Il57rnnMH/ebIx3HysjWvfu/QMPz+mYv2CxjBARaYn3hSle3khLS5MRorJDLNVPVN4xSUFERE/cQJd+WLsmCGZmr8uIlvjG1GXQcFy+nCgjRETA55H74NTHGd9/Hy8jRGWH+wQP/PzzRdkjKn+YpCAiypM4BNStBteIFNmXrmyDixL3PJSHb/SubkPvap0QeEY59kESYhaPgn2ruqhcrRrMW3WH5/YE5H4W5fGV4yo7bEDOy/UkhPVX9lXzQow4gfo41WC/XntknL/Yl3vL03MvAa1aNkfYlo3oaG8rI1onT34Pp94DlIuSaBkhIgIuXbqMAS5DERoaJiNEZcOXX36Fbj36YNHiZbh//18ZJSo/mKQgIsqLM3EIT3KAdXNjGVDcjIXPwEEIS5L9x0iOP4o9ja3Q+m0gxqct7Jdeh7VfFBKvnkXYIGNsHdgcfWRioVCqmcHObw661K2sdut1i0R0VPa2Dm7txF5LVDdRDzMIVatWQYD/LEyaOE5GtFLT0jDFawYC5i2UESIirbkBn2K6ty8ePHggI0Rlw7r1G9HxY0fs3LVHRojKByYpiIjyIPHkfsR3sIVlbdFLw4XtXrBv1QkhV0zV/Y+XhtNHVsHUxhIWKQcQsjgJ1u7ecOtQD6bG5rAcMRcBjsC+MdsQJ+9RYMaWcBk3FiPaaZ+bydtWsG6XuVmi8pGVCDxsCqelK+DWzEg9zpAM6N8X69etxBtvmMuI1q5wflAjopx27/kcvfs444cfzskIUdnw559/wWfmbAwcPAInTpySUaKyjUkKIqLHSkLcoVhY2zRBTbUfjz2e8bDwOYi49cPVSBZJ++Hp0An2izOnG+IRtwWwb9UERjU6YPG5b+HRwRw50gOmaUgVsy/0niOP5H1dt+sflZEUPhJOfnGwnLgOiwfWy/kcDESL5k3V6R+dOtrJCBFR7hJ++hl9+w3Etu07ZYSo7BAJCpGoEAmLP//6S0aJyiYmKYiIHiflNI6GW8C6le6C3hIeFyPh398Spvqu8I1MUN/GFna1jTJqTGSeLlLRCCZmyvnezjR15NI+bA0HLAbaorU4p75zCL8nIOZwbLYWh/OZS2U8SEHioVgk3pX9zK5sg8fEbUCf5QieZIXHzfS4cOEnREcfeGT75ZdL8uiiV7myoaZQiMgQ+MzwwtNPPy17WrP8AjDTd47sEZUtYupHx07d1KkgRGUVkxRERI+RdjIWwaZWsGyYxwtmOd3CradF+iiFrNNFsrmyH+5DRmFfq8nwd7XU3kfPOVQp+xG2YB4CsrSV2JOXEc734hAgamiYjkWwvzPqV5XxRzhy5ChWBK16ZOPwUxL++uuG3CIqWWLE1buNGsqe1o6du9XpH+fPJ8gIUek0dMhAtGjeTPa07t+/rxbV7NajLw4ejJFRorKDSQoioseIPxYGdGyNJnm4qNcv+3SRDGk/bYBr5+4IN5qM8C3esK4hd+Sm4VgERUQiOktbB8+2cn+uEhE2ri98jlnCw88Ddo97HGnQoAHYG7Hjka137x7yaCrP1qwNweHD38geUcmpV+8thH62Hr16dpMRrXM/nkfvvs6sZUOl3vp1weqooZdfeklGtH7++ReMGz8Z7uM98PMvXLKUyg4mKYio1HrXolWRtMNffyvPqE88jkYkoUs7y8dOjchVjukiWsmHfGHXbBSiLRdizyZv2OW1Bme+pSHOfzBctkAtlOlpk2maCVERGjVmPFauWit7RCVr+jRPzPCeInta//33H2b4zMbsOfNkhKh06t6tK6Iid2GgS38ZyfDlwa/Qrbt2ydJ//+WSpVT6MUlBRKXSurXBRdYaN35XnlWPS6ex74wt7JoXPIOgb7pI2rF56OqgfGieGIqYxcNgkceRDQWRuL10FMqksmHZ8pUY5z4Zt2/flhGiktOjuyO2hm5Ag/r1ZERra9gO9BswmN82U6lWqVIljHcfg507QtHexlpGM4g6FfadHLGLS5ZSKcckBRGVOi1bNCvSZmL8vDxzTkkn9yPGxgpNX5GBvEiJQ8jiJQiM0q6ukWO6yM39mNLHF3EdvREw0AomD1KQnKJrskxmtnMU2NUI+HhuQ5L6WE2U82Z+LNnuyWOJisjBQzHo3cdFrWlCVNIaNmyArVs2oJujg4xoxcf/oNapiNgbKSNEpdPbb72JxYvmYdHCALz1Zl0Z1RJLls6YORuDxJKlJ1kzikonJimIiHKVhJiICFi0tUS9/Aw/uHsF+6Z5wfPIFTHRAjGrs04XSTochuAkZSPKF9YNa6NW7czNFzEiT5HlHIVw9QLCcn0s2ebGFu4xiPT449o1DHcdi7XrNsgIUcl56qmnMNNnGqZ6TZYRLTEUfuq0mQiYt1BGiIrW8ROnCtVOnz4jz/R4H7b/P+zauQXu40bj2WeflVEtca6Bg7RLlv7FJUuplKmgUchtohIhhgC3s7bFgf0RqFUzexlBKktEvQcxnUKMVjBko0a7p9elePnll3Dwi4xv2dJSUpBW0RgmBS6amYbklPtAJeUcpWCeRWLiFXTu0lP2gIkT3OA84BPZ02/5ipUIXplRh+Crg9F48cWim7/iOcUbkVH71O0qVSoj7rtYdTu7H87mZYkTyovsKyXkxVz/BQjdsk32srLt8KFaK+C5556TEXqUFcGrceL4KeX9M0hG8m/QYFe0aNkMI0cMlZH8KYrnIC6SxLe5P8Qfk5HCU4th9nGWPe0SpGKu/qOIERRiSdLsUz2aN2+qvC698Ia5mYwQFZ7udV9UxOoeY8e4yl7uxAiK5UGr9E71ePrpimilvB80aWohI0WjZYvmuX7GE/VgLJq2xvZtm1G/3tsySpQ3TFJQiWOSovwoC0mK8qY0Jyn85sxDWNgO2aOCGjVyOEYMHyx7efeoJIXw+muvqheErVq1kBHKDZMUuStIkkIQIyhEoiJib5SMaFWpUkVNoHW0t5URosIp7Ote9zlZJ69JCiEqar+aqPj1199kJIOx8fN45ZVaqFa1mowUzvETJx/5GY9JCioMTvcgIiKiIjd4UMaFpPDrb79j8NCR2LDxMxkhKjliKPxsPx94TB4vI1r//PMPPDyn49OFS2SEqPQ5e/ZHjBw1Dh5TpudIULz6am3MnT0T3xz+Etu2blITj0XRiIoTkxRERERU5Ea6DsWC+XPw3HNZv7Vb8GkgPJUP0qmpqTJCVHL6fdIbIetWwjzbFI+QDZsxZNgo/P77VRkhMnx/37kD/4BP0ecTF3z9zREZzTBi+BBER4bj44/tZYSodOB0DypxnO5RfnC6R+lTlqZ7iKJ5lDczfPzkVtFN9zh5/Bv122vxrd5M37k4dvyE3KNV5w1zdfpHs2ZNZIR0ON0jdwWd7pGdGEEhpn9ERR+QEa3nn38ePt5T8NFH7WWEKH9KarrHFuX9dnnQaqSkpMhIBjF9aeTIYTB7/TUZKXqP+4zH6R5UGExSUIljkqL8YJKi9ClLSYrTp77D008/LXuUm6SkP/Fhh49lr+iTFDpiBIW+qR6ekyfgk0+cZI8EJilyV1RJCh0xgkLfVI+hQ1yUC8ORskeUd8WdpPj2yFGsWLEKZ344KyMZxPK7o1yH4YMP3pOR4sMkBRUnTvcgIqKy79g8VK5WLUdrYNMJ9g6jEPhdzm+iHulKBFwb684zHvvuyTjlSiS8/Of6onLlrMvc+M/7FNOmz8T//vc/GSEqOS7O/bBm1XJ13n5mq9eEwHWkm+wRPXm//X4VU7xmYITr2BwJCjGtTtRb2Rq6oUQSFETFjUkKIiIqN6wXfItrV69q27lvEeTZCxYP9sHzo2bwOZwmj3q8+O3uCLlkC/9DF5VzzYFdgZeoLV86dbRTP0Q3a5p1iseeiEj12/EzZ3J+M0il1xdfHlRvN3+2Vb01VJaWLRG2ZSM6ZJviIb4RJzIEwSvXoGMnR3weGS0jGfr07omoyHC13gpRWcEkBRERlR+VjGFiLJuZBaw7OMN/mTeskYSAA3HIa5oi7UGS8t96sGhsqpwr68gAerQ6dd7AhpBV+KRv1ikeP/38Cz7pPwhh27iMbFkgppts2bJd3Q6YtxA9nfqr24bq+eefw6cL5qJz544yQmQYDhz4EstXrJK9DO+1bY3PNq2D15RJ6t80orKESQoiIirfKlWG+vEuLSNFkXxqFVxtGmVMC+nmhX1XxJ4k7PPsBI9QsR0G926d4Lo9UXSQGOEFx1Z15X3qounAVYjXTQNJ2g9PB+VY175ooO5vrh25kRKPYNf2Mqa0xt3hGaU9nxAf3An2rvMQOK17pmP6IvhMpnTKzTgEDmwO80znCDiUMX0l95/lyfL0mAC/Wd545plnZETLb/Y8+MycDZbMKr3EyInjJ07izp0U/HLxRyT9+QcuXEgw+BEVRIZg/37tCCSdK7ksKRoctASNGzeSUaKyhYUzqcSxcGb5UVoLZ75Zt466XV4d+S5ObpWhwpmiJoWNL6yXnkX0QHNtLC0FySmJ2O3zCVw3pWLEtlNY1NEYOLME1m29lB8+FMFjHFAf8Qjx7AbXLU6IvjEHre+nIGZRbTguGIatF2fAqppyn9jxaNJrD6wXhCLAxRLGN/fDv393BFRbjvMRzjC/ug296w3CHlMrePhPRmskobpNPRzt+R48MRlbg93QRXnZxW9yR5cxyrERN+BvY4Q4/2qw9gMsRyxHwJiuUO4B/z7dEVhxIb4/PEx9boE2GeewfT0NMf59leeWhkXHvsWIB4/+WayNSq5wZm5++ulndfWP7HOs32lQX13945136stI+VHaC2eKZIQYPSESFDpvvvkO7G07oHXrVjJSMH/8cQ0rV2W83xS2cGZ2XtN8sHdvlLpdqVIlnDj2tbpNlFeFLZy5desOzJ47T/ayEkuKiuWdK1SoICNPDgtnUnFikoJKHJMU5UdpTFJQVmUtSaGPeStnjPCcBOcO5jCBcpHv0xD2m7og/NhC2Ol+jEsbYN94FIyCziK8v7lMHoyVF/qJCOnWCK5YiO9Dh6G+nP2RdsgL1R2WwCPqLnzqyiTFiJ24vcAW4pC0w76o33EDHHXJEZVyLgflXBWX4/wuZySpj2OLoDM74SJzZ5kfu/UxPee4GYeQTRdQvaM9jEPbPPZnedJJCh2/2QEI27ZT9rTE53CRqCjKi9DSoKwkKa5d/w337t1RY2/WfQcvm76EF6pXV/sFlZaWhsTEX2WPSQoyPMWRpFCXFHUdCjOz12XkyWOSgooTp3sQEVG5kV448+JJbJ1oqUTMYT1mEtzUBIVwHUk/JQFJB+A/UKz8IdvoJTiv7N2XcEVP3YokJB5QbuJXwr1Xxn0c/SLUvXEXM6ZvWDespyYohOtXLyj3TMK+BX0zHkesNHJO2XkgAYnpD1QP5q/IzXTxSPwDSEkS56gPi/q6JIeihiVcxjmjy9v/FOBneXKmTfVQLzgzf0MovkbxmTlHTWBQ6SEK+FWtWgUvvVgTJiYvoPYr2tFLBw9EYnvY5kI1/7mz1HMRlSeGMHKiuG3fEa5O9ctP2/9F1qkx+sUhQEx3dNiAjL/GOkkI6y+mQnohJscfxDTE+bfPcb+k7X3Tp0+mt8btlb+vfeG5KR7J8jgqHCYpiIgUr7xSi01PK3N0hTNN66GLz1qE9ElFSP/28DyU8ekk9a7yH5tecJ84GR665rkQIVGRiO6mZ+pBWpr2Yr/j8IzjRfNZjmjlPh7v5fLNcZqoG2EFpzGZ7qO0ReuVx4lyQgPtUYWS75/lCRPfiIvVP8RUj8zECItP+g3CTz/9IiNk6I4eiUHVqlVR4wVTvPBCDSwNXCD3EFF+idGEHzv0wNJlwXjw4IGMlj07d+1B+O692Pt5lLqSyaOaOLb4pOHC+pFw8suY/pqdy2Lxt1q2ZZPh9E4Ktrq+hyY+sQb1BUCpJaZ7EJWkW7duaRo1bqn549o1GaGySvz/fOz4SdmjsmrZ8mD1/2td++uvG3JP0fDwnJ5+7lat28loTrNmB2R5HsoHOblHERegMapaVWO37rIMSDf2acbVqarsG6nZrT7tZE20m+hP0XyVqh6hdeOoZv3GPZqjF5PV7tG5mY85rVncRul3DtFkOXvCPk3Qtn2a078r27+HaZyyPf7tSHf1OXkczPxAyZqj60I0u49c1txWelkfR0sb66hZf1GjST04Jec5kvdpZnTuqHFe/U2efpbr15Oy/N6Cgteo8fyaM3d+lvPcv39f7sm///77TzPDxy/L+URr2qyNZveevfKosmt50CrNwEEjZK9gxP3FeQqqKJ6DeP8X/78VpbPnfszymtixM1zuKRpTps5IP3fzlu/LKFHeFfZ1v2XL9vTXoL72YYePNTt37ZZHPzniuTzqM97Dhw/VY85fSJCRR9u2fZd6vI/vHM1Htp01Fy9eknsy3Lt3TzNosKtm4OAR6rH7Dnwp9zzKUY2/8ncyx99o1XXN1n7Z/k4qfyMX92uoxOpozMTng2z3u76tT86/u6pkze4R4lx9NFvF330qFI6kICKi8quGLTwX9IIpNqD33P1IgzGs+3rDAkvg4rdfO2zzQRL2LfWCq2sgYm5UUu+WlQV6uzsAh0bBfU2CNpSSgJD5I+HuGYYLuXzpZWLjBJ/GQOBQX+yTi3EkHQiEx5hRWBSblD4t5FGM2irnaKWcY/EqxKnnSEFc0DwEHEpDg8bNC/CzGAYxtNlnxlRMmzpZRrT+9+ABpk33hX/ApzJCRFS2iKlSmb3++mtyS+v69STM8JkNl4HDERd3XEZLjqg5I2reCKdPn1Fvi9KM6VNg2aoFRo+dgF8zrWySkvI3XEe64amnKmDxwuKbAph0KBDBGIbwM1EIaCuDeWKMmmbiNgWp99UAFQKTFEREVK6ZOs5FYB9TIHgkfJSLe6NWk7E1dCwabOmOWmKuqUldOO4ygdv6FXBrpT91YNozCEcXOODCuOba+am1m8Mn3gr+mxfBSf3QooeRJTy2hMKtXhgca2vntZp324bq49YheIxlnpIUMLKAx3rlHA8CYa2eozasQ03gE7pWfa4F+VkMiVOvHvhs0zq8/dabMqJ1/z4/ARJR+SCWah49anhGIWjp5KnvMWTYKEyd5oPff78qo8WrR69P1KK4cce0RUGDglert0Vtlq+3urzqGLcJuHbtOm7evAXXUW6oUqUKglYEwsio+P5+mfYMxflNY2FXR1upKs9SYhEtSlE1tkKDHHWkKL+YpCAiorJPuVhPvXs3Y/nRLEzRZfVFZf9FddlPwdxhDqIv3sVtUWRTabfP7IR/z4yil5aed5XjtUt4ahnDYoTywebuDW1hzqs3kHhsHdzayIKWtXthq77HN3OAf5Ty2Enax7l24yzC/XqhflXt7pyPo4tFpq/2oTtH+nM9tRMeDubpz/VxP4uhEx9Ut27ZIHtEROXP8GGDER0ZDseuDjKSIWJvFOw7OWJF0CoxjV9Gi0dCws9ITrmJS5cT1CWGRX0M3aiKouY/xxdvvfkmRox0w9Bho1CjRg01QVGxYkV5xJO11bN7RkFqpTVt1gkBZyzh4TcclqXlD6wB4xKkVOK4BGn5UVqWIKXCKRVLkFKuDGUJ0scR7yc6Pbp3VZcmLatK+xKkOoVdilGfcz+eR+8+zrJn2EuQ/nBWLNVDReHdRg3lluEr7OtevP7E61Bn44bVaNrEQvaAEydPISh4DY4dOyEjGZ566ilUrlxZee0W3XtvZrdu3VaTEzp13qivvs8///xzMpKVON7Y+Pk8/S0WI+Tu3fsny+9NjBDp0aufcv+n8Pnenahuoh3d8O+//6J5y/exYMFc2H7UXo3lTqzu0R4+NstxPsIZWb8qEKt71IVLuG5JcRlWyX0pWe8nVvcwHxgBuyHK8eknM0LNd+qhfkNLWNRmhqIoMElBJY5JivKDSYryoSSTFOIDWBOLd9Xt7H777Xf8deOm7DFJkVfZkxS1atVU3ptNZS/vflM+TP711w3ZY5KiMJikyF1pSVI4DxyG+Pgf8PDhQxmhgvKaMgl9eveUPcNX3EkKnT0Rkep0i6tX/5CRDPXefhOdOtrjLeW2KImaELdv38DNW3+i0rNGeP31unjrrTfhPm60PCLDf//9h1Gj3THVazJefbW2jObu66+PIHRLWPrvLTHxCsaMnYAGDerj3j/31JoUwSsCUa1atXwmKRIR4tAIrqkL8f0Xw5B17Si5D8q+iOz7Hp2kcIu4kT76kooep3sQUbkn5jqy5d4MScWKT6OD8oFEX3vttVflUVQYb9ato/f3+7j2+mtZi7sRlXeGMiydyqYuDp3UKSCuehKRCT/9goWLl+LAgS9Rt84beP+9NkXSxN+H6tVfxBvmb6NWrdfwzDMVsXP7Z3qPFU1o0qSx3n3Z25tv6uYwAj//clGd5iGm+80L8MPSwE9RtUoVjBk7EWlp+a1JVBPmjZWb7+KRkPE9htbNM4g7pNya1VSOIkPCkRRU4jiSovwoLSMpRKb/8Nffyh5lNnGCG5wHfCJ7+nG6R+nG6R6GhyMpcleaRlKcO3eeRV6LAEdS6B9JkdnvV/9AsPJvVoyuyE5MlRCJDFHXoihkrkExoH8fWFu3k72sxEgKi6atsX3bZtSv97aM5m77jnD4zpqLbVs3qQUz32vbBjN9pmp3Ku7/+686kkP8XV+yeD5atbbK40gKIO3UPNi180WcKCYdPBxWpkZA8mmsnDQIPlHm8IjaBZ92soZUOo6keJKYpKASxyRF+cEkRenHJEXZxySF4WGSInelNUlhb/cRWltmvIYpdz6+c7IUgGSS4vFJCh1Rp0JMATlx8nsZyfD6a6+qyYqPP7aXkeJV0CTFCy+8gI8+/D9Mm+oh92S4d+8eXEeOUz8LfHvkaJ6TFELyoXkYOM4X+y7JgML0nV5w9/PG8A4ZxaYzMEnxJDFJQSWOSYryg0mK0q/MJCmOzUNlG1/ttmTeygrm1cxhN3oSnJUPKLrFxrQfQFIQdCbTChq5ePyxsmDXuEjc9rMyyBU1mKQwPIaSpDgc+02hVlZhkiJrkmJewGx1mx6tcRNLJikKmKTQCQ+PgCiuee36dRnJ0KZ1KzVZ0bRp/s6ZXwVNUlhZfaC+x+dGFNeMPfw1oqMP5CtJke5eCpIfiI1KMDFmksFQMUlBJY5JivKjNCYpXn75JXRzzLnEV3mSOeFQ1pIU1p6h8NAN6UxLQvzeDVi0Xjlfn1DErXaAKBeZfGwDNhy5D4uew2D9mFpfjz+WSYqiwiRF/hQ0SSGWFBzgPDR9ZQpRpC46chdMZFX9/GCSogBJiqRYBPr4InhTHBJlSP22N3BRxpLGeZWSgD0HkmHV0zI9CVtoD5IQs+U0zPvbZlsloegwSVH4JIUgiraKURUrV62TkazE+6hIVojPPcWhoEmK/ChQkoJKB5GkICpJt27d0jRq3FLzx7VrMkJllfj/+djxk7JnuEaOGqc+V9FsPuwoo+XT5cuJ6b8L0UI2bJZ7crdseXCW+/z11w25p2h4eE5PP3er1u1kNKdZswOyPA/lYkvuUcQFaIyqVtXYrbssAzqpmqNzbdR9Ttuuy1hROqrxV85tNDVGeSTDdP16UpbfW1DwGrknf+bMnZ/lPMrFmdxTNDKf22fmbBktm5YHrdIMHDRC9gpG3F+cJ79m+s5Rf8evmtXV1H7tDXW7R69+cm/+iPd/cf+idPbcj+mvA9F27AyXe4rGlKkz0s/dvOX7Mpp/A1yGqvfXnWvSZC+5J3epyvuUlfJ+YWY/RbM+9oLmenKy5nrCPk3QCO17lNX80/l4Hzmt8a+jvPd0DtFkf9cruOua3UOUc1adovmqGN/Q3rVolf57Ey10yza5p3Qo7Os+IiIyy89/6vvTck/BXLnyq8ZzineWc+pa0+ZtNavXrJdHFq2HDx+qj3H+QoKMPFpKSkqBGpVNXN2DiIjKMSNYjvOGm7K1JyIWScptUpQX7B1GIewKEL+su7LthX1ih05aHAIcOsFxQRx+zXSsKiUewQObw7xaNVRWWgPXjcg+Mzj51Cq42jRS96vHdFPOr7s/lPsr5+7tOgj2dcX+unDZpPs+laj4ffPNd6hQAbhx47q6zGByyk0kJPyEr2IO4+tvjuSrnfnhrHpOffsK2r4/Ha+es8xJi4V/H1/EdZiDPVvmwKVdPZgaG8P0bVuMCIpEjKcF4ny6ITDPX86nKW9mcrMIpSmnpdLl9ddfw9w5M7EqeGmOERn/+9//ELhkBTp36alOn3iSnn/++QI1KpuYpCAiovLNyAxNxQyf8As4L+ap3ktEzKFEpD4ELNpZ4fahJQhR+jrJBzbC5xBg3cEClTIdq663PvA9uF/pgsBTV3H7xln4V72APeq9pDNL0LXdeJxvNwffX7mL1CvfwqNGGBwbeiFG/fCfhpRDsdiz6RjMJ+1EdOhc9H6P0+KoBFUA/v33X9nR0mg0mOk7B9O9ffPV1q3bqN5f376CtuDgNeo5y5rkQ3sQkAS4uDjDIsesDiNYDnRDFyTBJ3Q/kpVIfHAn2DssQZw6t14rI5aEfZ5eCBHBQ/PhoiZStQlQV/8l8OxYVyZJ68LeL1Y9n5A5QauTJWkbPAj+R0Q0DO7dOuUjYUKGoE0bS3XqyAzvKTmmeCQmXsFkz2nq6hlnzmiTi0RPEpMURERUzlUG1NIVaUCmD/yqxg4Y0QHYs/eYnB+egtjoDUCHLrB9O1uFiTMRCD4AdBk6AF3eNoaRkTm6THGDi9wtzh+zKxBxpsPgOcYB9UXZjhoWcJniDWssQeD2TCMmbMbCbYQtrB16wa4OC3tRybG2/gDPPPMsnn++OipVMoKJcQ00qF8PMYf25bstXjRPPae+fQVtK4OXqucsaxLOrFL+awXLRrnUnajdCnY2yu3hBIgcQlpyrPL7uI7UTO9ZGTFTWE+ZDCcRVN5LAjfNQZfa2gRoiF8grvfchWvJd5G4yxmp/p1gt0yOTsmSdJUyJ237L4SbpQh2gc/6UDg3Vo+gUqZHd0dER4ZjyOCMv04633z7HT7pPwizZgfg5s2bMkpU8pikICKici4VEB/KxbrpOZjD2tEWiNiAGLFs2dX92LJJ+YjeswPqZzs86eJpxMMCTetmGvlQozGs0+uwXkfST0nKgQfgP1B84ynb6CU4r+zdl3BFpEm0GtcrtqJ0RI8yeaI7WrRohpdfqoXXXq2DF198EatWls3EgOFIwW11EYZ6qCmq9+pVGZVF/uKn67idhykXRsYmIv2qqARjY2MYVVQ7gONc+Ay0gInSN+0wGT7jgHjPMDmS6zGqKudUE7pG6jlNmD8ttURRY7exIxGxexvs7TrIaIZt23bCrqMj1q1X/uARPQFMUhARUfmWdgXfRyi3beujgZ4P3eYdneGCWAQfSEDioTDsgQMc2+aWQkiDkVHmk+hGaWil3lX+Y9ML7hMnw0PXPBciJCoS0d3qaw8ieoIqVqyI9WuD0aFDe7xhboavDkYVaGUPyg9jVFdzmwm4nmsdiVSkpig3jXXJh4KxaGiGjDSqERpYiCxqPBL/0EaofHnjDXPMC/BD0IpANG7cSEa10tLSsGjxUnTt1hv7D3wpo0Qlg0kKIiIq1xLDVyIQpnDqZqUuQZpDDSt0GaJ8jI9agoDt+2E6xBm2ZnJfJqZ1m8BCucj4LiHTVUbaBXwfLrdRHTXrKDeH0mDcygrW7WRraITEKymobGJkkEuUUvlUt652FAWVDPO6IlkQi/gLIhOhx80ziDuk3Davj3qFeKO4Xy3r+0zm6SJUfr3/Xht8tmkdpk31QI0aWZcQv3jxEiZO8sKoMeNx9tyPMkpUvJikICKiciP1XhKSU1KUloj4w/sR5tMd1kMjYNrHG54dchtnbQzrbpNhemgDQg6ZwrFDa+j9XrmxE9wdgT2eAdijTuVNQdxiXwSqOwXlPH29YYElcPHTFr+DKHC31AuuroGIuVFJPYqIyh9TG2eMUN6CgoPDcEHGMqQhbnUgQpR3DzdHK/3vP+lTRnSMlJPKzUwuJFxJL5Qpzpt4LkI5zgLmubz9XU/KVEVTkWWgGOm1Y6c2M/3FFyKrVLo49eqO6MhdGOjSX0YyHD78Dfr0dcEc/wVITs54FREVByYpiIjyJA4BdavBNSLbt1xXtsFFiXseysOE3qvb0LtaJwSeEQUakxCzeBTsW2mrrJu36g7P7QkZNQlyUB5fVGN32CALOGaWhLD+olK7XCFCfZxqsF+vPTLOX7vUZW4tT8+9jIjzbI9atWsrrRFadxwJ/2M14bo+Uvn/whn1q8qD9DBq1wXuokhcY2f0tsqlsJ0YjbHsIPwtDqC3mfjd1obT4fpwEsXuJKNWk7E1dCwabOmOWuL3b1IXjrtM4LZ+Bdxa8dM/UblVwxZzt3jD8tB4NLXxxZ6fUtS/B2lJ8Qjz7A4nvzhYTpwDTxvt+49pbVvlv0uw54D2b1Ly4ZXwz7LwSU2Yt1Vufk9CYor2XKr17vDX3ee7JfBZDFgO7YLWyvufsWl95V0sFmEH4rWPfWkbFi3KvOSrKWrWFbcpSPpDOSdHYWTx33//oUevfoiK2q+uiDN+oicGuAyVe0uPypUrY7z7GITv2qpO+8puy5Ztar2KDRs/kxGiosckBRFRXpyJQ3iSA6ybZ7pAvRkLn4GDEJbHteiT449iT2MrtH4biPFpC/ul12HtF4XEq2cRNsgYWwc2Rx+ZWCiUamaw85uDLnW1M5frdYtEtKh5kKWtg1s7sdcS1cvDdPNWk5F69262dhHfRy2HR08rmGdKUJj2DFX2RcJFTM1IZwG3I8p9jigXEY861tgSbrvO4vbVq7imtAvK+UMilPv5WaUPsTZ3mIPoi3fTj7l9Zif8e9aT+y3hIZ5bpuOJqHwQSczdx5T3ZpNt6N2sNqpXq4bqdd+DxyFTuK7/Frt9MkZRmHfzxiJHcwT3ra0mm2uNvgLrcVZyr2AKiw62MP3JF/a1uyHkJxnu0AQJrvI+H21E9WmhCBljqb7fGLUbgODRVjg/8T3tY3+0Aeb9nbX3k+q1Hau8S22AS+PamFKOEtx5sfmzMCQk/IRbt/7CxUvnkfL3bXz/fTz27f9CHlG6JF1PwrVrWYbnpDMzew3m5nrmPRIVkQoakeojKkG3b99GO2tbHNgfgVo1M1XBpzLnXYtWWLc2GC1bNJMRwzRqtDsOf/2tui3WDj/4RaS6nVni+k5osLcXzu9yhjnScGG7L9w9xaoMpkhKSoJbxA342zzqsjINMdNehAsicWFMCkbU7Ysk/28RPtpCXoyK0RB14RLujZi7k5UPgdmJkRTt4WOzHOcjxHPITHffsYi+MQfWj726TUOcfydY+yXCaWkUggfqLpC1a6V37tJT9oCJE9zgPOAT2dNv+YqVCF65VvaArw5G48UXs85pLQzPKd6IjNqnblepUhlx38Wq29n5zZmHsLAdsge8914buUWP8+2338kt5d/DyOEYMXyw7OXdXP8FCN2yTfaAk8e/USvIFxXxfqLTo3tXzPD2kr2yZ0Xwapw4fkp5/wySkfwbNNgVLVo2w8gRBfsmtyiew/ETp5TnMQI/xB+TkcI79+N59O6TceHsM8ML3bt1lb3C85rmg717o2RP+55TMBXw8OFD3L9/X+3Z232EeQGz1e08SUtBsnrXSjAxfsSb+j3luAeAkVjBQ4aySkNamhGMjOTfkHGRuO1jibR7yskrGsNE3wgy+dhGVTOtCpJN2j2xX3aKWOMmrZD56uTZZ59RC7oauvv3/8WDBw/UBIXOm3UbKM/9GfVnyKsHDx7i33//lT1g44bVaNrEQvaK36+//Y4VK1al/93NrFq1ahjpOhT9+/WRkdyJkSUWTVtj+7bNqF/vbRklyhsmKajEMUlRfpSdJIU2CRBiqUsqiKkfvsoHPW+4m8XCvKNv1iRF0n54Dl2CeBtvRI/TpRvEfdojcdFVBHWshOSrCTh93xzWb+tGZshEw5HJiD7nDeuU7OfIR5JC3jel/3IE9cy5CkVS+CBY9t8G84mRWb6ZE8pSkoIKhkmKJ49JityVZJJCXFiuDC7Y8qsB8xbi8uUrBU9SFLlMSQoDH6nVuImlOl1Cp98nvdG+vbXsGa7dez7HHqX9clFbXPLppyrijTfeVv6G9oW1tTp0MU+OHInD6jXrZa9kkxQrglYhKDjLvKF0fXr3hKvrUFTP42o/TFJQYXC6BxHR46ScxtFwC1i3yjQk/2Ik/PtbwlTfJz0jE9S3sYVdbSN1Xq8q83SRikYwMVPOl56gUFzah63hgMVAW7QW59R3DuH3BMQcjs3W4nA+c6mMBylIPBSLRLHcZXZXtsFjonIh2Wc5giflVoCNiIgqVHgKLZo3K1CrUqWKPAsV1uuvv6b3d2xobeL4sTAyqoQ3676Dl16siTp16qmJ9dGjRug9Prcmlv4taZ9/Hg37To56ExTvtW2trvzhNWVSnhMURIXFkRRU4jiSovwQ33yKrLuhE0Wurlz5Vd3WN5Ii7ZAXqis/RvSZObDOPrz12DxUtsk2kkKPrNNFsrmyH+4DuyMYkxG93RvWegchyG/BTOvBumHOfzfXz8XiQpIcSXFzG3rXG4SUpWcRPTDTo91TztFZOUfaWITvnQM7PY+TfSRF2zaWsLB4V/b0O378JE6c/F72nuxIisOx38geFVS3bl04kuIJ40iK3JXkSIpKlSrhxLGv1e38ch44DOfOnTegkRSlR/aRFOLiWHyLXxrcvXsPTn36K58pfkPz5s2wdvXyfE9VEa8/8TrUKc6RFPFnfsCKoNU4cuSojGR47bVX1akdH3eyl5H84UgKKgwmKajEMUlRfogPyaXBzz//oi5LKehLUsT514X11UW4ttQh58iDPCUpsk8XyZD20wa49xiF6FcnI3i9N+xyWwUzP9M99CYpEhE2tD1ctpjDI2KXcp5MozgyyZ6kqFu3jvpB5VESL19B4pWMZeqeVJKCniwmKYoOkxS5Y5Ki7CvNSQqhsK/7kkhS3L6drE7t2JrLFElX5X1DJCgKg0kKKgxO9yCiYiM+3JaG1rhxI/mM9YnH0YgkdGlnWfCpETmmi2glH/KFXbNRiLZciD2bHpWgKCxRKHMwXLYATktXpC9hlxeOXTtjaeCCRzY7uw/l0URERGTINm3ego6dHPUmKMSoiajPdxU6QUFUWExSEBE9yqXT2HfGFnbNC55BSDsZi2BTK1g2zEhRpB2bh64O84CJoYhZPAwWRTfwIIfE7SPlGvvrsDjTSh5EVDZ9ZNsZx0+cRFDQanRx7CWjZNDEqLxq1bK0BjadYO8wCoEHEpEsDxOStvdV9ndCyCUZeITHHnt1G3orj2VfFMtf59WVbXCpWw2eXMK0RMXGfo1evQdg3vxFuHvvnoxqiS9rglcEYu6cmY8dPUlUEpikICJ6hKST+xFjY4Wmr8hAXqTEIWTxEgRGaT/0xR8LAzq2RhNdPYub+zGljy/iOnojYKAVTB6kqNNNtE1+aMt2jgK7GgEfz21IUh+riXLezI8lW9bPKkRUik2c5IXr15Pw99/JuHfvDi5dSsTyFavkXjJ01p6hiI6KVFuQpzPszBKxqFsjNBkagSR5TCUzW/j7dYF5JRl4hPwcWyJuxsJn4CCE6X4YKnaXLieq7wujx07A+fMXZFRLFMIU02lEYcwnvWx39L4D+W77vzgo701lDZMURES5SkJMRAQs2lqiXn6GH9y9gn3TvOB55IqYaIGY1VmniyQdDkOw+IAW5QvrhrVRq3bm5osYkafIco5CuHpB+2FQ72PJNje2cI9BRAbh77//xv4DXyLl79v4868/cO36b3j48AG279gljyCDV7sxrNtZaVuHXnBbuhNh0yyRtKUv3LZrr+xNWjnDbdwwWNdWu4+Un2OLVxoubPeCfatOCLlSbHMbKZMHDx5gydIgdOnaS31fyK5/vz6IitxlMPU+RNHRyR7T8tWo7GLhTCpxLJxJhmbUaHcc/vpbdTt74cy0lBSkVTSGSfZVPfIsDckp94FKyjlKwTyL7IUzJ05wg/OAT2RPv+UrViJ45VrZY+HM8qokC2e+9OKLMDN7XfbKnj+uXcOdO3dQ7+38FZsTRRp/OHtOTU6IURRC7drmqFqlGpo1baL286qgzyEzcf+En35Wl1UsKvf++SfLt8FlpnCmLMJsnX1VJiEtFp4vdkKg4zokbuoFRHnBJTgFLkvnwGhpNwT/5AT/iGFIL614aRtcx21QrkKXw6fqKnnscjiJlS2vRMDT3UudQgKYwrq/FbBJ+Xeb6XETI7zg7heGfT+KpIgp6vf0QMgy5fzi72DSfngOXYKU2saI2RSBRNSDR9S38Gn3uD9wcQio64vbPt5wN4uFecfcC06zcGbhC2fu3r0Xy4NWqaOqsrNq9z5Gug7DO+/Ul5Hikd/Cmdt3hMN31lx1dIed8u9l8iR3uSerWbMD8OB/DxCxNxILFsyF7Uft5R4qS5ikoBLHJAUZmkclKcobJimooEoySWHR+F106FB2P5iK5QB//e139HbqISN5J/493rt3D5cTf1F6/6HOG/WVZo7u3fN3IV+Y56Dzm3J/UZxv0sRxMlJ44qJLFP7TKRdJCrE6U99GcImYjOhkbzQI7wvzgSkIOhOJrmdHoVbfDfD44i585Gj9+MXvofW0Jth6ZTlaH8o41uWVWPg07IQQm4UI8xkAC6N4rHTtC8+opPTHTY4ajya99sB6QSgCXCxhfHM//Pt3R0A1ubKUqGFRbxD2mFrBw38yWiMJ1W16wTI/b/mPWRWLSYqCJylOnvpeXVL02LETMpLhDeV9QBTEtLP9SEaKV0GTFKGfrVc/l9nbdcAUz4lyr9ZM3zn4+psjCFw0D737ujBJUZaJJAVRSbp165amUeOWmj+uXZMRoidr5Khx6mtSNJsPO8po+XT5cmL670K0kA2b5Z7cLVsenOU+f/11Q+4pvEuXEjX9BgxOP3er1u3kHjI0c+bOz/I6UC7O5J6ikfncPjNny2jZtDxolWbgoBGylz8/nD2nUS7y0n9XzVu+r/nx/AW5N+8K8xx0jh0/qT6HonT23I/pP5toO3aGyz1FY8rUGennFr+7ghrgMlS9v+5ckyZ7yT25iAvQGFWtqrFbd1kGMruu2dqvqrJ/iuarVKW3rY+y3VGz/qKyKzVGM6OOsm/WUe2hmtOaxW2qaszc9mluK73Mx96OdFe222pmHFFOohMfqLFMf9zLmvWOyrkcV2rOZzok9eAU9bnNiFU6v4dpnJRtown7NJkOyR/5s3oc1H+Gdy1apf/eRAvdsk3uKR0K+7qPiIjM8vOf+v603JO7P//8S31fzHw/XWvSrI1m1ap18sjCcRs3SdPSsl2e3hsePnyoPv75Cwky8mjbtu9SjxfO/HBW84HVR+rfFR3x87X/qJPmQsJP6t8Xcey+A1/KvY9yVOMvXrOdQ5RXeHZZ/21llao5Otcmx/20/6aqaiyX6vn/5TGvbco71qQgIiKD9MWXh9C330CcPn1GRojocRo1fAdbt2zA66+9qhbCO3rkKzSoX0/updIpFXio3JjqmVJhZAnr/qaA/x5tPaNj+7HojAVcnKxyLJt95cc9yn/N0OD1TOdpbAk7uSnqMCUeUG7iV8K9l1hZRNsc/SLUvXEXMwo5WzfkSlGGYn3IJth17IIdO3fjqaeeQo0aL6BK1Srqvueff15dUnTo0IFqvzDESkGHvorFrVs3ceLkKXzY4WO5p+i926ghli9bpBbHFKP0ZvrOVUdQiFi9t9+SRxWnNFxYr10ZLTfxniMRyI8nxYZJCiIiMjhBwWswfoIn7t69KyNaYvoJET2aSEqYmpqqywpWrFhRRqnUSruC70WeoG19NMiRGTCCdTc3WGAJ9hxKQkzUSiQ1toV949xSCNVhlG1XZXmLtDRtEeWOw+ExcXJG81murjbi8V519TAyDF8e/ArdevTFwkVL8e+//8MzzzyDkSOGIubQPsQdicGIYYORmpoKD8/p6hSpwjQ398nqSkFJSVdx9Y9E/HHtV2X7TzWu73jRNn+2VX2ekZH79O7P3o7GHVeP19ElKnbu2o2o6H0ll6C4GYfA/i3QdEysKMnyCPHwHL1E+S8VByYpqNTr0esTHDwUI3tEVJrdu/cPJkycghVBWZdMNDd7XZ2X27NHNxkhIiofEsNXIlC5WnLqZqX/mqmxFfo0BoKjfRG2IAl2A5y0RS6zMXuni/LfDbhwUdtXXbqA9E9QRiaopZwHVyrBXLfCiGg103AhKQ3Vqxprj6Mn6qeff8E498lwH++Bn5VtoUKFCmhi0RjDhw9W+8KoUcPV2Nlz59TPyYVp4jGFv+8kq7e6wrwiru94XRPijp3Quy97S7iQoB6f2a5dEahatSoqVnxG2RYjgYpf0qFABGMYws9EIaCtDOZgBX//sTA95YXhy5imKA5MUlCpd+fOXfXN2s19Ei5c+ElGiai0iY//QZ3ecSDbuucftv8/hH4Wku/q5kREpU3qvSQkp6QoLRHxh/cjzKc7rIdGwLSPNzw75Pa1rgW6uNoC6zcgBLawbWemdyqGiY0TfBoDPv5LEH9PCTxIRNhc34wkhXKe3u4OwKFRcF8jLxhTEhAyfyTcPcNw4YE2RE9GWlqaOmqie4++6kV9ZhqNBjY2VrKXQcSMjCojZN3KQrVP+vRSz2di8oJ6W7Xqc+qtiOs7XrT1a4PVY3xnTtO7P3tzdu6nHq8zc5aY4vEtVq1chuCgQETv+0Kd+lHcTHuG4vymsbCrk33CVFbGHb0RMs4U8Z7dEFCwGqn0CExSUJlx6FAsejr1w7z5i9TEBRGVHjt37UG/AYNx6dJlGdEaMXwIFi0MwHPPVZMRIqKyK86zPWrVrq20RmjdcST8j9WE6/pIxCx2Rv1HLIVt3tEZLmLD0Ql27+Qy1cPIEh5b1sHl90C0Nq2GyiaN4FPRDmJ8hY5pzyAcXeCAC+Oao3I15ZjazeETbwX/zYu0S5jSE7FjRzjsO3VT609k197GWh1tEBm1X0YyiJhY0rOw+n3SGy1bNMeLNWqi9ivmqFXzNbUv4sVBTVB8/W36FA8x9WPFsoUllqjIGyNYT1kHN9Mk+PSZh9yrV1BBMElBZY6Y12bfyRGfhYbJCBEZsoB5C+EzM+vSfGKp0QXz52DUyGEyQkRUuolvu3NtLSfhnzt3srVfcCpyGSb3aAezKhnHvtzjM2Xf53B+I9P9X+iMFeI+G3vCTBfTd+zrPbEi7hfc+v13XPv9L/y4Yhm2KPeLcjGT93kejYd/hh/v/KXs1x5zOW4txrZ+Xrv/lZ7Zji9Akz/r3P+rpHc/ZbU4cLl60X7jxg0Z0XrrrTexeOE8LF40D/0/6Y3z588jfPdeuReYv2Axzp49h472HWSkcNatDVITIpUrV0G9+m+r/eKQnqBYmrUGRaNMiQrxhaRBqGoFn9VjYZrkCyd/pimKEpMUVCalpKTAP+BTOPUZgJjYgq1xTkTF69q16xg6bHR6cS2dxu82QujmENh2+FBGiIhKH81//8ktqBdWjZtYGkxrZdUBH1hZ6d2nbVbK/scdUzyNiYqsTp06Lbe0jIwqYbz7GOzaEYr27a3VmKg/0aB+fczw8UPb99urTfxtHdC/r7qvqIiEiOAxabx6WxzSExT1chbJ1CYqFuUoqv1opjC1UW5S72sLw2aRitQU5cbGHDVzqzX7GEY22mkfSX59EXAo5yNQwTBJQWVK9iHhP/54AWPGTlBXCdAVFyKiJ08sJSbqTxyNyzqRs5ujAz7bvA51674hI0REpU+tmjXxHy+2qYj16O6IqMhwDHTpLyMZtoSGYHd4GEa6DlXbvqhwTJo4Tu4tPe7fv48RI8fi/9rb621j3CaoxTjzribMRUHY7+KRcFMbSXfzDOIOKbdmNZWjCirTtA8/bRKHCq+ChulKKmG3b99GO2tbHNgfof4RLyxb+y74449r6nbbNpZ44w3zXKd6uDj3g+uIIahSRbt+NJEwarQ7Dn/9rbr98ssv4emnnla3y6tr16/LLe2Sn84DPpE9/ZavWInglWtlD/jqYDRefLGG7OUk5tSK4l/ZTZ7kjv79+sgelTZinnDolm2yB5w8/g2effZZ2Su8dy1ayS3xQb0rZnh7yV7ZsyJ4NU4cP1Wo4dSDBruiRctm6pKEBVEUz+H4iVPK8xiBH+KLrqrcuR/Po3cfZ9kDfGZ4oXu3rrJXeF7TfLB3b5S6XalSJZw4VvDRmG3es8nnN76kj9eUSejTu6fsGb7Cvu63bt2B2XOzXuy2atUCo1yHoVmzJjLy5Ij34nVrg9GyRTMZ0e+///6DRdPW2L5tM+rXe1tGc7d9RziionPW1XiU3srrwvaj9rKXu7RT82DXzhdxrSZja/BwWJkaAcmnsXLSIPhEmcMjahd82mVfvSYJYf3rwiVlOc5HOMNcF93eF+YDUxB0JhIudWRQkXbIC/Udlij3AtwibsDfpoBDM0jFJAWVuOJOUqwMXqqOoAhSPmDpm+rxwgvV4ap8aOvt1ENGqLzLnKSgrIoySfHw4UN4z/BDxN5IGdGqWdNUrf7dprWljFBpxCRF0bh27RoGDnLF33fuwLFr5wJ/E8okRcEUZZLCd9ZcuUWFIWovlNckhampKUaPGoauXTqrfUNQXEmK4pZ8aB4GjvPFvksyoDB9pxfc/bwxvIO5nhVx8pekANIQM60h7BcnMUlRBJik0CsNcf6dYO0XB5fQqwhyyJxZS0P8gk5o7QN4RASjwfqmcAmXu/SyyngR34yAq1lfhIi1d68uhF2WhJ3+fwiPF4eAuu2RuCj78zRcJZGk0Pnii0NqsuLnXzIvCq4lKgWLURUffPCejFB5xSRF7ooqSZHw08/w9p6FH89fkBGt999rA9+Z0/HSSy/KCJVWTFIU3vffx2OAi0gqiAKCwFNPPYUli+fD2rqd9oB8YJKiYIoySUHlU1EmKapXN8GY0a7o2cNR7RuC0pqkSHcvBcnqcrqVYGLMRIKhYpIiV/EItHkPnsdsEXRmZ3qmLO3YPNjZ+KLm4pMIGWKGlFNxOK8byXczFgH9lTcVz1B4ZBoyVLOhFeorn9cTN3VHA5/TME1KQuvVZ7G1T+ZURAGTFGeWoHXbo3BPCIVTbRkzcCWZpNAJ2bBZTVb880+qjGSws/1ITVbUqcM58OWVSFI8zFTgjDK0ad2q0EmKyKh96giKf//9V0a0xPSrCePHyh6VdkxSFJ61jR1u3rqFX375Ue2//lpdGJuYIOrzXWo/P9zdPWDRpLHy7+zR/35zE7LhM8SfPoNFiwJkJP9On/4B7uMn46tD0TJSeAkJP2OEa8b7BpMUZGiKY7pHy5bNMWb0CDRtYiEjT06pT1JQqcAkxaNc2YbeDQdhT4flOL/LGeZK38VmEGJslmOfvvWqryrH1xuElKVnET0we5ohHoFt34Nn3cnwuDcPATcW4vvDw1Bf7i1okiJxfSc02NtL+/xkzNA9iSSFcOvWbTVRsTVsh4xkNXiQs5qsEB9KiCjvHpWkCFyyAmvWhqjbOuLbYTG9o4vDxzJCZQGTFIXXqrWV8rfqJq7+kaj2a79iDiOjyqhQoYLap5yYpCBDU9gkhe5zsj59+/TC6FEjchSKL0lMUlBJYJLiMRK3D4L1wG1oungneseNhMuhLth6bCG65Jxu/egkhTriwQvm6y8iuJIvavXdAI8v7sKnjdxfoCSF9j4hlt8ifLSFnrlUhulJJSl0fvjhnJqsEKsLZCeGnItERc8e3WSEiB5HX5Li6aefhveMWTnqwrz91pvw9Z2Ohu80kBEqK5ikKDyRpLhz528kXvlZ7YskRfXqLyBy7061nx/jJ06BhUUjOPcv2EiKDZs+Q3z8WSxcUPC6Cqfjf8CEiZ44+EXWOjSFIaaOjRyVUaeDSQoyNMWZpBC0U0BGPLHPqkxSUEngEqSPYd7TGwF9TLFvXHe4bDGHx+oZ+hMUj5SGmF2BiDcdBhcbU5i8ZwsXJRoQth/J2gMKJuU0joZbwLpVvVKToDAE777bECuWL8b8gNmo80bWdNBff92A7yx/9B8wBEeOHJVRIsqPy4mJ6vKi2RMUHe1tEfrZeiYoiHIh5p1XrPgM6tapD7PX30TlylUwbaqHuupQftuzzzyDqlWr6t2XlybuK86hb19em7iYEvTtK2gTxa+JypNmTbOu6HH7drL6WXXQEFe1jg1RWcQkxWOZo0t/ZzktwxLWbQtQnDItDvsWJMG0TxdYiwRHjQ5wmmgKrNmA/Ve0hxRE2slYBJtawbIhUxQFYWf3Efbs3oZxbqNyTPE4HX8Gw13HwnPKdFy58quMElFeiIJ9v/9+Vfa0xo5xRYD/LE6nInoEsZJHyxbNUcnISJ3mIba7OHSSe6m4ffddHI4eLboin0RFoXnzpuoyrM8995yMaB0/flIttCtGsd25w6VuqWxhkuJxbu7HlIHzcLuVJSywBC5+sUiTu/Iq+cA2BCq3TU3ScPRwLGIOxyHNRCy1F4FF0QnqMQURfywM6NgaTbLXxqB8EbUooiPD9VZOjozaj48demDpsiA8eKCWAiaifDAxMcaSwAUYOmSgjBDRo4jVNMTfJfHtaWFW1qD8EVOVho0Yo46oJDI0YgnWyM93olfPnFM8xGu3U+du2L49/wV2iQwVkxSPlIgwz5EIRi/4BIcicJolkhZ3gntEityfF4nYHbIBaNwLFhUTEH8qXm0JqA+nxkD8qv0o2ECteByNSEKXdpbQDqakwhC1KLynT8GmDWvUuhbZrVq9HvYdHbFr1x4ZIaLHadG8GUI3r8f/FWD5RCKikjJn7nz12+jMatY0xfJlC2WP6MmrbmKC6dM81eRl06ZZV/lQp4D4cQoIlR1MUjxC4voJcNkCOPl7w+VtU1iOmQOfVkBI30EIuSQPepxLsdhzALBwGA7PcWPhlt684d5XeYP5yQvh38lj8+PSaew7Ywu75qYyQEWhSZPGauFN/7m+MDN7XUa1riclYcbM2XAZOAxxccdllIj06e3UA+vXBeO1116VESIiwyJGTYjRE1u2bpcRrdaWLbF541pYtmopI0SGQ0wD2xiy+pFTQOZwCgiVckxS5CLt2Dy4jNkPi3ErsLinLK5Y1RJuC7xhif1wnbgB2gXCHi0+YhX2wRYuDjlX37DoOAx2ym2WApqpKUhKSUFytpaWbaZB0sn9iLGxQtNXZCCf5n+6ON+tPOnU0Q6fR+xQqydXrFhRRrVOnjqNIcNGqRXAs8+7JyKohf6mek2WPSIiw3NMuZj7pP8gtQ5FZiLBunrVcpiaviwjRIZJnQKyV/8UkC2cAkKlHJMU+qTsh08fX8S1mgx/d9ss0ymMmk1GyFJb4MAouK55XD2JOOxbGg90sIV1HT3FLevYobcog5C5gOZ3XrCuXRu1sjWfw5krYSQhJiICFm0tUa+ANTP/TPoLoaHbsGnTFvU2t/bZZ2Hq7caNofKe5cuwoYPUehXdHB1kJINYosy+kyOWr1gFruRLBLz++msIWb8STr26ywgRkeHZply4DR7iimvXrsuIlqfHBCZYqVQRK+g8bgqIWDK0KBtRSWCSQh9jW/hfvIvUQ97a1TiyMR+4E6l37yJ6SD0ZkWr3wlYRH6hb1tISHuI8u4ahvt5kgimcNin774bCyUy3rb/522Q+gSm6LLuKfWMsC7X0qFi/XlQMbt6sKY4e+QrfnzySpS361B8PHz5E+/b/J+9RPol5qTN9piFk3Uq9Qz+DV66BXceu2L3ncxkhKn9s/s9KrT8h3k+IiAzVvPmLMEu5cMvsxRdrIDhoCT7p6yQjRKVL1ikg1WQ0q/btrbF86UKsWxtc6EZU3JikKKWMjI1hUgSreqxYtggP/3uIUaPH4/79+zIKfPPtdxjjNlFdNvCDD9rKaPkmEjprVi/HbL8ZePXV2jKq9ccf1zDd21ctWHT8xCkZJSo/AhfPh7Hx87JHRGRYbt++jZGjxmHT5i0yoiUK/Ir6E++1bS0jREVDLMddkOY2bpI8Q/78888/6uig3GpRGCvXDm+9/SZatmhWJI2oODFJUc5Vrlw5W6LiXxyNO44xYyfAdcRQLhuoh0PnTuoUkJGuQ1GhQgUZ1RIFiwYNHoHpM2bhj2zDSInKqlEjh8stIiLDc+r7eHzSfzC+/uaIjGj16N5VLfBbu3YBC3wR5cJV+YzYomWzAjVRxD2/RA0KMQV5fcgmGcnQtm1rdZTFzBlTUatmTRklMmxMUpCaqFguExUDXIaoCYqBLv3Vi3DKnUjiiGRFF4ePZSTD7t17Yd+xK4JXrpURIiIqqOzLQxLl1a7wCDi7DMVvv/0uI1oTJ7hhhreX7BEVHTHKYKTyGbGgTXwGz6uvYg7Dqc8AdTWPW7duy6hWnTfMMc/fDyuDluSoV0Fk6CpoWPGvXJo0eSoOf/0t4r6LkREg7vgJDB8+Bi+//BL27tmBSpWeVeN79kZi2rSZRfZNw3///acORxO1Hp5++mkZLbjr15PU2hlC2zaW6hKiJe2Y8rsLClqDEydzTvV48cUX0bGjLSxbNpcRIqKyZ9uOXYiN/Ub2gJPHv1FrHxXGjRs3MHWaL458d1RGtMQ34GX5AnNF8GqcOH4KohheQYlh4+JbWXHRUxBF8RzE9EcxuvCH+GMyUnjnfjyP3n2cZQ/wmeGF7t26yl5WCxctzfHNsomxMfz8ZsCq3fsyQmRYxNSkdta2sgd1VLOYfp3ZhQsJ6hdhBw9lfI7XEV8+jhg+GIMGDpCRJ0N83rdo2hrbt21G/XpvyyhR3jBJUU5lT1L8qPzRHzFyHGw7tMcvFy+pyYPlSxepiQpdkmLhp1kLTRXU3bv34D1jllqNWFQlLqxZfgHqG7rwpJIUwrlz59UPdYcPZ3xI13n6qadQpWoVGFUqTKlTIiLDdffePaSmpspe4ZMU4gJ32vSZas2fzMTqMWKZ27KMSYrc5SVJcefOHUxVPreIb5kza2LRGH6zvGFm9rqMEBmeRyUpkpNT1ILtn4WGqf3sxLKkIkHxwgsvyMiTwyQFFQaTFOVU5iTFTz/9AtdRbmp1frH01j//pGLUGHdtomLZIuzb/4WapCiqDxm6N98D+yOKZG6crX2X9A+xTyJJIT4MrQhajc2fbZWRrMQypmLqTFGMGiEiMlRiSkbolm2yV7gkxfYd4fCdNVf2MnhMHo9+n/SWvbKLSYrcPS5JceaHs2py6/Jl3druWl27fIxZvt6yR2S4cktSbNjwmZqgEAnh7KytPsCIEUPQ8J0GMvLkMUlBhcGaFOXcpcuJGOM2Ae0+eC99bfAqVSqroyjEFIpRo93x4MEDNU45iQ/kHTt105ugsLP7CBF7tmPM6BFMUBAR5dH8BYtzJChq1HgBQcsXl4sEBRVcxN4o9Os/OEeCYpzbKCYoqFRz7N4bCxYG5khQiIv/xQvnYemSTw0qQUFUWOU+SZEcMQqVq1VD5XH7kSxjGeIQIPY5bECijGRIQlh/ZV81L8SkAWnH5sFaHDsmIsd50k5p91n7xOp5DOVM2/sq5+mEkEuZ+9XQelm8NpCZ8jhin+ch5UELSQyiGTt2AsTaytnn9qYnKh48xKZNoTJKOmKJ1r79BqrfHCanpMiolvgjIdahnh8wG2+Ym8koERE9yu3kZHUU38Zsf3OaN2uqLhH5/vtcDptyt2RpEKZO81E/2+hUq1oVixfNw+BBGSMviEqb1WvW45df5EWCJJb8FiPLxCiF9u2tZZSo7CjnSYpE7A7ZAFNTU2DNBuzPmnjPF6NWkxHobwms74uBmzKlNO7FIXCiL+IcFyJ4khXyU4Eh3nMkAs/ITjEQIyVEMcwePbridPyZHO2nn3/G8OGDUb16dXkP+vXX3+A5xRuuI93www/nZFTrueeqqX8wtm7ZgHYsyEVElGffn45XvwE/fPhbGdHq3q0LQtavxKuv1pYRopzGT/BUL+Qya9TwHWzetBbtbXgBR2WL84BPsC9qN0eWUZlWvpMUZyIQfABo3d8ZdojAougEuaNgLEavRYgjsM91ghwVkYiwcX3hc6UXgqYPQP2q6mH5EA/P0UuU/xaPf//9F0e+i0P/AUNybUOHjcKJEzlXrCiPlq9YhU6duyMyap+MZBCFiqI+D+cfDCKifArfvRcDnIeqSeDMJowfC58ZU2WPSL/PPgvDF18ekj2tjzvZqQmKunXryAhR6dfho/bYtXOLunxutWrVZJSobCrXSYr4Q2GIhwMch7pBLEkcPzEMcXJfwZjDyW8dnEz3w3XiKuzb4guPLcCIRYvg8nZ+V3Wwgr//WJie8sJwfdM+Cmn0qGH4PGJ7vlp5tffzKNh3clSLFWX3/nttELp5PbymTIKJibGMEhFRXixavExd7SkzMYx5aeACuDj3kxGi3P38y0W5pTV61HDMnePLWlBUZjR+txFWLF+MTxfMxVtv1pVRorKt/CYp0mIRvjQepkOcYVvbGFb2Yr7iPGyNylpfIN/MesHHvxdMD4yH49BtMJ+4DjMcCnbxatzRGyHjTBHv2Q0BRVcYW2Vm9v/s3QlcVNXbB/BfaolhgWmNRiVJuSuuYFqAmKyJogliKosbuLCYAiLqqKjghuACboi74IJigFoS2OuCO+ZGpWJlSqFAYmDaf9577pxhHZRlQAaeb5/T3PvcO3cGHGbufeac57SucKtvUlN/xETXqfCbJcXvv9/lUbkPPngfgYvnI2xtCLp06cSjhBBCyuNRbi48vGYgYvNWHpHT79pFrD9hYmLEI4SUj0bjxli2dBEmThjLI4Sot7ffbiFO179jewQ+o5o8pJ6pt0mK/JNHEJQhwQgbeZ0IbTM7+EiA8O1HlBTJrBhdK0c48Zl2+hgZVqgORXEaMJkZAQ9JBqQOS6rYy4OUF5v6KWDREowaM1YcDlPSJLcJiDu0D9ZWFjxCCCGkvH68clWsP5GYmMwjcoNtrMUu+rpUcJhUEJvhYPu2CJibfc4jhKi38eOcxLoTdsOH8ggh9Us9TVLk4MieUOG2G5rlpyDpeDKSzuSjGUtSxobg8DVxp0rKweFZLgjKMYRhVyBk/HwklZ7OuPw0jSHd4A5JxnzYB1KaorqxqvKW1kMRFbWXRwoN+sISCXExcHMdxyOEEEIq4tA3CWKC4tat2zwi5+E+CQEL5vI1QsrPwnygmNxq1+5jHiFE/blPnYTXXnuNrxFS/9TPJMWtA4jcBug76EPjp1SkXmAtDdCzgz5SsS5RUQNCAompcJP3BKUn/MxDHhsZYqqLlkXKTaTv8YLrRsDefy2iVs6BYUYoLH1LT0taERqm8mEfGQEjEaSCqUdJaUlJP8DOfrQ4P//jEnNQs+7H68JCsWjhPKowTwghlbRqdTj8Zs3F//73Px4BNDVfR/CKIIwb68QjhJSf68SxWLpkIRo3bswjhKg/mlWPkHqapEg/EYvD0IfteG94eLoXNqkHHLoCN3wP8qEVLaErrONUKtIeiIFCDy4jhRWTbt1S2Iu7tQVeztGAw2JIndtBYuCOIH8l05JWWJFhHwFLeIyoAvs27+sZMzHV42tcv1F8dpdmzbQxy89b/Iamb98+PEoIIaQi8vLyxffZ9RsieESuU8cO2L41Ap8P6M8jhJRPo0aNxLpQkydN5BFCCCF1ST1MUqTiYNgRwMwRg7uWnHFDH4PdzIVbRQFNDfQZOgeG2IIRw+fj4E8ZyM7JQfadZAS5eSFS2OIzXF7TAo9TEDRuMg53dUd4oB10WUy4v6HnCkgNik5LWkmKYR98lVTN06fPEBK6FoNt7XH06DEeLTRm9EhxaMcI+y95hBBCSEWx5C+r71PyfZbV9GEJ4I8+oikiScWx4qpUF4oQQuqu+pekOHMEwZcBCzNj6CqZFVTX1B6DhVtFAU2NHt44EDsHFplLMKKHHlrp6KBVJ2uEpRsjcP8m+BqxmTtycHjxSEjPGMInwAcWzdmROA19+GxcAwscgZvnetzg4cpQDPsgVRNzIBZW1rbYuCmSRwqZGH+G6N3bMGO6JzQ1NXmUEEJIRR1LTBLrT/z00888Ijd50gTxW3D2bTghFaXb+gN06tSBrxFCCKmL6l+SwsAb6bm5iHFtByU5CkDHDruF7Xk7Fb0hAG1Tb8RcFmIZd3HvLmuZSD8TAQ8zXX4MLVgE3ERe7jFITZVMN9rGETHsmLET0J6HipIM3yncNw5O/AulkuuFNGAiPk4uAk2VPnvyHOfPX4TLODfMmRuA+xkZPCrXps2H4tRlq0KXo0OHdjxKCCGksrx9/PHvv//yNaBx49fE+gGuE6n4MKk8+gKBEELqvvpZOLOyNLWgrcUaJQjUyZ9//QXpvEVwcpmIs2fP86gc+ybPY+okHIyJoqnLCCGkmrRr+7E4RSSbiYGQqrh67Tp++vkXvkZI3cOmwiekvqMkBanTIjZvFYd27Nt/gEcK2Q4ZJNadGDeOqsoTQkh1YQng7dsj0L5dWx4hpGpGODjiYGwcXyOk7mGzIf333398jZD6h5IUpE767rvvYTvMAcErV+PJk8LuxkzPnt2xaeNazJ83Gy1bUo0PQgipLhMnjBWH0mnQFJFEhZ4+fQr/2fMQGLScRwipW9hsSFZfDKVkHKm3KElB6hwPzxnw+toHv/xyk0fk3n67BebO8UNkxDoY9O7Fo4QQQlStYcOGWLxoPqZMpikiSfXZsTMKjk4TcOtWVaZ5J6R2+uOPe2IybvzEKbh06TKPElI/UJKC1CknT6Ug8ftkvlbIxXmMOLTjy2FDeIQQQkh10NP7UJxe9AtrmiKSVL8LFy9hxEhHxMUf5hFC6pbTp89gtOM4BCwMwsOHVK+C1A+UpCB12ucD+mP/vl3w8pyCxtTdmBBCqtUAUxOxQGbnTh15hJDql5eXB9+Zc7BseQiPEFL3REXvg9UXtti6bSePEFJ3UZKC1Elt236MlcFLELwiCB9/pMejhBBCqkuTJk3E992mNEUkeUm2bN2BseMn4dfffucRQuqWx4//wdJlK2E3YjSSkn/gUULqHkpSkDqlSRMNfD3NHfv27BC/0SOEEFIzPD0m8yVCao6VlTlfkjtz5pw4+8eRo9/xCCHqbfw4Z7z1VjO+Jnf9ehqmun+N6d5+uH2barKQuoeSFKTOGP7lUMR/EwMnx1E8QgghhJC6zKB3T/HLiaIePXqE6TP8sDJkDY8Qot7iv9mPMaNH8rVCR458B5shdnzK0v/xKCHqj5IURO198P572BK5AXNm+6JFi+Y8SgghhJD6gH05sWnDWrwvnA8UtSliCya6ueOPe/d5hBD1pKmpiRnTPRG1eyuMjT/j0ULyKUttacpSUmdQkoKovQ3r16BHd32+RgghhJD6xsCgF6J2bYGZ2QAekTt58rQ4/ONYYhKPEKK+OnZoj9Why7F0yUJ8+KEuj8rRlKWkLqEkBSGEEEIIUXtvvPEGli9dDA/34vVRsrKy4OnljdVr1/EIIerNwnwgYg9EY+oUVzRs2JBH5YpNWSq89glRR5SkIIQQQgghdca4sY4IDwtFq1YteURu3bpNmDx1Gv76K5NHCFFvE8a7iPUqBttY80ghccpSa5qylKinV2QCvkxIjWDfaBiZmOPokVi0aln8BIIQQgip79aGb8C5sxcQsSmMRyrOZawbevXugUmu43mkYlTxHM6euyA8D1f8mHqGR6ru6rXr4vANBelcPwwbOoSvFcfON6TzFyExMZlH5N5++21I58yEkdGnPEKI6ihe96rCZvdwn+rG18rGelCsCVuvdKhH69bvY8jgQdDX78ojqtO7Vw++VNz//vc/6Hfvgz3R29G+XVseJaR8KElRT82cNZcvld/ihfP4UtVQkoIQQggpGyUpylaRJIVC+LpNWKNkqMeUyRMxccJYvkaIalT1da84T1Yob5KCuXEjDWvCNiAp6TiPVK+ITeGUpCDVgoZ71FPPnj7Dt98mIj7+iHj73XffK22Kbd98k8DvSQghhBCiPlwnjsXqVSvw9tsteERu9Zp1Yq2KrKxsHiFEPf3zTx6WLQ/BcPvRShMU48Y54eL5k2LiRFWNkOpESYp6jBXa+aSPATp36oDjSUdxNuV4sbZl83poab2Jzp078nsQQgghhKgfY6NPxdk/jIz68Ygcm/WD9cxgs4AQoo6i9+wXpx/dsnUHjxQyGzgAB2Oi4DF1Eho1asSjhNR+lKSo51aFLkdD4U1rqsfXePbsGY8Cly9fgdtkD5j2N8aQIYN4lBBCCCFEPbFaFGtWBZca4vHHvXuY6OaOTRFbeISQ2i8l5SzGOI3HgoBAPHjwkEfl2PCK0JBlWL5sMdq0+ZBHCVEfdSRJkYGo0U3RpGnZzXJzOnAnGk56wrpRKFL5PQvcjRW36Y7fghvHlyg9RrHmn4x8ftey8edlswXCoyt35vmPJT5vpCCo1DY9dLeyhqVbKA7fefEzKcurr76KVSHL8fTfp5jq/rUYO3/hIlwnecDK0hyz/LzFGCGEEEJIXcBqUawMXoJmzbR5RG5lyBpMn+GHR49yeYSQ2ufevfuYPWc+xk2YjIsXi1/RNGnSBNO/9hDrQPQ3MeJRQtRPHetJ4Yjg+DgkKGk+/ZoBre2wctUESC74YbC0aJIhHVFSL0RJ3BEe6Ij2nQYXu2+wM9unxLGHthfvqSomvjuLPaaiic9bwdQbuwu2RSDY1RxaJ/xg2+krRN7i+1TC6683warQZcj5+2+MGj0WbpM88OWwwfDxnsb3IIQQQgipOwaYmmD3rq3o27cPj8gdOfodRox0xJmz53iEkNpjw8bN4tCOAwe/4ZFCw4cPRUJcDBzHfMUjhKivOjK7B+uxoAenGHckZC6CiQYPK5WPlIABMAm8D4/Yqwg0BVICrWESAPjE7ofUVIvvVyglsKmwvTzHLok/r5w1uB7rCF0eLYb1pDCdD5NVV5DgrHQPAetJMUB4bkqOczkUffr6IdX/GPJ8DXnwxWZ4z8LxH04g5VQSjwAJCUfhM3M2dHU/QOyBPTwKHDwUB39/1czsQQghFeHmNr7SsxMQoq5odo+yVWZ2jxdhPSiUDfVg30jTBR+pqOqY3aNdu4+xNmw9bt0q3Tfb0LA3JrtNQPfu+jxSM7roG9DsHqTa1MMkheCxcNE/SLjov+OO3WHaCB46H80CT2DXFH0ou2utTlLcjcaIdi446BmHrABjpc9fmZJJiqSkH8S6FGNGj8TJUyn4+CM9LAkKELcpkhTsjUgVWDdKD8/pWLp0EZq/9RaPEkJIcWfPnRdvKUlB6htKUpStOpIUDOtBMW/+omJDPRo3boxzZ37ga4SUj6qTFCYmRkpn7GDT+E+aNAFDBn/BIzWLkhSkWrEkhfq7L9s9SlOmoeklO/B7tiwru2TL4/sVyksJkhlrsvtoylqPi5Rdz+UblDi9mO03U/Z96cO8AH9egyJlt3mkFOF5sOdgvOp06edd8JxOywLZc1VynNtbHcT720ff55HymT7DT2bQx1hcPvrtMVnnrr1l6zdEiOu//X5X9oXNl7KZs+aK6wdivxG3q8rDhw/F4/1x7x6PEEJIaWvC1ouNkPqGve6dXVz5WuWw+1fl70cVz+HM2fMqPX9grly9Jh5T0fbui+Fbqu7Or7/JXMa5FRy7Z+9P+RZCyq+qr/tdu/YUvAbLaiGha2RPnz7l93g52PNgP2tZ/vvvP3Gf6zfSeISQ8qtjNSnWY0Q7HbTSKdnmI6lEbUkNAzs42ciXO/Q1RntN+fLLkuI7oPTzXlyiOGfiUuE5W8NS0Uw7o4NbLCQOayC1kvCdKibh8FFM+9oX07ymit3JmPd03sWqkGW4cOES5krlvSkIIYQQQiqD9epQBx+8/x4kknf4GiG1j5mZfEpRd5pSlNRxdSxJwYZk5CIvt2QrPUwjdfVYuMUawtAASJr6dZUKT6oCG+5R6nmXHL7R1QAmpuawUDTnRUhIPI9LYY6VSrKwKUe9ffzhM2ManJ1G86icrm5rcXrSEydPIzY2jkcJIYQQQsrHa5qP2OX77Pnz6N6zL5YuW8m3EEIqon17PqXoUppSlNQPdSxJUT75Z5bAwzcFhtPnIGpzBOwlR+DmpGRa0tqmhTGcPN3hoWijbWBi0A7alUykshMH2yE2aPF2cxw+8m2pdvPmLTiMGC4mLAghhBBCyov1nsjJycHdu+n45ZdryMv7B1u37eRbCSHl1aBBAwz8fECdn1JU2bXIi9qRb4/xez8Pq+3XFE1stqB02VFWP1DY1tSvsNd9Thqi/EfCpCuLN0UH08kIOZXDNwr32DNSjBdrXQfA0mYkfLelIpvvR6qm/iUpHidD6jAfKQZzEDTDGJLWdpAG2imZlrTuYz0pYg7EikU0y2qs4nV09D5+D0IIIYSQ8mGJiSf/5ovLOX8/FG/ZMNKqtHXrN4nHIaS+YF8qrlodhi9svkRc/GEerXtY0Vpl1yLPa6qXjkjnnnA62RJOG6/g3s3zCDS6Ad+BPeCbmM/3kXNaGYeEeN5We8O+Yw52u/VDt3p2PVld6liSIh85D3KQnaOkPWbb0xHl6YKQDBsEh7vDkA+R0B2+GCEOEmQsc4G0xAtQJfJykKHkOeU/49tfgsWL5uHi+ZMVaoQQQggh5dWo0at8CdDQeF28fe2116rUXi1yTELqkzt3foXvzDmY6OaOS6mXebTu6WPYGz17dsfpk98rvR6xHTKo+mY0uRAN6VHAyXMunAx0oS1ph8HSRZBKMhCyORYZfDdGq40hTIyMeTOHU+BOhIyGcD25Dgfv8p1IpdWTwplCW5yMyxu/htMuwH6V8MJrW7TagwSDV0bAg70AbfxwWExoqNApP5goeU7S4y8vz8aK7VS0EUIIIYSUxyefGODVV1+Fzru6Ymuq+SZ69+qJWX7eVWouLmP4IxBSN2lqyhN6ZTl58jRGjxmH+QsC8ddfmTxac7bv2C226rJ61Qq88sorYk0bdlv0WmSudCHOnj0PBwc7vreKdZyIlAvH4NqzMQ8U8TgPeXxROS20FEfI5yDviRggVVBHkhQS2G8rUXSyZAswRtdx+4Tlm4h0ble8ICWjaYzAm2zfFbAoUYTS0JfFSxfffLHnP69AU+GABt7icoKzLr+PMobwYfeJdcTz9iKEEEIIqQ3YjGFsJoImTV4X2xfWlojYFMa3EkLKa+uWDbCyMudrhfbs3Q9La1tsitjCI9VPOm8hgpasEBvj6TVDvFWlxo0bY1XIcuTl5WOqx3QeBbx9/XH5xysIWxuCj/Ta8KiKaWhB0tYQ+jqFF335iQcRlgEMHm78/OuwnGQkxAq3XY3R4V15iFRevSycSQghhBBCqtcI++Hi7Y+pZ8RhpvXF338/oqaiRuSCFi9AeFgo9PW78IjckydPxPpxg23txUKS1W3f/oPIznmAX25ew737v4n/RtUxxXDTpppYFboMDx9mwcNzBqZ97Yuff76JsDUra7Sgf/7lUDiMDwUc1kBqUzxFsdt3GCxtrAta9x7WCLpsCJ+AiTCs8BfbpKRXZAK+TCogJbApTAL4ShnYtKLP7yFRP2VlZcHIxBxHj8SiVcuWPEoIIcWtDd8g3k5yHS/eElJfsNf+ubMXqtTzgF049Ordo9J/P6p4DmfPXRCeh6uYpFCVq9euY4SDI18DpHP9MGzoEL5WdX7+Uhw6FC8us290z535QVyuiN6GRsjPp9J5VTVn9kwM/9KWr6mPqr7u2euPvQ4VWE+K7t30+RoQvWc/wsI3IjOz9FCPZtraeO99HbzRtCmPqNbJUyligkJBr00HaGlpoXOnDjxSiF1injp9Bvpdu7xwCAtzP+NP3Lp1u9jvjQ1nsRkyHA1eaYB9+3ahpeQdMf7vv/+iZ+9PsWzZYpgPHCDGysZm9xgAqekaXC/VK53N7qEHpxh3JGQW7zWfnTgfDuOXIN1sDWICHdFeSx5ns3voOsfCYpywf8HBNNCyYzu071S8FwapPOpJUUnyISDPb5SgIIQQQgghhKiK3fChSIiPUVqfJSs7Gz/+eBWPHz9G586dYGDQS6WNefMNbfGWYTUj3nzzDaX7ssZ07txR6baS7cMSPSTYLIRzpAF4T0cHb73VDCtXruJbKkoCialwk/dEyawbeWx+A8BUFy0Lcgv5uLHZBd1sliBv9E4kLCtMUBTVzmYCPDzdeZsAezNjSlCoECUpCCGEEEIIIURNaDRuDC+PKTgQEwUL8895tFDq5SticcuGDRtirIujylrLlhK88867YjHcNh+2E5MUPjO8lO7r4ixPogwZMkjp9pKtX79PxP0Z1hPJbZKHmGzZuGEt1qxZiR+vXIP/7Pl8j4poCd2uws2pVKQ9kEcKPLiMlEThtnVLYS+59D2TYDE1GSbLTuCA1Aa6JWoVkppBwz1IjaPhHoSQ8qDhHqS+ouEeZVO34R6DvrDE22+/LS6TF4vYvJUv0XAPhZLDPZT54YcT4hCQH69c5ZFCH3+sBzfhfWDg56w7QdX88stNLFq8DFeuXhPrRlhamGHGdE++tbj//e9/0O/eB3uit6N9u7Y8WrY9e2Mwf8FinPy/REz1+BoNGzQU61K8/rp8qAgbCuI22RN9PzHETN/pFRjuAeRfWAILo/lIMfDG7vCJMJZoANmXsG6GC6TxuvCJ3w+pkRZwORQmff2Q4xyBXVJztCw2uWFjaGtpFAz38IjNlE+CQKoFJSlIjaMkBSGkPChJQeorSlKUTR2TFIsW1p+ioVVx7doN2DsUDmGgJIVceZIUCrt37xGTFQ+Fc+2STIw/E5MVHTu255HqVdkkhVjDghXODFmG1157jW+VS/vpZ7GHRX8TI7E2R3mTFEx24hI4e87H4Vs8IJB0tINXwBxMNNMVZ35MXaaHPtIM+caSeE2LJpSkqBE03IMQQgghhJCXJSMZIW4D0KFpUzThTdfABSGn2GD5CspJw8E9KcjmqyrxLANJ244gna+S2mvEiOGIj4+Bk+NXPFIoKfkHMQkUGLQcOTmVeG3VEG1tLYStCSmVoGDatf1YnJ6UDQOpKG1Tb8RczkVexl3cu8taJtLPRMCDJygY/ek3ldYZFBsvuikZvlNcpwRF9aojSQpWtbXwjV1Z803MR/6ZJTBh61NjS715s25AbJuJNBnfBZa+f8nGjvdi/Hn5Jysp1CLHugwpO76iiY8jPG9xXcnzxt1ojBC2WW6u2EfHDO9Z6KJvUKFGCCGEEEJURzw31bNG8B1D+MSfR7pw8ZR+YR98e96B70AdmCxLLfMcsrRUBPXoiRHbbqgwSZGBg256sHRLRnr5nwh5iTRffx1fT/PA/r07lQ7x2LEzCpbWtti2fReP1C7Jx/8P+t0NlV6LsDZipCPi4o/wvStBUwvaWqxRkqE2q1s9KUy9sTs+DglKmkM7QMPAGyGBhsDmkXDeVuSi/nEKQqbPR4rtCoTPMEavoUXvuwJObB/nFUVi8uOpktPKoo9ZxuMIz3tmrOoyn6wbIyt489VIe8yd46e09erZQ6wiTAghhBBCVCg/GYEOwvmn2SIc3LUITkbtIBEuniRtzeEaFockX32kSIcipNyjBvJZTkHlaDZV9fTxxx9hxfJAcdhExw7Fh3g8epSLJUuDMdxuFBITk3n05WLXJMquRZ7XSN1Vx4Z7tIa+kTFMlDTFlDD6UzYh0hY47PY1IsUxSemI8hwJ6R07hM0eg/aagHbbovfVl8+nq9UOfZQcT1W02hgWecyyHydypB8OlqxMW0ms4q+r6zjs3BUNieQdfDlsSLH2449X8Pvdu3j7HSr4RAghhBCiStmJBxGUATg5OUK/1BSHGjB09sBgZEC684jYMyI13BqWNqFIeSbfgymMZeCwrx8iWTBxKZxsJiPqTirCbazhFhgKXys93ktXD5YByQU9LTLi/YT7s315QFA0lhrugsCTLBoFr6HWFUiYkNrCxMQIUbu3wtd7GrTefJNH5W6k/QQPrxnw9PJGmrD8MpW8DilPK289CqJ+6mFNCl3YB0TAXnIEbtPX4/Cu+fDZBbgGB8Opbe3u9uMauAgW2IIRUiXDPiqJFdRiiYrJU7zww/+Jn0Iiv1lSnDl7XhwT1qoVFbckhBBC6ouDh+Kwbt0mnD13Xux2zYaIEtVLu7xe+L8xDDuXylDI6RjAgvXWP54GlkPIz05GUuJ95BVJUhTGJDCZ6Q17FjR1R8i2RRisk4+cxGREBoTg/vD9uJedi/T9jsgLtIbF6lTx/nicLtw/HXn/yVdFRWL6o1fAw5AFB0O6eScc2VSORC199dUIsV7F6FEOPFLoWGISvrQbhaXLViI3N5dHCXl56laSIi8HGTk5yC7VSvRTa20HaaAdJEenwXZ8NHSnR2CuTRkfEDXkibLnXeJpN+44AcGrzMVhH657VNefr2SiwtvHH1euXEXY2hB89FEbvhchhBBC6oNFi5bi6dN/8eeffwgXLI9w+Mi3+O7Y93wrUY0cZN1nt+3QUiIGlGiCJuz09Kf7yCrHkAsNLW3hHkxjaGlpQUMxfaLtYkid9aEtrEvMvCH1BFJ9o5BUnmEcmsIxG7IFDfGY2jSMX629+cYb8J7hhT1R22Da35hHC23dtlOsV8F6WRPyMtWRKUhZgcoBKJyspwQ+ZYw4bEPhcTKkn1kj6Ce8YAoZfmzPOGQFGBdUfy2fF99XMdeuMiarriDBWXjWrHCm6Xz+PO8jcmhnuB21QWTaTtgjGiPauSBHsW85sW9Fjv9wAimnknhEPt1YWNgGvPtuK0RsDIOOzrtinH2j4u8/DxGbwsX1qmLj4Dw8p2Pp0kVo/tZbPEoIqW169+rBl14OmoKU1FcvcwrSm7duY4itPe7d/w2PHz8SYx/pdcQHH7wPC/OB4np53bt3H4e+iceE8S48UnV/ZWYiJqbwvEmdpyBNCWwKE+H8MOxyHJyUfieUjkgb4Zwvcw6SEr2BlWx/dyRkLoIJP6mUH0MR4+edBee98vUY/2NI8jUsOA+Vn3vmiI9reb5wWfEcim53apOBqNF6cIop/rjVgaYglavKFKQVdezY9+KUpWxqz5I6dewAN9dxMDb+jEcqpqJTkBJSVN1KUihLRiiVg8OePWB7SBeGkhSkZAhvvJeFN15NvrkYfuxqTlI8N1FSLEkh7HNrC2y7TsZh2wikBwIeKkpSTHX/Wpx//EHmA6xeHYzPPu0rxhVJCkJI/VLZEyxVoSQFqa9eZpLi3r17MLMYjL/+uo+cvx+KsY/0OuCdd95Bl86dxPXyysrOxoULlzDA1IRHqu7vR49w9ux5vqbeSQrFOaBr9F0EWynp0fsgFm6tRyLSeSfurbJBWrGEhHyXlHIkKXYHnsDFKYUXuem7RqLDeEpSVBd1SlIobN26E2HrNiA3t/TUnmYDB4jJio8+0uOR8qEkBakSlqRQf6dlgZqaMo1BkbLbPPI8t6OdZa0128gcI27I7qcEyYzZfacclGXx7cXxY89KkuXxSPm9+L73ox1kGsI+Pseec3ThOZbc53bEUDFmvzhIZi/cWkSU5ycvNH2Gn8ygj7G4/O+//8omurnLRn7lLHvw4KFsTdh6WdduBrLjP5wQtx+I/UbWuWtvcVkVHj58KB7vj3v3eIQQUpucOXtepX/zlcXei1gjpL5hr3tnF1e+Vjns/pX9++nZu5+sfcdusrdb6sje1/1IfD+ISzjCt5ZfdbyXXLl6TTymou3dF8O3qMbMWXMLjt2z96c8WjG9DD4rOMZMvzk8qkTmYZlnG3b+uk52nYcK5clOLzYVzvX6Cud/2WLk9GJhX82Zsu8LTgezZQkeRWOXZIHi8RTnw/w8tNg5bp7s+1lCrI1wn1zFeaiVbPNNvllwaVXfIrH7sgPjSj5u9bh69XrB74216D37+Rb1UtXXfWxsXLHfw4WLl/iW6pWVlSVbtHhpsccu2pavCJE9/ucfvveL/ffff+L9rt9I4xFCyq/+Fc68tQVeztGAAxuf1w4SA3cE+SuZlrSW03VejjAz4GDAfBzkscrIy8uD2yQP8ZbVoHjrrWbity4TJ47DlKnTihXTJIQQQkjdt2TJIrz2WmNI3nkXWm82w6AvrGBlIZx0ENVqbo7Fu+bAMHEaupsK53M/5bBJRJGfkYoo32GwD0iB4fRF8DWV97KQ6JgL/w/FwaPy6eizj69D4EZxkWsJXdYJ9vcMpOfIjyXa7IVAxX1OhUK6EjAcPxh9NAEtSXtIkIyoo6nyx74VjeBgXlRTJEFL8Qv0HGT8IRyzSNFOohzrlcycP39RvFUX2tramOk7Hbt3RsLY6FMeLbQ5cjusrGwRFbWXRwipPvWkcKbQ2Dvv4xQEjZuMw13dER5ox4eFaMDQcwWkBkWnJVWx3BzkKHlOBR8elaILp2VrYMHXKkMmk8F1koe4HL42BG+++Ya4zMgTFWPFRMVPP/3Co4QQQgip60xNjMRzgHdbtURSYgIWLSyz6hepIg0Dbxw4EwEP7WiM6KGDZk2bopleP/gkSuC2+QQOSI2hzffVHToHwba6CB+pI04n2mrKHZh4Fi1+KIG+mTkkP82Hpc5QRCpmlDTrhjQ3fp+BW9HMfycip8prVGgYjUH4FGNcn95P/tgDt0B3tKP8fly7vu4wxBY4ddXBzMSqnb3WdbP852H58hDxHNvJZaJYhFbddOrUEatXrcDypYvxkV7xYikPHj5EwKIl+GqUC/6Pvsgk1ahuJSlO+cFERwetlDSHXT/i8OKRkJ4xhE+ADyya8/swGvrw2cgu+I/AzXM9bvCwymwcCd1Sz2kkdlc1IdLGUT7bRyU9efIETTQ0xB4UTZrI60EXpUhUXLpUNKNOCCGEkPpARzhfad686AkTqQ7aHe0QuP8K8jLv4t5d1jKRfiYCPsP1CxIUIk19uG4T9suQ75d1eQ2kAXHIyy2sFdF+9D6k52YiK/MYXBVlADq6Y1dapvzYGVcQ42sD3YI6bLqwCIxDOn/srLQ4SKVrhGMW1qjQNlqEpNxcZGXkItisGotSqLkTJ04h9lAcHj3Kwc1b1/HPP7nYFbUHN9IU2SL10r59W7Epw34mdf25iHqoI4UzSUWxwplJyT+gYUNxXqkXevz4scqK6GVlZcHIxBxHj8SiVcuWPEoIqS2qWvRLVahwJqmvXmbhTAVVPIfqeC9hXelHOBR+01+dhTMbNGgAff0u4nJFpKb+KBYNZJ5XOLP6vbiAe21SsnDm+++/hxYt1CdJdvv2HWRnZ+OXm9fEdfb6afNhe/FnYD9LeT18mIU7d37lazVTOLOoZ8/+Q/i6DVi3PoJHivty2BC4Ce8r77zzNo8oR4UzSVVQkqKeYkmKZ88qNrAweEUQX6oaSlIQUrtRkoKQl4uSFGWrySRFo0aNMP1r+bDYili+IgRPn8rPsShJUX4lkxRsyttu3brytdrvyNHvcPFiKm7dviFeoLPXj27rtujXtw8++6wf3+vFrly5hm/iEvhazSYp9sfEIjx8I+7dv88jhT7pYyAmJ7p3L99zoSQFqQpKUlSKYjomvlqG504rWo9RkoKQ2o2SFIS8XJSkKFtNJimqewpSUpy6T0F659ffMMjmSzx79hR5eY/x5pvNxNoUx5OOiEUpy+tlTEGacuYcwtnfvJJinx+8/x7c3MbjC2tLHikfSlKQqqh/s3uohAT223KRl/v8RgkKQgghhBBC6r7WH7yPzZvC0bTpG0LTgra2FqKjtlUoQVHTfr/7B2bNnodx4yeVSlCwIeFTJk9E3Df7K5ygIKSqKElBCCGEEEIIIVXUs2d3rFkdLC4nf3+k1vYgYD081oZtgKXVEMTGxvFoIdshg5AQF4OJE8byCCE1i5IUhBBCCCGE1LQzS8RpQYu2DqbWsLSZjJCj6cjmuzEZe0YK263LNVX+C/e9G40RwmNZbk7ngeqTcTwUblY9oct+Pr2esPWPxo3HfCN5KQ7GxsHS2hZhfEhlUQa9e2FzRDjmz5uNVq1oSDZ5eShJQQghhBBCyEti4rsTCfFxYgvzdYRF63QED+2MbuNjkcH3adzaHIEBg6HbmAeeoyL7Vqf8RD8YWoXgvukiHL55F9d3TYTWLhd0H70F1Z8eISWdO38BY8dPgv/sebh79w8eldPReRcBC+Zg08a16NWzB48S8vJQkoIQQgghhJCXRacrTIyM5c3MDh6r9iHK3xAZu0bCY488TaFt4AgPzwkw0RFXn6si+1afDBzZFYoMUw9Ip5ijvUQLugYTEBRoAxydjKiXW5e5Xrl37z7mzA2As4srzpw5x6OF2IwdbGjHYJsveOTlYIU2K9NI3URJCkIIIYSQOuivvx7wJaJeNGDoOQds8tODsclib4qMeD9xGEjUnRwcnD5AWF6PVHFf7lY03Gys4bYnvci+fNudWPgO7cyHlOjBMuAwcvgmhfRYP9ga6BXs091ZOL5iWEbGEfiyY7uNRAdxe09Ij8tnLymbBObLruD0dHO0LlVHXoI8PvsJqV7r1keIQztiDsTySCGbQdZicmKS23i88sorPPry7Nt/UJwNpCLt22Pf83uTuoaSFIQQQgghdcjx4ydw/sIF7N27H/1NLXHixCm+hagNjdbobiPcxtzA9WfC7eN0JCWmI+8/LRgbtReWpyGmyD9ramwIIhN1YWGqW2RfYUN+MqSmI7G7uTuS0jKRdWcnLB4kI0l+N1F2/DSYjIyClstOpGfmIittLQbfmYY+DnxYxrMcpCcmI/JoDuw3xyFmsw8sO714BjsNLV3oG7VD4dwW6UjYJVwsd3WEZU+aAa86fROXAOtBw7B6TTj++4+9EAqx4p4bN6zFwoC5eO+9l9rdRilNTU1x6t6gxQuUNkuLgTAbOIDvTeoqSlIQQgghhNQR//zzD6Z6fI0n//6LzAcZ+POvP+E6iX0nT9RLE6Ahu80HWJKiCG0zO/hIgKBjKTySiqToVEjG2cC4OQ9x2YkHEZShDyeXMTDU0YBGc0N4+HtAn29niYMDG9cjw8wHvk6GkGgAGjrm8PV3BxInI/I4342xdYfvcGNYDLeDYYnHebF0HJ4+Fm5HDeET4AFDTR4mKnXxYiomuE7FTL+5+PXX33hUrmVLCeZJ/REZsQ6GBr14tPaZO2cmDn2TgAcPH8LKyrxYu3f/PhIOfwszM0pS1HWvyNgcNITUoKysLBiZmOPokVi0avnyKwefPXdBaOf5GiHkjz/u4eDBb+DmNp5HXo5zZy+It716UxEvUr+w1z77O7QZbM0j5fdN3GH8JlycZGVlitMMNmrUCG++2QzDhg6BufnnfK8XO/RNPH5K+xlff135BEfaTz9j+fIQrF+3mkeq7s6dX7Fw0RK+Bkjn+ok/m6r4+Utx6FC8uNy4cWOcO/ODuFwRvQ2NkM+HM7BvhBctnCcul8Jm9zCdD5NVV5DgrMuDCumIGtkZTineSLg6Bx0OjYSucw7CLsfBqU0+kqSdYLnMHgmZi2ByeQl0TQ/C6dtjkH6iIc7uodi3+3499JEaIjJtJ+wLvjRPgbTpAKSIj5shLgdJ2sGkU5Fzstw7SDqTLn9uZmcwop0LcpQ+z3J4nIbI6cPgdrQ1fMIiIDWT8A3FXbt2A/YOY/gaMGf2TAz/0pavqQ92Xuky1hU/plau8AZ7/bHXocLWLRvQvVthWkmZP//8S5ytY+++AzxS3ITxLmLtiUaNxMxXpbAEyHfHvsf162no0KEdjI0+hcFzkh2sXgQbkrEnenu5pmLdszcG8xcsFn9vCYePwtvHH94zvDB6lIO4fVPEFqwMWYOVwUvw2ad90bP3p1i2bDHMX9irIgVBwmtcaroG12MdUfwVnIGo0XpwinGX/y2xDj45aYhaOg9hsbFIuQXoGjjCdeEieHyiJb+H+PcVC/3AEzg9pcS/C/+b9ojNRKAp9RaqCkpSkBpXG5MU7MOkd6+ePEJI/fbo0SPcSPvppf9NsIs05t13W4m3hNQXd//4Q/g7zC3XiX1JLDHw999/Iy+PFxR45RU00XgdGhqNxYvu8srPfyJ2E9fUfJ1HKu7Zs//w+PFjaGm9ySNVx55Tbm7hHJZ1NkmRnwzfFtYIsY1A+jY74QquaJJC2H45FH36+uGT6JsYfKYvLI86IunbOWIPhdJJCgvsvrMGgwt6P8gv2pLY4zrckT+O8wokDG/HtxfRshtMNI9UPknxIBnS4dYIumOH4D3BcO0hv9BThpIUchVNUmzcFImw8I3i3wZrb7zxhhhnn+XNmzcXpxT9ULe1GKsKl7Fu4pd6//vff2jQoKE4I8jheOVJEaYqSQqmaKLi33//LUhQDDA1EderJ0mRjsihneGWPQFhge4Y0voJksMmYcSydHjEXhUTD4okBaCPwJMn4NFVfiQRJSlUhyUpCKlJDx8+lHXu2lv2x717PPJynTl7Xnw+hBC52vI3sSZsvdgIqW/Y697ZxZWvVczFS5fEv1+9tp1kTbW0ZB+16yyuP3qUy/con6o8B4XqeC+5cvWaeExF27svhm9RjZmz5hYcW7gI4tGK6WXwWcExZvrN4VElUoJkGpqaMouI2zxQ6PZOB2FbG5nj/vvi+v1otm4l23xTXBVckq38RFOmMWWSzFU4xpCwG7I8vqXovllxXuJjBKbwjczNSJlFwePy4wyKlBV7FmmHZWHRh2WXfheWf4+S2ZfxPJ8r97QssL9w7P7zZAfSFc+ubFevXi/4vbEWvWc/36Jeqvq6j42NK/Z7uHDxEt9SXHzCEdmgwcML9uvazVB2Vnhshbi4BFkX/d4yVzd3WcqZc1VqAYuWiI/RUud98fXEbtk6iyvbn7VTp8+I++zdd0Dp9pJtydJgcf+i2M/IYqx9d+x7HpXJnjx5IsYOH/2OR55HeB0Kz7nUa1x0X7Z7lLBNc6bse/YSPR8kay3s63owW75ZJNy/jbDPqChhb8XfF7uP0D4LEf6CiuB/0z7HXvx6J89HNSkIIYQQQuqIbvr6GGo7WOw9odu6LTQaN4HrxHFo2pSKANRWeY8zkJ2TI7R0pB4/gijpMJiMj4XEYQ58yxgawb7FHexmDmzegkiYw9yoNZR9b6ttag9pV0AaGCqfreNZOqIWzy9SOFMfI7xsxPoTXhvT5KGcNEQunQQv3yjcKFEPo/xycHjWSEjPmEO6cAyMtZ/wn1He8it9XHL58hW4TfIQexncvi2WNhVn5/jC2hK9ehUOj7SyskDPnj1w8lQKPDynV6nFxBwUj5md/bDYLYsr2581r2ne4j5Llq5Qur1ki4reJ+5flKJHJVN0udp0nIiUC8fg2lNJr7PHecjji4AxAgPdIbngh4mri82zQ1SEkhSEEEIIIXXIPOksdOrUEf36fYLYA9GYPGmCfAOplVJ8B6CVjo7QOqOP1SQEnmkJt81xSFrpiPbPyS3pWjnCiS3Y2sOiYxldyzUM4bMrAk6/h6CPpCmaaHeGtJEFBvPNjGR4GE4vs8ENz57yKUh1ekKaKlyEbQ+GfWVHCWQkY/dGNnnqEUgHduY/X2F78RSmpKQHDx4iYGEQvhrtgv8rMWOPTCZD584d+VohNsyiYcMGOHXi+yo1T48p4vE0NIoP/2JxZfuzduKHY+I+WyI3KN1esvl4TxP3Vyhag2JJ0EIsWRqMbdt38a3VREMLkraG0Ncp/HvKTzyIMOGlPHi4cbGhIlpWcxDpKUGq71AEVW5kD3kOSlIQQgghhNQxrzdpgq5dO+PDDytYQ4DUHANv5OXmlmg3cTF+DXzYBVGRBIVk+E5hG69HodDcBmHsPtvsil08ldq3tR3CztxE1t27uHc3E9fD1mC3cL/C+hJa0Hfdieu5mcJ2+T7pZyIKCgVCx67E/uUgsUFkwc9UutF4/YrZHLkNltZDlPY2sLQwQ8OGDfHXn3/xSKG//sqEhkbVf9ejvhoBieQdvPeeLnTe1YVemw547bXXMPBzU76HahVNULAaFGza0aU1lagoIv9yKBzGhwIOayC1Kfn614DJTOHvRJIBqcMSKObaIapBhTNJjauthTMrW+CIkLqmtvxNrA3fIN5Ocn25s4wQUtPYa5/N8BGxKYxHKo4VuWMz41T270cVz6E63kuuXruOEQ6OfE09Cme++abqCofWdTt2RvElKpyp8JFeG/xy8xZfK9S1S2e4uY7Dp5/2hec0bxw7loRZft4YYf+luD1oyQps37Ebzk6jMc1rqhirKutBw8QZdtp3aIeAeXPQvn3ZBTErWzjT02NysQRFUYcPf4sZPrPEn2dF8Krqmd2Dy06cD4fxS5ButgYxgY5oz3N2RQvTskRgfqIf2tuEAv7HkG6aTIUzVYSSFKTGUZKCkNqNkhSEvFyUpCibuiUpSOVRkkK55s3fEpMT9nbyZATDEgJ2I8YgLe0nsRfVf//7D0+e/CsO+QpfG8L3Uo0u+gbC+0I4ehepf6FMZZMUjLIEhQJLVOzYuRuXUn8sZ5IiHZE2neGWtwIXv52A9jwqx7dB2Bar2JaPG5snwWJqNHSn70TkDJtivZpKJinY/kn+nWC5Ung/8neENGAJJSlUgIZ7EEIIIYQQQkgtx3pFJMTFFEtQMA0aNMDe6O2YMd0LHTt1QNeuXRAQMFflCYqawIaRzPSbC4M+xkrbHGkAbqT9zPcuj5bQZdOEnkpF2gN5pMCDy0hJFG5btxT2kkvfwxIUyTBZdgIHpMUTFMoVGfYRsITHSFVRkoIQQgghhBBCaoHHj//hS4XMBg5AzL5d4jCHJk2a8GhpY0Y7YPOmcERsDMPgQdY8qj6srMzx+ef90b+/0XObqamxuG/5aKDP0DkwxBaMGD4fB3/is+ncSUaQmxcihS2sBow22/VyKJyco9HMeTF8h+sCRWakyc55Tu8oTWNIN7ijrLl4SMXRcA9S42i4ByG1Gw33IOTlouEeZVOH4R6sm31t1svgU6wLX4WePbrzSO3VuPFrfEl9VPV1v3v3XixcLP9GvlPHDnBzGw9jo0/F9dqguoZ7VLfsxCVw9pyPw0XKe0g62sErYA4mmumKU/imLtNDHymblUYJXtOiSanhHgqKYR8ZNNxDBagnBSGEEEIIISrCLqxrc2NeffVVpdtqW6vvNJpoPLfnBCk/bVNvxFzORV4Gm8GmyCw2PEHB6E+/qXQ2GrHxoptKZ9oRacAkQH5/SlBUHSUpCCGEEEIIIaSWOX/+IsaOcxPrMGRk/MmjpEo0taCtxRolEmozSlIQQgghhNQiSUnHcSPtJyxavJRHCCH1hbl56dkqYmJiYWlti00RW3iEkLqNkhSEEEIIIbUEqyVx/Xoa/vwzA7t278EIhzF8CyGkPnv69ClWhqyB7dAR+PY7NiUFIXUXFc4kNY4KZxJSu1HhTEJeju07diNoyQpk5zxAZmYGNDXfED4n34ftkEEVLpy3es166H3UBpbmn/NIxSQc+Q43f7mFKZMn8EjF/XzzFtasWYeVK4J4pOp+/f0uVqwI5Wu1s3BmbVfewoekcqr6Gao4T1aQSN5ROtTDtL8xJk2agHZtP+aRmqGuhTOJeqEkBalxlKQgpHajJAUhL4ciSfHLzWs8Aui1aQ8tLS001XzhZP3FZD54KBYefKNpUx6pmEe5ueIsFS2av8UjFffk33/xQHge77ZS3Wf9v0+fIjPzAV+jJEVlUJKieqk6STF+nLN4wV/WUA8nx1GYPGkCNDRqpsYCJSlITaAkBalxlKQgpHajJAUhL4ciSfHnn3/g70fZYk+Kd1t9AO8ZXhj11Qi+V/nQFKQVx7rTz56zAHHxh8V1SlKQyqiOJIX7VDf8cvMW1q5dr3SoR4sWzTHZbQK+/NKWR6oPJSlITaCaFIQQQgghtQBLRLRpo4t33nkXOu/qikM93nqrWYUTFKTi0tJ+xlejXQoSFITUNh/ptcGK5YEICV6KtiWGeLDeRfMWLIaT8wScOXuORwlRX5SkIIQQQgipJQ7GROPDD3WhqdkUvXv1RFIiXTRXt4SEo/hqtLNYsLSoMaMd+BIhtYepqTH27dmBaV7upYZ4nL9wCWPHTcKcuQtwPyODRwlRP5SkIIQQQgipRSwsBqJnj+5VGmpBymf1mnXw9vUX628oNGrUCIsXzYP71Ek8Qkjt4+w0CvFx+/HlsNLDnWIOHIKV9VBs3ERTlhL1REkKQgghhBBSrzx+/BjTvvbFuvWbeESOdaPfsT0CX1hb8gghtdfbLVpg7hw/REasg0Hvnjwqx2qshISugUEfI3HaUlanRhWNkJpAhTNJjaPCmYTUblQ4k5CXSxVFK9nFBBXOVO7HH69i9pz5uHnrNo/IsR4sC+bNgYZGYx6pmxSFD+ujmigWWl2FM8tjf0ws1oatVzplaY8e+hhiMwjvvf8ej1QNFc4k1YmSFKTGUZKCkNqNkhSEvFyUpChbVZMUBw5+IyYoSmJTOLpOHMfX6jaWpKiPampGE8Xr3s2tcn97+Xl52By5na+VP0mRk/O3mKDYuSuaR4qb5DYBbq419xqnJAWpCkpSkBpHSQpCajdKUhDyclGSomxVSVKsCF4lXPxt42tyr7/+OhbMnw2zgQN4hNRFNTntKnvdh4XJP78q49mzp7h46TJfK1+SYsfOKHF60r8fPeKRQmzo0qRJE/D+ezo8UjMoSUGqgmpSEEIIIYSQOot9OTJl6rRSCYrOnTuK9ScoQUFUiSVCWHKvsi1k5VJ+pBf74f9OwuErJwQGLS+VoOjSpTPCw0LFIrA1naAgpKooSUEIIYQQQuqkc+cv4qtRLkg+/n88IjfYxho7tkXgI702PEKI+vj119/gM3M2Jk32xJUr13hUTkvrTfj5TsfO7RHo17cPjxKiXihJQQghhBBC6pzoPfvh7DIRv/1+l0fkvDynIGDBXDRoQKfBRP2wuhPWg4YhPv4IjxT6aqQ9EuJi4OBgxyOEqCd6dyaEEEIIIXUK6/6+ICCQr8lpa2thVehyuDiP4RFC1Mc3cQmwsrZFWPhGHin02ad9sWtnJHx9vsYbb7zBo4SoL0pSEEIIIYSQOuF+RgYmTJwiFhIsqkePbtixfTNMjD/jEULUh6ubB2b6zS3VK+iDD95H0OIFWLtmJTp36sijhKg/SlIQQgghhBC1d/JUilh/4tTp4rOJDP/SFls2r8cH77/HI4Sojw0bN+PEyVN8rRCbUjTu0D5YWZnzCCF1ByUpCCGEEEKIWtu+Yzcmuk7Fn3/+xSNyPt7TMGf2TL5GiPpjU4rGx+2Hm+s4HiGk7qEkBSGEEEIIUVvzFyxG0JIVfE3unXfexrrwVRj11QgeIUS9denSCeFrQ/iUotQriNRtlKQghBBCCCFqKfZQPPbsjeFrcn36GGDH9gj0/cSQRwhRX2xK0ZnilKKb0a/fJzxKSN1GSQpCCCGEEKKWLly4xJfk2BSMG9atRkuJhEcIUV/s9Rz/TQxG0pSipJ6hJAUhhBBCCFF7s/19xSkYCVF34pSiO+RTir75Jk0pSuofSlIQQgghhBC19d57OtgcEQ674UN5hBD1Jk4p2pmmFCX1FyUpCCGEEEKIWjIy+lSsP9GrZw8eIUS9NWvWjC8RUn9RkoIQQgghhKgdZ6dRWLNqBd6iizpCCKlTKElBCCGEEELUyoJ5szHNy52vEUIIqUsoSUEIIYQQQtTGjm0RGDJkEF8jhBBS11CSghBCCCGEqIXWH7yPrl078zVCCCF10SsyAV8mpEZkZWXByMQcR4/EolXLljz68pw9dwEuY13xY+oZHiHq6NGjR3ypbnrjjZqbgqy2/E2sDd8g3k5yHS/eVgcf39k4eeo0X6s72LfMX1NXeLXFXvvnzl5AxKYwHqk4l7Fu6NW7R6X/flTxHKrjveTqtevo2KE9XnnlFR4h5MW66BsIr+Vw9O5V+wussvPkulA883//+x/0u/fBnujtaN+uLY8SUj6UpCA1rr4lKXIfP8avd37ja6SqOnZsz5eKU7yu6qJvjxxCy5YSvlb96luSIj7hCF+rO5ycRlGSQo1RkqJsLEkhnbcIc2fPpCkaSbmpW5IidFUYJrlNwNtvt+BR9UNJClIVlKQgNa4+Jik+6dufr5GqCA1Zhv4mRnytOEpSqA4lKdQfJSnUGyUpysaSFCMcHMXlWX7eGGH/pbhMyPOoW5KCnc80btwYkydNgLPTaL5FvVCSglQF1aQghBBCBK+/3gSff95fbRsh9c3CRUswe858/Pv0KY8QUnc8efIEK4JXYdiXI3EsMYlHCakfqCcFqXHUk4JUVkV6UqjrNw8KmyO38SXqSVFTPSlYkiLlVLK4rG5Kvs9QTwr1Rj0pyla0J4XCxx/pYfZsX3Tvps8jhBSnjj0pSvp8QH+xZ8VHwutdHVBPClIVlKQgNa6+JymcHEfhgw/e52uChycROi0M/zivgK/x2zxYA/7LwbWT6Xj7M33U4KNW2PwFi/lSxZIU48c5w32qG19TL+vWb8LqNev4GiUpKEnxYpSkqFsoSVE2ZUkKBR/vaRj11Qi+RkihupCkUBjrMkasV/Haa6/xSO1ESQpSFZSkIDWOkhTCxcO0IhcPd6Mxop0LclZdQYKzLg9WtwwcHK+HEbvckZC5CCYaPFzL/PB/JzFpsidfoyRFTaEkhepdSk3FrZvpaN++XZnFX6uCkhR1CyUpyva8JAXzhbUFZvvPFP+eCVGoS0kKRvLOO5g0aTyG2g7mkdqHkhSkKqgmBSH1VH4+XyCEqBRLSIwdPwn9B1ihR69+4snx6DHjMXfeQtg7jBHXext+hgEDrTFqzDicP3+R35MQUlElh3h8E3dY/Ds7e/Y8jxCi3tiXLiWHeGT8+SfmSheKychz9BlC6iBKUhBSy2TE+8HSxg8hK13QXa8pmjQVml5P+Mbn8D1SEW5jDbfAUPha6cm3N9WDZUAysvke8mNMRtQdHhAUjaWGuyDwJItGwWuoNUJe7hfmhNQJ8+YvhpGJmZiQSE29jDeaaqJf3z5it1xvb6+CNnGCC3r17AlNTU389NPPcHKZCNPPrbBseQg/EiGkvAYPti41xCM9/Q5cxrkhcst2HiFEvcXs2wVPj8mlhnicPXcezsJniHT+Ivz1VyaPEqL+KElBSG3zOB1JiaEIPtkeixNu4t7NEwjum4YQu3k4LOYp8pGTmIzIgBDcH74f97Jzkb7fEXmB1rBYnSoeQn6MdOT9J18VFYnpj14BD0MWHAzp5p1w7CruQQiphG+/TUQvg0+xd1+MOIRt185InDvzf4g9uAerQpfDzXUcRn/lUNCmTHZF2NqViD0QjTOnk7F5UziaNm2KLVt34JN+/XHxIv87JoSUC6tFsXjRPDRpUnyIx/IVoZju7Ye//37EI4Sor7Eujoj/Zj+G2trwSKF9+w7A0tq2WNFtQtQZJSkIqZUkGOHqDou2EmhL9GFrwz6Q0nD/gXyryHYxpM760G4k7G3mDaknkOobhaTyDOPQ1EaThmxBA1paWtCupTUpCKntWILi6xkz8c7bb+OH5KOI2r0VnTt15FvLp1evHmLC4ujhg3j99dfh6DwBe/bE8K2EkPL4wtoS0cLfX+9ePXlE7siR78ThH6dOpfAIIepLInkH86T+iNgYhp49u/OoHE1ZSuoSSlIQUiu1R3vdkpmDZNxIL8xA6HdqjcKyoxrooM8SGalI/0MeIYRUrzlzF8Bn5mz07t0T8XEx0NbW5lsqp1WrVjj2bRwszAdicdAyMVlBCCk/Xd3WYqFPVqC6qN9/v4sJrlOxcWMkjxCi3tjnTmTEOsyd44e3327Bo3I//fwLPL284fW1D3755SaPEqJeKElBiJp60lQDRdMYec/4AiGk2gUsXIKYA4cwfLgtNm1Yy6OqsSQoAPPnzcalS5cxcpQzjxJCyovNoLV0yUK8+cYbPCIXsmotPKd54+HDLB4hRPXYrDZVaey9v7y+HDYE8d/EwNlpNI8U+u6772E7zAErQ1bj33//5VFC1AMlKQhRUzfS7hQUymR1KtKvxgISfeiWMVPl/YwiVTQFGjTEg5BKSUw6jqjovXCwH46ZPtN5VLXYNIrz58/Gjz9eRWioapMghNQHrEcSG371SR8DHpE7dixJHP7xww8neIQQ1WNT71a2uXvO4EcpHw2NxpjmNRX79uzEAFMTHi20KWIrPjf7AiuCQ5UmRaraCKkOlKQgRF1t9kLgUfmMH9mnQiFdCRiOH4w+moCWpD0kSEbU0VSwASL5t6IRHFy0GJ8ELcXZrHKQ8UcO8qkXBiHl5u3tBx2dd+HnV7ETyYoaPMgan/bri40RW3Dz1m0eJYSU13vv6WD9utUYN9aJR+Tu38/ApCleCAvfyCOEqN6PqWcq1Y4nHeFHqJi2bT/C8OFD0bVLZx4plJWVjeg9+xEYuAxhYRtU0lhChZDqQkkKQtSVWTekuemIU5C2GrgVzfx3InKqoTgERMNoDMKnGOP69H5oJmxvNnALdEc7yu/HtevrDkNsgVNXHcxMLE+1TULItOm++N///odtW2rm4obNAqKtrQV3j+rpsUFIfeDhPgkrVwThrbea8Yjc2rD1mDJ1Gv788y8eIUQ9sborM2fNhaubOy7/eIVH5djsUWwGnNMnk7Bv706xbosqGiHV6RWZgC8TUiOysrJgZGKOo0dixen6XjbWVY1lg1n2ujrkPn6MT/r252sQC3qx8bKVl4KgpgMg9YxDltQQ+Y+fAI20oK3JNxeVn4NsYbOGphY0GvFYCfmP2Xa+Usv88H8nMWmyJ18DQkOWob+JEV8rTvG6Uhg/zhnuU934mnpZt34TVq9Zx9eAb48cQsuWZYzjqQA2DV95ijHm5eXh7t0/8NFHYnebl0YxbrzkhYUyq0OXi70bKsrHdzbiE+TfWr3+ehOknEoWl5W5fTsdg23t4TpxHCa5jefR6peU/AOmun8tFkkrWc1dodT7jJPwPuNVlfcZ8jKtDd+Ac2cvVOlCwGWsG3r17oFJrpV7rariOVTH5+vVa9cxwqEw6S6d64dhQ4fwtedjPSjmL1gsfrYU1aJFc8zx90X//sY8QuqaLvoGwms5HL179eCR6lPV131Fz2fC123EmrXr+VpxDiOGC59XE8Rkt6q96HfKEvr63ftgT/R2tG/XlkcJKR/qSUGIOmukAW02hWhZSQYNYZuwvawEBVNbExSkerBK3y9qLEFR3n2rsz18+FBsyraVbDWBVUpnJ3o1maBgTIw/w+tNmohF/wghlceSvWvXrBQTjUVlZj4Q6wCsWh3OI4TUfizB/sWgYUoTFH379sGObRHwmzmjWhIUhFQ3SlIQQgghL5Dx51+4efN2qYubotg3z1Pcv4bp51Zi+3rGTMQciOVbq2bQIGux4vuzZ1RAhpCqmjxpAlavWoF33nmbR+TWb4gQu8v/8cc9HiGk9rl69ZrYy5T1BLzz6288KsfqsCxaOA/rwkLRtWvp2hSEqAtKUhCidgzhk5uLvADjYlOQElJR3fS7qnWrSTt3RaFBgwYY6WDHI4V+++13cVrDo0eP4a1mzcTx72yoxauvvoo5cwPEix42S0dV+M/yFm8jt+wQbwkhVWNs9Kk4+0f//sWHEJ44eRr2I8bg228TeYSQ2uHRo1wELlmBESOdSg1ZYlgSPf6b/Rj0hSWPEKK+qCYFqXG1tSZF7149eUS1/vvvP1y4eImvqaImRf1RsibFR3p6ZXZbZN8wX0otnFucalKUxmpS9PtsAF8DXJzHwMtzCl9TLxs3bUFI6Bq+BhyOP1CtNSnGTZiMtLSf8EPytzxSiE3tZm72OYba2kBPrw2Pyl27dkPsTcEKmUXt2sqjlWM9aBgaNmiA2IN7eKQQ1aSoW6gmRdmqUpOiLKwHhbKhHur8HkmKU/eaFG+/3UIc1pGTI5/VrSgrSzOx7kTr1h/wSM2gmhSkOlFPCkIEbm7jxZO56mjde+jzRyFV1aVLR/FbL2Xt008/4XsRonq//vqb0kTR8hWhYuX0sWMdSyUomI4d22PKZFdkZ+eI+1YF6z1yl7qhE6JyE8a7IDwsFO++24pH5HbsjOJLhLw8KSlnsWjx0lIJik6dOmDt6mAEBQbUeIKCkOpGSQpS77EMMPumqbpayfnZS8rYM1KcRrSw6aG7lTUsR/sh8kwG30suJZBt90NSOWYMfeG+d6MxQng8y83pPFD7scrrY0aPVNrshg/lexGiemyOedaTp6TE75OxYN5scZhHWbS03hQrrCccPsojlaOv3xn//vsvXyNEfbBeHbVdv759EL17K8wGFvY2I+RlOHLkGF+SKzml6BtvyKcU3b1zCz77rB+PElK3UJKCkFrCaWUcEuJZi0Cwqx30EQs3Uz2YLEuFIs8g6boIgQHd8OIJGSu2LyHk+Vi3VQ2N4lVgsrOzxeRFly6deKRsnTp1REbGn3ytcppqyqfiYc+FEHXgNc1HvD134QJ69u6HpctWiuu1lZaWFhprNOZrhNQ+LOEd/00MRn01gkcIqZsoSUFILaHVxhAmRsbyZuOIwG3fINJBghTpUITwYY26Vu7w8LSDfjkqZlZkX0LIi73yCl/g/ieTlbvuSWrqZehXoNgn++aZjWsupoH8I5sV8FQ1Ns6fmmravfv3+W+1fmOvYdY9/d793/Dzz1fxzz//YOu2nXwrIaQiWE8fmlKU1CdUOJPUuNpWOLO6lSpoV6JwJhvuoescC4/YTASalsgo3NoCy66TkeR/DHm+hkgNt4ZvvDmk+x1x33cown+yR2DsBBRUvbgVDTfPLcDoNXB9MJnv6w7DRsK2O7Hw9fJDyFE2vEMCk9HGwLZoYNUVJDjrindPj/WDV0AUDl9jw0wkaD/cB5GrheOzL3AzjsB3fChydLSQtC0W6WgHn/gTkBpVXxakZOHM0JBl6G9SvBK7grJCU1Q4szgqnFlaeQtn9uz9KWwGWWPunJk8UnETXadi9CgHfPppXx5RLifnb3xq9HmpgmTx8YfhM3MOUi+eLpWoqGrhzHPnL8DZxZWvkapQxWdbXSicyR7/+A8/4O4f8iGF2tpvoUXzlrh8KUVcryyWCHIYWTiMUhWFM4vy85fi0KF4cblx48Y4d+YHcZmoN3UqnLl7914sXLyEr8mxYa2sOKam5us88vKpunDmnr0x+Cszk6+VD6sFZU5DtOok6klBSG3Wpj0M2e2ZG2CnefnZyUhKvI+8Z1owNmovLE9DzCm2g1xqbAgiE3VhYapbZF9hQ34ypKYjsbu5O5LSMpF1ZycsHgjb5XcTZcdPg8nIKGi57ER6Zi6y0tZi8J1p6OOwRXxsPMtBemIyIo/mwH5zHGI2+8CyE3XTqI+uXr0utvpEQ6MxHmY95GuV07btxzj2vfIkSFHffisfj6yn96F4q5CR8Zd4Wx09KQipDo0avcqX2N+Q/OKqazfDKrWiCQpC6gvWC8nSegiiovbySN0UFrYB4eEbsW7dphc2tm/5pCCI1Xyz4eezxWQganSJGm6P0xDlPwzd9YS4Xk9YuoUi5QHfJihdS05oXQfA0mYkfLelIpvvR6qGznQIqeWasP+xREMJ2mZ28JEAQccU30qlIik6FZJxNjBuzkNcduJBBGXow8llDAx1NKDR3BAe/h6FPTCEt+0DG9cjw8wHvk6GkGgIJ5Q65vD1dwcSJyPyON+NsXWH73BjWAy3g2GJxyF1088//yJOfTbBdSq+tPsKI0Y6is1miB2279iN8+cv8j3rrlatWuH27Tt8rXIsLcywd28Mjh4tXhStpKjofWJvq5LFOM9fuIimTeV1KQip7T75xACvvvoqdN7VFVtTzTfRqWMHRO/eVqW2eNF8/giE1C+sBlLAoiUYNWYsTp6qWo+k2uyDD96HlaW52GtQWRswwARG1VYwNAMHPa3gdLI1PHZdwb3EFTB5EAITg/mlCtEX1pIT2mpv2HfMwW63fugmTS6oJUcqj4Z7kBpHwz0qMNwDKZA2HYAgszW4vt8RGYFNYRLgjoTMRTDRyEeStBMsl9nL1y8vga7pQTh9ewzSTzTE2T0U+zZbrYc+UkNEpu2EvQ4/ND92ijjcI0P+OJJ2MOlU5N8k9w6SzqTDhO1jdgYj2rkgp8jwkOpWPcM9WNZcD04xfJXTNTCGro4+7L184NSDjfdUvl8h/u8g/N6bmBY/aRaP1VQXFlNmwNFMF9o8XhbxNbCtD05Hu4s1RGrLcA9W6DFceC7swtrY6FMMGTII2lpaaNfuY7zSoAEuXLiEY8e+R1z8YbT9+GNMnjxRHDdbE2p6uMecuQuE/Y5Wues3S1B8PWMm5s6eiS+/tOVRuejofVi/cTOaN38LUbu28mih7j37ont3fURsLN39XtXDPebO8eNL5EXYe0/oqsJ/ExruUYi91tlr/o033oBB755YGVy8C3tlsOEeIxwc+RoN9yDlo07DPdjrj70OFTQ1NfFYeI8vadAXluIQkPfeKzixqxHsy4nExGTh5zyv8uEe8xcsRtyhfZg8xQudO3cslZScNt0Xd9J/Fd9LrL4YimXLFpdjuAfrSTEAUlPhXDrWEcXPYBXnevyc7qdQ9OnrB90NV7Dbge95aj6aDFwC1/2ZCDbTeM55ew4OuulgxDabEufbpDKoJwUhtdmtG8JbK6Bv0B6lT3k1YDKU9YYIxcHEDCTFr0NGV3NYdi1rCEYzlJicQN5Lg8nPl2d9rSbCZ7p3YZOuETPEPv3q4hwhjghWZMCFFuZrB/0HUXAz6gHp8aI58OL7FTZ7dOB7MCa+Owu2hfk6wqJ1OoKHdka38bHCR+Dz5ODiiVjo9zVEu7L+6V6Cg7Fx+NzsC9y9+wc2rl+D1atW4PMB/dFLOBlhFxxspgn2TcY8qT++OxonnkxMnz4TGzdF8iPULRbmA/H06VP89ttdHqkcM7MBYoJiz74YmJhaiBeSrA0ZOkLsrcKScOvCQvnehY4IF3rPnj2Dr/fXPFK9mjTRwJfDhlArRyNlG2E/XLw9+X/HVJKgIKQ+Clu7Evb2X/K1Qoe+SYClta04PKKmsBl6gpasEGfsYdjnvqqxnhRrVgfjypVrmOk3h0eBr4XHYgkKtk0ieYdHVayrO07nZiLStjCVkf2XvE6b1gvP0bTQsjW7zUHeEzFAqoCSFITUWvlI2bkeSTCErZk+lL43djWGQ1cgPGE+opZlwGKMvbzIZQmtOw4W/r8FN27K10W3bhTWpNDQRis28cCdxtBVzDDCWst83MjIRzPNulhJWgvtDYr8rGZsRpVgOCEDQRuKJhZK7FfQ9MVhMQV0uhZuM7ODx6p9iPI3RMaukfDY85w0Rf4lJG2UwMSgjH/jl+DgwW+wIGAxFi+ah/Xhq2Bo2JtvUY5VGmcVx9esCRa/CZn2tS+ePPmXbwXOnDnHl9RX37598MorryBgURCPVB7rQcF6SkRGrIOb23ixzfLzRkL8AfFWW7t035v4hMN4++0WaNv2Ix4hhBBSX/gLnw3bt25C30/ESmXFrAlbD+tBw8RejdWN9aLIy/tHnLEnO+cBHmZlQTpvId+qOiUTFSxBkZ5+R4ypomfp82mIX+plX0vG4W1+cPDaAsPpa+Fm8IKztJxkJMQKt8K5eYeKd+wkJdBwD1LjaLiH8uEerttuYi7rNpZ/H2lpabi4KwRe21KEN8Y4HJAai0MGig7hMOHvlenbhqGDG+uubo7gMzvg2lG+odi+rKub6QBIWy7C6W3u0G+cjii3AXDalSEfyuGsW/A8LFaeR8y4dsKbbRoip1vBLdEYkYkRsG8UXceGexT/PcoV7RJogZQy9yvijHy4h+L3WEx+MnxbWCPENkL4d7KD0o9V4f66pncQcmcNBvMaHy9zuMft2+lirYnQlUvRv78xj5Yfm5nC3mEMvrC2xJTJEzFv/iJc/vGKeHLVpElB350qq+nhHozbJE+cOHkKh2L3orVwAlWTWJdZVt296HtHUaoe7hG4eD6srSz4GnmeDRs303CPMlS127sy6jDcw9zChi+RqhgnfI4PLzEsrrLUebjH1i0b0L1bYRWxQ9/EY23YBvz+e+mefexzkO379tvVUzRsc+R2/HLzGl8D9Np0QKtWLWFpMZBHCrFLzMgtOzDYxhpvvfXiHrlpaT+LtTaK/t5+/fU32NmPRoOGDbF/786Cc6F///1XnHVL5cM9Cs71MnDY1wUh1/KRnpgODec52BXoiPaaheftko7G6FDkrf7+1WTcyDCET+x+4bFomtiqop4UhNQS4cKbZCsdHbTS6wkTKz/sztVH8M7zBQmKsuhaOUKsdW5rDwueoChFQ3jT3BUBp99D0EfSFE20O0PayAKsf4WCZHgYTi+zwQ3PnvJKxTo9IU01RuD2YNiL3dfqvuzjR8BKUOj3LTq8Jh85D3KQnVO8lasokkZrdGfnqjE3cF1J8VMm9cxBZNgao08tKUL69Qw/DPzctFIJCkZL603M9J0uJlpWhqwWT6YWLpir0gTFy8K63DYUTpS8pvnwSM1YsDBQnNGjrAQFIaR2eZiVjT/u3adWxUaUG/SFFeK/2Q/XieN4pBAbovlNXAISvz+OX3/7HffvZ6i0MW++UXhWynoY/vvvU6X7ssZkZj5Quq1ky/n7kbh/USGha/H2O2+L5xYri3wxUf0ksAiMQ0LsMVy/4APdzZPRfdaRYjN3dO9rDgtTRRsM37A4nE6LowSFilCSgpCXTDJ8J/Jyc0u0K0jatgKuNu2KJSgMfdm2Et/qN7dBGLvPNrti2eFS+7a2Q9iZm8i6exf37mbietga7BbuV/jtvxb0XXfiem6msF2+T/qZCHh8wt9sdexK7K/uouA11BqWNrxZ9UQ3qyVINfBG4HjDIkMv1mNEOx15AqmgjcTuW3zzcwkX5g3Zbb7SGVrYrCoXj6YKH24GyntZ1LDrN9LQSLgInyedJQ9UEiuy2bVLJ2yK2IqFC6Ro374d31I57KSrtpg921ec7eTcOfl43OrGfvaYmFiMHuXAI4QQQuo7lhyYPGmCWGTS2qqwF6nCnTu/ikMtu3btgiVBC1XWWGFniUQH2tpv4f332ojPY+WKIKX7BgUGiM/F03OK0u0l27ChRb86k9egYEM8NqxbLdZqYlOf+xapUVF+EkhMhZu8J0q+YMpDXo5wY6qLlmV8z4e2ZhjBvnDamIJLRc7l2tlMgIenO28TYG9mDH2dsg5CKoqSFITUMxpaWtB+bvUfDXEGh+fvUxd0g4lZkSy4jQ/C408gPX4OTIr1amBdABXJI0WLg1Mbvvm58oD/hJtixSuKuHsGhxONYdKzdgx76tC+HaKjtomFMauCDRn55aY8i9OxY3vxtircPaeLc8TXBkOH2KBPHwNMcJ1SI8mTESOd8NZbb2Ga11QeIYSoEzbjEbXyN1IxrHZD4OIFCFsbgi5dOvGo3KNHuWKRSzY86vgPJ3i0apISD+P9995Di+Ythc+m5pg43kWcdUrVWILidpEaFGKNilUrKpmoaAldVnftVCrSHsgjBR5cRkqicNu6pdiDNjt2stibWHpK3FogL1f4n1lr6DaSr5MawGpSEFKTHj58KOvctbfsj3v3eKRue5SbK/68irZseQjfQl5E+FAt9rtL/D6ZbylN8bpStJDQtXxLSfdlu0dpyjQ0Z8q+z+Mhpcq5X0qQsI+mzCLiNg8UkZck8xG2aYyKEo5WWlacl0zjkyDZ6RLHD1+3sdjPcu+esntXXE7O38WOuyJ4Fd+iOv/995/M4Ssn2Uy/ubIxTuNlU6ZO41sqZ936CFnP3v1kf/xR/P1iw8bIYj/L77/f5VsqxtvHv+AYBn2MePTFTEwtZL0MPpPdz/iTR1RvwEBr8Wcvz79/qfeZFRV7nzl77nyx+38Tl8C3kBdZvyGi2O9OFZ9ta8LWy5xdXPla5bD7s+NUliqew5mz8teVKl25eq3Y73vvvhi+RTVmzppbcOyevT/l0Yph7w2KY8z0m8Oj5EWEC9CC3xtr0Xv28y1Vx47HXo81oaqv+9jYuGK/hwsXL/EtL7ZjZ5Ss32efF7u/ok339pPdvp3O96x+7HyAPe71G2k88nzs35vtP+1rX5ntMAeln3137vwq+8LmS9kM71nivoePfse3PF/e+SCZMTsf6z9PdiDtviwrO1uWlZ4kCxzeRjiHM5XNTc6W75h5WObZRtjPdp3sunhuli27HuEsa63ZRuYYLT/Pux/tIJ73+Rx77kkkqSLqSUFIDWPfCLMieNRe3IQLXP5bU0/pMesQAgnshxorGc6Rj0sn10Niagh9Nei08uTJE1y8lIrvv08Wv8X47tj3uHDhEvLy8vgecrNmz8Mrwn8LA+Zi3txZEE7WxNlCKmPX7j0QLgCxdMkisTBXbfL9sQS89tqrsP7CFteu3eBR1THub46HD7OwJ2p7DVQyJ4S8VBnJCHEbgA6sHhRvugYuCDnF+qFXUE4aDu5JKTZ2vsqeZSBp2xGk81VSe410sENC3H6M+moEjxQ6fPhbDBo8HKtWh+N///sfj9Y+rAfF2jJm8VD0qGCzilWERg9vHIidA4vMJRjRg9eA62SNsHRjBO7fBF8jfrzm5licsAZOvwehewv2t6iD7gEZGBG2HyuH15XhzuqBkhSE1DD2wUCt/E1d5D3O4EU105F6/AiipMNgMj4WEoc58DVTdpGZipRdgKVBt1oz9agyf9y7h+kz/NDL4DMELAzCtu278WfGX9i5MxqBS1ZgsK09xo2fVNCVdPHCeWKCgo1T1dVtjeXLFmOBcL/xE6cgN5f1lyyfsPANWLR4qXissmZ0edkOHdwr/JwNMGrMWFy8mMqjVcNqXfQ2NBJnSdmyeT0+/LA2nRSxKuiFF1GK1sHUGpaj/RB5oRIXVDWIzXjUpKkfkspV9ZaQmpF/ZglM9KwRfMcQPvHnkX73LtIv7INvzzvwHagDk2Wp5SvULEpFUI+eGLHthgqTFBk46KYHS7dkpNPfjlpgQzZ9vKdh984tMPqsH48WYsl/SytbHIyt3BcI1e23334XZxkz6GOstH1pNwoHKvHlh7apN2Iu5yIvg9VdK1J7zUy32HmYRlvHIjXc7iIrLQ6Bo/ULasQpaskFshn5SLWhJAUhhKhAiu8AXlSzM/pYTULgmZZw2xyHpJXyKatKOZOMsAwbmPSsnVWg2UXywkVLYG4xGJkPHognO/v27BSnI1S06N1bxQvpDh3aY/IUL3w12kVMarDkhMKn/T4RpwdlPS5YQiM+Xj7dZ1lYLYux49zEudg3rl8Dc7PP+Zbah02p9u2RWDRrpo0xTuMRHLKab6kcbx9/OI91RYMGr2Df3p2lxhfXHo4Ijo9DAm9hvnbQfxAFN6MekB6nqxhCyi0/GYEO85FitggHdy2Ck1E7SLS0IGlrDtcw4fPDVx8p0qEIKfdMlsLfn3xCBZXKpz9rtdSpUwexpsOSoIBin8sM+6z2nz0f4yZMVlmSXRWsrMxhamqM/v2NXtjYvpWiyequvbj2mryGmxY0qA7FS/EKG/PBlwmpEVlZWTAyMVfJXPLqIPfxYyxdtpKvkaowMf6szG/VFa8rhfHjnOE+1Y2v1UL5Och+Iv8QLPkxyabvXL1mHV+DcCF8SCVd/v/++xH6fVY4n7iL8xh4eU7ha4XYa5YlCp49ewb/WT7F5mcvC/v9ByxcgrS0n7B0yUIxcVESG+rEfra2bT9G+3Zt8eabxQt0sinIvk/6AUZG/eDhPglvt2jBt5S2cdMWhBSZjowlQtj88BXl4zsb8QnyxMnrrzdByqlkcbmiFgUuRVTUPnFe+F69emBAf2N8paS7bUnfxB0W/q3DxSKcjRo1wmCbLyCd68e3lh/7N/ukb3++Bjg5jcLXXuWfsvTc+QtwdnHla0Dg4vmwtrLgawplzScveBALt9YjEWkbgfRtdrVitpqSWE8KkwAlz72KNmzcjNBVYXwNKvlsWxu+AefOXhCTgZXlMtYNvXr3wCTX8TxSfuwza9v2ncLrWb4+ZvRIzJjuKV+pgLPnLgjPwxU/ppb7KvuFrl67LhYCVGB/L8OGDuFrVefnL8WhQ/HicuPGjXHuzA/ickWw3lD5/Mp+0BeWWLRwnrhcUnb8NLSyWw+nnXcRZqMkYX03GiPaueDguH24t9Icd8Kt4RtvDul+dxjyC6fUgpg9svxHwmt1CtKhC0PhQs9t1QRkTfVDal9zaB0PQchxlsGQwMQ3Arv85dObZ8T7wSk8B06r1hRMN1401j7BGk5Lk3EjQ4L2Ru3hJI2Dh4F8P1VjQ+fsHcbwNWDO7JkY/qUtX6uaLvoGwt9TOHoL78/Vraqve/b6Y69Dha1bNpTrc/hF1q+PwNqw9fhPSS/V4V8OxaRJ49GiuermQ2e9YdnQ3T3R28XPfEIqhCUpCKlJ9a1wJqkZ5S+cWfu97MKZdiNGyyZMnCLLzX3MI+W3ZesOsdjj5R+v8EhxrMBj+LpNsvHC8VlRPkUbO36SLDBoebmLer3swpnK5OTkiAW/+n5qWnBMw09MZENs7WW+M+fI1oZtkE2f4Sez+mKoTDhhLtinT18Tmf/sefwolVMzhTOfV0z2tCyQFSUbFCm7LbskCxtkJbN3dZZZsAJkrODY1tsy2dPbsgOzhsq6iTGhtekhcwy7JCs4VK5wP6cestZsG98+JPi0LItvlgl7Xo+eKRvShW8XjtttSqTsei7fmhYl8xle5P7i9oPC85E7vZjFijz3bOHxXE1l7RX7dxkq84krLIB7KcxKZjFqkszRkhVW05S1Hif8bE/5xiLqYuFMgz7GMr2PO8la6rwve691G/HnWrI0mG8tPyqc+fzCmfLXpJVs800eKOW2bPMgYZ/uIcJflZLXsKBoLC/7sGwuey0PWie7lJ0ty3vK/y7Z32DEJVmW8Pq9f2SeWEDQcJW8GKO8CGDx51AslntDttmBHcNLduB+tiyr1N++6lDhTLmqFM58kbt3/5DN8p9X7PiK1tvwM9nmyG18z6qraOFMQoqi4R6EEEIKsG+F7/1xH8uWLoKm5us8Wn7sG1crSwssWBDII8U11dTExAkuWB++qtjQETa0g42hLdklVZ28+eabYg2OEz8cE79BCwoKgO2QQWjxdgtc/vEKdu2ORtpPP+O993QwzsURK5YFCvt+h1MnvseC+ZWZ+732yD5+BDHCrX7f9miJfOQkJuPgtjPQnbEPCTsXY0S/Jjg8fQBG7NLCxF03kZWdifSwwUif3g+2m1k5vnwkLR0KrzRzhFy+i7zcTFwP0MdF/wGYFy+vdZEd7wcL5yhoTTqG9MxM3Ds5B/rxk9F91hFk5xzBTEsX7NZyx8E7ucjLvovTq4yRtXkkfPco6/+eihDbfsLjGSPwgvB4bH8vLey26wzfRPk34PnZyUiK2YKU1j6Iid+JIFtjtKwn3X7/+ecfPP7nb2RnP0RmZgZeafAKrl9P41uJauQg6z67bYeyO8o1QRPWweKn+8gqx5ALDS1t4R5MY2gV7aZuuxhSZ31oC+sSM29IPYW/AN+o8tVn0RSO2ZAtaIjH1KZh+Grt3XdbIWDBHGxYv7rU1KF5eflYviIUw4Z/hUThPZyQl4mGe5AaV9+Ge5CaoXbDPZ6j5HAPVvugQYOq55TZ2/2DBw/5WunhHrdvp4vFqlYGL8EAUxMerTg2rMR22Ajh9z8Jg22seVS1Sg73aNasGRo2rPjviM0jz2YuYaoy3ONlKznco0mTJhVKMj19+lSsQ6Lw/OEe8m7fBRfsz+7j+vE0ZBh4I2HPHJg0T0FQ0wGQmuKbUbgAAL8oSURBVK7AxdgJEAf+3NoC266TgWXnscu1HR/ilI8k/xawXCncL9sD+dN1YLtxAnbfWYHBrMdxfgZu/Aq01JFAWzMdkUM7ww3CMXcKx+QXSjfiQ5H02BC2fbVx/fxpZOjaw74r38i7yuesuoIEZ91iwz36nJmP9lbCc4q+gGArRTd74TFshMdotAbX9zsiQ9zfGMEX4uD6nJ7KJYd7qOLv9Z9/8sR/Ey2tN3mk4ti/56uvviq+risqM/MBsnMeiAkKpk2b9mj8GrvwrdjzUbyuWrRQXRdyNgwtO7uwSKs6D/eQvyaNEXY5Dk5teLAY/prMnIOkRG9gZekhS8WHMSn+9oTXcKwjhFe9uB7jfwxJvoYFQwsz9oyErnOO+LiW5wuXFc+h6HanNs8Z5qViNNxDrrqGeygTvWc/1oZtEM4NHvBIoc8/749JbhPw8Ud6PFIxNNyDVAUlKUiNoyQFqQ51OUkRsGCuWJyxqtiFzwzvwnoHJZMU7NvTlDPnVDKbBjvpuXz5R4SHhfJI5c0STtb69zfG5wMKL8JLJinmz5uN5s3f4mvltzlymzijBlOXkhTs5NJ2iA1fe7Gff7mJlSsLC38+P0lhDlfhwqpg3hGNlmjXsR26G+hDIl7A8AslzzhkCfuJoVPz0WTgEkg6GqNDkbf9vPRkpNySX6SNyA6F7XA/JAnXxZKO5rB1cYTTIDPo67AjKDlmSc9ycONCMk6fTEd6+mmknExB0rUMmChJUujGjESH8bHQNRB+jqb8/oL7V9nYe/k+TZRcECpTMknBvqVkSbOqYAVmf/r5F3h6TOaRilsZsgZtP/6oUsXlvp7uK76nst4UjRq9Cm2t5mIxu4omA34Wfgb2PFjxPlX59dffELRkBV9T7ySFPBkQC9fou0WSZUUoar0478S9VTZIK5aQkO9S9HVdVpJid+AJXJxSeJGbvou9/ilJUV3UKUnBsMLW7DM7cst2HimOnSuwZEXjxq/xSPlQkoJUCUtSEFKTqCYFqQ5Uk+LFyluTQhUeZmXJhBN12Z4qjim+deu2OL77u2Pf84hcbaxJ8TK9/JoURfFx8LOSCupN5B2bKdxPU+a6IUn2fXLpdj1TsWO27HpylGylh4PMmNeeGMLqWSg5ZjGZSTKf/sL2LkNlngtCZJsPJslOH1snsxfuYxEhrzNRdOz+7QgrYdlKNne/sudzSXZf2EfZ+H9l6mJNim3bd8mEi4uCn6ky9SgYqknx/JoUsszDMk9Wo2XQOtl1HiqUJ7wGTYXXYF+Zz7FsMVL6NZktS/AoGrskCxSPx2rDMPzvZsrBYrVdvp8lxNoI98lVXpPi0qq+RWL3ZQfGlXzc6kE1KeSqsybF89y48ZPM3WN6scdWtP4DLGV791bsb41qUpCqoJoUhJD66VkGksKnwdZAD02aNpU3vZ5wCk8tMr88+waJbyvSOphaw3K0HyIvFHY5JsU109bG/Hn+WLFytTj8ozJYl+5p02eiS+dOVRp+8jLs3XcA5paD0aNXP/EbvJKtl8GnsLAagmXLQ/g96jaNFi3BvgdMb9gaJkbGBa1lbhoy8rXRTCsHN45GIzwxC+2N7OCxcieSLpyAtCtweE8y0iGBxFQ4wOV0iMP4uRubR8LSxg9bdi1ByBljBEbuQLC/O5xsjGGo2xjsLzTvP/lwnqK0Je2E/ycjX8uwyPPphiY305HzqhYaV+O3xepg1FcjMGGCC3r36il+G1yZmT1IOTQ3x+Jdc2CYOA3dTefj4E85bBJR5GekIsp3GOwDUmA4fRF8TeW9LCQ6rFdMKA4e5XVajq9D4EZxkWsJ3b7Cze8ZSM+RH0u02QuBivucCoV0JWA4fjD6aAJakvbCX1cyoo6myh/7VjSCg4tOSSlBS7G3fw4y/hCO+UwMkue4eeuWeCtcnIu36qJdu48RsnIpViwPxEclhnj89VcmpPMXwcllIs6cPc+jhFQfSlIQUs1YN+y4+MPUVNC+TzrOf6tVlY4ot76wnJ4K3akRuHjzLu7dvYKEqe2QMr0fuvkLFy98TzlHBMfHIYG3MF876D+IgptRD0iPF9+TFLIwHwhDg14YN36SOIykIrKys/HVaBc0f6uZWFhTHaSm/gi3SZ7o1uMTzBNO5li9i0/6GIjdZL29vQoaKxzas2cP5ObmYsvWHeL+ntO8hRPb2/xIdVBXe3jZAklTv0b4T/JQ9rUtCJw6DT570pDXSPirjJ8JL7vC7bibhuts6EebltCGLiyd7SBJnIwgRSHMO9EIDIjFdUk3dJKwi7hkpN/nCYmcNEQuno8kYTEl/X6Jv2dA29ReTICEjJ+PwzzXmHE0BD5TJyM4OUP5cBJCqoGGgTcOnImAh3Y0RvTQQbOmTdFMrx98EiVw23wCB6TyqUIZ3aFzEGyri/CROmLCvNWUOzDxNOZbGQn0zcwh+Wk+LHWGIlLxt2TWDWlu/D4Dt6KZ/05ETpXXqNAwGoPwKca4Lnz2iY89cAt0RxdO8cq06+sOQ2yBU1cdzOSFZYlyo0aPxcKFS8RlO/vRGD+x9DTftd3Az00Rs2+XOBy05BCP8+cvilOUz5kbIE4bTkh1oZoUpMbVt5oUJceKk8oLDVlWZr2EitSkSF09AH188+GxPx6BZsXHAcu3pcDn21xIP3nOWFzFWGHbCKRvEy6eeFgVStak+PbIIbQsu/x7ubEeDf0+G8DXStekqA5sXHZI6Fps37Ebgwd/gYByzGIReyge8xcsEr/FXbpkIZoKJ84llaxJcTj+AHR03uVr5efjOxvxCUfE5crWpGDfME10nSrWddDQaAxrK0s4OX0F3dYvnqmEneStWh2OhMNHxSKDPXp0x5bNhf/25VXyfcbJaRS+9nLnay927vwFOLu48rUX1aR40dj0MupH5KQKF0NfwSuGzebBSNB+uAfClwkXQKyu4oNkBI2fDOnRMrYjB6nhbhgxPRbyPYTtzj6IlE6AvoZwbNeix9bF4IAJ0I32Q4huBK7vtOOFMIs89zux8HXzQshxxYm2Liw852DxTDu01yw51p/vokTJmhSq+GxbG74B585eqFKCzmWsG3r17oFJruN5pGJU8RyqOjZfmavXrmOEQ+FFtDrXpCglPwfZYp6tMbS1nvOieyzs9wzQYDN48FBx+cLjawjvR0X+FqWGyH8sHLyRFrSF13cp/LE1NIvMClJC/mO2na9UA3WvSfHjj1cxcpQzsnPYrDj3IXlHB2+8oYX4b2Lw/vs6fK8Xq+maFM+zfsNmhAnvBaxgbUmDvrCCm9t4vP+e8p+NalKQqqAkBalxlKQglaWaJIVw0qYnnLR1WoTT0e7CxQ0PKzxIQ9JNoEOndpBoPu+ijJ/8FRQoU526lKRQSE+/gynuX6NRw4bw8/MWT1jefPMNvlWOXbCv2xCBvXtjELR4wXML/tWWJAV7zl/YDBOX3adOxpjRDuJyZaxZu174uSLFmSGWLl0E0woUMK2ZJIWKKC7EyrpY4hdgZW5/lo9sdrGl7EJOcfH2nAutUhSP17hy0ytSkqJs6p6kaCi8Xw0fPlRcrog9e/bjv//+E5crlKRQuTIShrVUySRF7949oaendNqTCtu9ew9MTU3wzjtv84jqnTp1Gnfu/IZfbl7jEeAjvY74+OOP0LNndx55sfTbd3A6pfBv5mUkKVjv1bDwjcLP8yuPFOrRoxvchPeVPoa9eUQ5SlKQqqDhHoSQ+uXuHVxkX5x21Uc7ZWdszdvBxIAlKPh6GbKPH0GMcKvftz3qfqqt6nR1W2NP1DZYWprB3eNrMVlSsk7DQPNB4gwj8d/sr9SMBDVtz54YmFnYiDM5nDvzf1VKUDCTJ00QfvZ90NbWgpeXNwJ4l+E6R0ML2lplJCAYzRdsb6Qh367sm2Z+33InKBjF49X2KzjyUjzJz69wI6rBepcp+/1WponH+/dfpdtU1V55pfhlVYMG8jeihg0aKN2/rPb02VPxfi/DpdTLmOjmDt+Zc0olKCSSdyCdOwtbNq9/YYKCkKqinhSkxtX3nhROjqNgbPwpXwMeHvPH4Pll11oYsfw7TO5VsWmfykv+2Lnw2bkSX+hcxVZjN2xwWIljrj1QHY9Y/PF48Dny8vIxaXJhwTaV9KS4G40R7VxwsFzfLCl6UkjQ3qg9WioufJ7dx/Xjacgw8EbCnjkwEbuiq05d7ElR1JMnT3Dt+o1i3UcbNmgoFuoq2buiLC+7J0X84aPw8fHHBx+8j4MxUWjUqCJXxS/mN0uKQ9/EY5yLIzzKMQ2lWvWkqGOoJ0XZaLjHy+5JoV7UfbiH4vn/808uHuX+jeZvtRA+G17Dd9/GQVKBHhwvY7gHG7bIek7s2bufR4pj51RuruPw6quv8siLUU8KUhXUk4KQl6BXzx4FTf9DeUksp5WFhRmLNs8vuhXbX5VN/thvQLczW28LMW8g+Rg9lOyrilb88V7cao9uMDEzh4UpbzY+CI8/gfR41Sco6gN24s9OuFjNCUVj3UfLm6B42e7e/QN+fnPRqWMHxB3ap/IEBbNooVS88NoYsQVJyRW/SCKEEFKzOnZsLxZHfv31ppC8865wQd8Y8+b5VyhB8TJsEj5nLK1tlSYorCzNcSh2r/ilT0USFIRUFSUpCKkltNoUnQqvsOnrUB9kldJph+6sU0J8KpRODvbgCHxtJiOooJge0w6DXd3h4cmbqx0sjPQhoX+aesnReQJee+017N61hUeqB/uG+L33dPD19Jk8QgghpDYb/ZWD2GODuXwpBUOH2IjLtdHhI99isK09VoasEXs4FqWv3wXhYaEIClwA3dYf8CghNYeSFISoC1YZ320AOjRtKk4j1qTrMPjGKyrZC56l46D/MHTX49v1esIpXD7vuUJ6rB9suyq2W0PK500v5vIWeFnpyfdp2hm2gcnI5ptYxfAbe4RjGCi2yx/HraCivuBxGqKE51HwPNn2bWmlpgBk2HztI2ys4bQsGRmlC0dXE31YeBkCP4Vgl5Kp1NJj1yMk8TDu51IGgpTGCnv++edfWLkiiEeqV+Tm9WCjMtkYYUJIHXNmSeFnKW8dTK1haTMZIUfTi3z2Ahl7RgrbrRF5iwee44X7smGPwmNZbi7y2V1N2Oe8m2ln/rONhO8e5ecDpOawWUjYUNoZ3rNwq8TU1y1aNMdsf19s37oJ/fr24VFCah4lKQipJZ7k5CC7ZCv4JE9FiG0/eKUZI/DCXeRl38VpLy3stusMX/FCOweHpw/AiF1amLjrJrKyM5EeNhjp0/vBlp+E5B+fD5ORUdCadAzpmZm4t8sc9xOVjL8XYnk2O8V90vfbISvAGharU8VN2Uf9YOEsHMNtP+5l5yLvzgmEmWYjcrQfou6yPYTnMcsKTsLz8EgUnkem8Dz99ZHg1hMz44snRLJPLcGQgSHIMfDGyunGkKi+x3yZ9J0XQWqQgRAba0hj0+S/58fpSAmfDMupRyBxmIOJxsWnJiWECQ/fiP79jdC3hk7eWDfhSW4TcPLkady7d49HCSF1iYnvzoIhnmG+jrBonY7goZ3RbXwsFH36Grc2R2DAYOg25oHnqMi+1Sn/gvxz/r7Vcly8eRO73VritHNPOGyr/uQIKe3hwywsXLREnCb1h/87yaOFWJ2qhLgDsKvEjDaEqBolKQipJcJH66GVjk6x5rBLkWA4iOAzErhO98DgtsLFcyMt4UJ7DqSmQMjqKKTfOoB1GzNgMcMHTgYSaDTSgMTMG1JPIGnqViQ9y0HS/iXI6OoIt9GGkGhoQNvAHdKpSgox2S6G1FW+j+IYqb4HhWMI23QHIyRsMbwc9KHNkgrN9WFpZigs5CCP9RQs+Tw02PP0QXjACvRplg95Z8J8ZCSyE5d1aCbdiV3+xpBX5ahBmobwiTmBsHHaiBrZE61aNEUTSWeYTE+GfsA+JC1zRPsXzO5B6p/JU7zwyiuvICR4KY/UjHFjHdGwYQMsX7GKRwgpn7/+esCXSK2m07VwmKeZHTxW7UOUvyEydo2Exx55mkLbwBEenhNgUo6i0xXZt/oI5x1b5yNFOO/wdTNHe4kE+sPd4WYDHN56FDf4XqRmRG7ZDkvrIdgdtZdHCpmbf44DMVFiIW0NjZec2SKEoyQFIbWER2wm8nJzi7UEZ11x2/27N5Ah/Hd42UhY2rCuoLw76FVh49E0pP96B4eFxYsR02BbsH0YpLHs3inC9nSkHhIW9dpDt8jFt75h6Wke9Tu1LjKlpgZ0O7HxlOwYwolPW2MMttJH/tEtCFk5H16jrWHhKz6IXKbwHIWbdm1bF5k1ox0shJMl+08kkH/0pUDqKZy4CD+Pblf9mk9QKGjpw2nlPlzPzcS9u3fFlpV9Bbs9zaFb0IlCAvtt7N9iEUxo9Ee9938nTuHLL8ueReDkqdPYuClS7ELLZg1hJ4PXbyitfFJhffoYIim57FmACCnql19u4vyFi9i7dz+MTMzw7beJfAtRDxow9JwDD2HpYGyy2JsiI95P/NyPupODg9MHCMvrIe/jyN2Khpvw2e+2J73IvnzbnVj4DpUPuWjSVA+WAYdRcrCnOBy0YCinHro7C8d/zDdmsFpNwrHdRvKhnD0hPV7Q1bMMWrBYKXx+fusNw4LzjhzcZ9+9vNH4BTNrEVX59rtEDB3mgOUrQvHPP3k8Kte5c0esWR2MZUsWQa/Nhzz68uzZG4NeBp+iR6++4m152pFvj/F7k7qGkhSEqIN8djphDPup3vCZXtiCN7PuofZow6c6s5xQfLt0NdvujT6Ki25tDZ4o4BqWPk140lSjzJOH7ON+MGndE06RqchCa5iMn4PgGRUtCiVc+C/biUBbIHyoHw4rToJeGg1oa2mJTaMGh5wQ9bJ58zaxNoSf7wweKY5N1zjR1R0Jh79Fq1Yt0bz5W9i2fRfGOI4Xt1WVdI4fnjz5F0eO0gkZeb5//vkHX9qNwtOn/yIv/x88fPgQX8+YKU4HSNSIRmt0Zx+vMTdwnfVkfJyOpMR05P2nBWOj9sLyNMScEvcUpcaGIDJRFxamukX2FTbkJ0NqOhK7m7sjKS0TWXd2wuJBMpLkdxNlx0+TDwd1YUM9c5GVthaD70xDH4ctEPtzPstBemIyIo/mwF4474jZ7APLTuVMM2gK+7HhlMdjETL6K/hm2CFYOgTyr2BIdWHToU51/xrTvvbFz7/c5FG5Zs2awW/mDOzaEQmjz/rxaO3APueePfsPbdp8CCsrC6Wta9cu6NKls7gvqbsoSUGIGtCWtBP+n4x8raIzgHRDk5vpyHlVC2++2xJs4EZ6w9ZFthujZW4aMvK10UxLF/qDhB023yg2o0X61dI1KW6k3SlWKDP9aiwgMYTuu+k4sCwUKaaLsHvbCkg9HTHYSIg3ZgmUfOSzk6gWEpgIN6l37rM7c2mIHG0NS/8j/Jub9jAxs4FHQAQGYz1sfWOLFQcjpDa6cPESXn/9db5W3JChI3DyxGksX7oY+/bswDSvqfCe4SVOT+oj3CYn/4ApwsliVbRsKUHzt97C1m07eIQQ5aZNZwmJ/3Dn119w92660O6ICbYtW+i1o16aAA3ZbT5QorC0tpkdfCRA0LEUHklFUnQqJONsYFxiWuzsxIMIytCHk8sYGOpoQKO5ITz8PcRzBjnhs33jemSY+cDXiQ31BDR0zOHr7w4kTkZk0Q5ctu7wHW4Mi+F2MKzI9NtpRyFdtg6H0/IAzRzkZPI4UbmcnBwEBi2HvcMYpdNXO475CgnxMXAYMZxHap/Vq1bg+vU0fPD+e5gv9S/W2PT0Z8+eh7HRp3xvUle9InxwyfgyITUiKysLRibmOHokFq1aFg4sqKtyHz/GJ3378zXAyXEUvp5WWKmfVeHWdY4Vh3sEmpbxzUR+CoJMB0Ca4Y6YC4tgoSXc7+h82A9dAvgfw2FfXRwcrQenGHMEX9gH17bCicm1LfAcNBlJphFI2mCHlmeWwMR0PloFnsCuKfrQuBMNJ1MXRGUYI+xyHJzaCI/RVHgMSOCx/wICzbR4ccv5aCbepyV/jAmIubtCfA6Kx4jKkA9XCTTNwcHxfTFilwUib66BvXASlb7LBSbjk2Gy+RiC4Cf8rDn88YRtm4ehw9QjcNp5F2E2BWMsCrDCTqwCtUJoyDL0NzHia8UpXlcK48c5i/N6q6N16zdh9Zp1fA349sgh8SK1qv7++xH6fTaAr8mLZLExqOpo46YtCAldw9eAw/EHoKPzLl8rPzYsIz7hiLj8+utNkHJKSTFZwSCbL9GgYQMcjInmEbno6H1YsDAIB/bvhp6e8KJW4tdff4P1oGGYPcsHdnbDeLTipk33xYkTp5Q+x1LvM07C+4xX+WcEOXf+ApxdXPmacHLwyit8iZRH0VMpVXy2sd43585eQMSmMB4pvwmuU3Hy5CncvCUf9d+gQQO0+bA9Pv74I3ykV/4u3T//cksstGdo0JNHKu6BcP8zZ87B0mIgj1RdTs7fOHlKcXEun6p32NCyh2FVlJ+/FIcOxYvLjRs3xrkzpS/0XqS3oRHyeQ/HQV9YYtHCeeJyKWx2D+Fz2WTVlYLhnYXSETWyM5xSvJFwdQ46HGLnCorPz3wkSTvBcpk9EjIXweTyEuiaHoTTt8cg/USDn1fI9+2+Xw99pIaITNsJ+4IaFSmQCp/3KeLjZojLQZJ2MOlU5HWbewdJZ9Llz83sDEa0c0GO0udZETk47N8DtitbIvjMCbh25GGOffvPLq4V5syeieFf2vK1qumibyBODdq7Vw8eqT5nz12Ay1hX/Jh6hkcqhr3+2OtQYeuWDejeTUkNsRJY7701a9fh8eN/eKTQ55/3h5vreLQV3geqYvuO3XwJGPXVCL6kHOu9pd+9D/ZEb0f7dsKJ6Quw4R7zFywWf2+Jicnw8JqB6dM84Oj4lbh9f0ws5koDMMvPG0NtbdCz96dYtmwxzAcWnteQuoN6UhCiDjQM4bNrJzzaRcFWh40HbQrdodFo5hmB8KmG0GBDKFafQLBtGrx6yLe3MpiPVKNFiAq0E7tVahh4Y/dmR6QH90MzNqa003w0MSs9VMNk3GCkuenIjzFwK1oG7EOws774GINnrMDgNusLnkOrEUfQXbgQEntxZLDeE8I+y/YLzyMZTnwq1A7+qcKJ1H6sHF76xEbXeTnCzIDIkX44SPXdSC32V2YmdHVb87VCe/cdEE+YykpQMB988L7Yu2Ln7j08UjldOnVCXt6LxoGrBrvoplb+VptMchuHV15pAB0dXTFB8f578temoWEvSFpKyt2aNtXEa6+9qnRbedtbbzUTH1vZtsq25s0r8hW+Gsu/g4us5FPf9uhQ6vsLDZgMZb0hQnEwMQNJ8euQ0dUcll3LGoLRDBolNjXht8jPl08JajWx2HBRH+kacbYRn37yf0PV0IKFtaNwm4oj52mGD1VJTEzCcLtRYt0JlqBgCXfWWLL53XdbiV/wBC8PqnKCwmWsG4KWrMCSZcHiLVuvLqamxli2dBGWrQjBjp1R4hcCLEExd44fRth/yfcqL/YlnHBOasOHLxWTgajR7HzVD0mKj1c+lb44pb9eT1i6hSKlyDmqfIrfpujDZ74rhk8rLJ95j1QFJSkIeckkw3eKRTLL7EWh0NoGgfE3kZchL/J4L/MKYgLsCmeh0NKH67YryMvk2zNu4uJm92JdMnWHr8HFNF4oMuMKwsLYY8t7NQinsPBhxTpXrkBMkX3EQpL8MTS6TsDuy7nIYtvuZiLv8k54TFmE08L9djvwJITieSie59XzCHOVF8iU/6yKx2N04bSfFaZcg8H15LyTqKenT5/hrWZv8TU59k0p6yVhZvbib3E6d+6Emzdv8bXKkUjeFi+IqbYAeZ5u+vriePMmGq+LPSgaN9YQE2k+M6aJvWvK2z75xBDvv/ee0m3lbXbD5T2HlG2rbPvqK3vxmHVdesw6hLAvIIYaC/9XoqsxHLoC4QnzEbUsAxZj7KGvZFaq1h0HC//fghtFyxLculFYk0JDG62E4+BOY+gWGS5q0jIfNzLy0UyzdC/H8klFSFfhIm9kdLELw3wx0SpBO52635O2uqWl/QRPL294CO2GsMw+H+bPmy32tmNtrIsjMjIycOHCJbEHUlXahk2ROHvuPDIf3MfPP1/Fn3/+Ia6zuLL9FY3JzX2sdFvJlpdXvLCnudnnCFw8Xxy+wnosBiyYgy+Hqa7XlHIZOOhpBaeTreGx6wruJa6AyYMQmBjML0xicKm+kxByma8QlaPhHqTG0XCP4sM9SNlouIccDfcoraaHe7BupTaDrDF3zkweAX788SqCV64uV5d89hjx8UexetVyHnk+1t2/d6+exbomx8cfhs/MOUi9eFr8hrwoVQz3+OYbNjcPqaqJE11e6nAPhVGjx6LpG03FuigffljxLvqqeA5V7fauzNVr1zHCgX0bL1cXhnsYBh7DgdHthUAW7qSm4UbievgsE96XHNbg8Er5lNhFh3AoEv3p24ahgxt7/zJH8JkdcO0o/7Kj2L7v8uGiLRfh9DZ36DdOR5TbADjtyigYZiLfPxYWK88jZlw7ICcNkdOt4JZojMjECNg3iq7UcI/U1QPQxzcdHtEXEGjFxqkegdRhGIIwB0mHis76IUfDPeReNNzjUW4uwsM3Yuu2nTwiH9bVsWMH7NqxmUfkHL5yRtqNNDx9VqKwSSX9cvMaXwI+0isxXkdFiv7etmzdgWXLQ8TledJZGGrLkm7Av//+W4HhHnw4s+kaXI91LFG0lfWkYEOZ3eVDp34KRZ++ftDdcKXwy7dT89Fk4BK47s9EsJliOBWf2a6H8Hd1XN6jWMT/pp87hJuUD0tSEFKTHj58KOvctbfsj3v3eKRuEz5MxJ9X0YQ3W76FvMjxH04U+90lfp/Mt5SmeF0pWkjoWr5F/YSv21jsZ7l37z7fUjU5OX8XO+6K4FV8i/rZsDGy2M/y++93+ZaK8fbxLziGQR8jHi2tR69+Mum8RXytcuxGjJYlH/8/vvZ87PmcOXuer8nFxSWI8f/++49HCpV6n1lB7zPqbE3Yepmziytfqxx2f3acylLFc2CvYfZ6VKUrV68Ve63v3RfDt6jGzFlzC44tXATxaMX0Mvis4Bgz/ebwqBIpQTINTc0SrY2sm+UkWWB0kux2Lt9PcD/aQdhmJdt8kweYzIMyV3afUVGy2zzElNo3PUrm2rtNwWO0d50ksxduLSIU98qWXQpzkLXn21lr3dtZtvJktnzz71El9i+vbNn3i4cWO277USGyhPQ8vr24q1evF/zeWIves59vqTp2vJLvqdWlqq/72Ni4Yr+HCxcv8S0y2fYdu2X9Pvu82HZF27Z9F9+rEIv16WsifkZWpa1aEy4+Rqv3dMV/R61mzcV1Fle2P2u//vqbuM9x4XNP2faSbf2GzeL+CorP+SNHvpPt2RsjLh8UfjfMkydPxPXDR78T15/vtCyQvf4GRRb7O5G7L9s9ir02Z8q+L3hZ5snyirxEsw5OEra3kc1NlgcVf18rV82UtRaOa7iq8N9H8Tftc0z5a5yUHw33IIQQQl7g1VcbIS+/eFfUiurWTR/fffc9Xyvb3r0x4q1u6w/EW4XHj+WPX7IXBSFETRl4i8M9i7ebuBi/Bj7DjQuGWjKlh0sKmtsgjN1nm7z2lEKpfVvbIezMzYKhmtfD1mC3cL/CXhFa0Hfdieu5fKinsE/6mQh4fMKHeujYldi/vLRg4rsP17MLj3t9mzssWtM3zBXFZuqwd3AUhz6wGTyKatv2YzRq1EgsNlkSi8lr1LxbpTZl0kS88cYbaNH8bei8q4v33/8Qmpqvi3Fl+ysa8/Y7wn2UbCvZtLULhxaFr9sk9pYMWblUHFLJhnmwYWuz/KVIOHyU71VdNMQaLtnXknF4mx8cvLbAcPpauBkUf91qWc1BpKcEqb5DEaS6zmKEo+EepMbVtuEerFseG1dXXViXtE2btvA1Gu5RESWHexga9i7zNfPvv08Qn1D4wUXDPUqj4R6lVWR2D9Zdlj1OZSm6ALOTLtP+xjxaGuvubGjQWyy2WZTfLCm+/fYYzirpfl7V4R6kdlHFUAuXsW7o1bsHJrmO55GKoeEeqhnuMXCgqXhLyufbbxP5Eg33UGCvoaK/FwVNTU3x73vMmJFYumwlovfswzgXJ0ycOFbcvkY4j4iI3AbbITbwn+UtxqoiKem48Lzm4dGjR9DS0kLA/NkwKWMILlPZ2T0mTnARPuMjERqyHEaf9eNb5dgMJkuWBmNJUAC8ffxVP9yjIA+RgcO+Lgi5lo/0xHRoOM/BrkAlQ68kyfDtao0QNoTppjcMabiHylCSgtS42pikYB8mbm6VO5F7EUpSVF7JJAX7sCrrQvTJkyfi9FQKlKQoTVmSwsT4M76mXs5fuFSjSQr59J+nhe0F5eYqhV34HT16DAvmzUaXLp14VO7SpcvYtmMXLl5MRdSurXj77RZ8i9xnxgPxdosW2L9vF48UoiRF3UJJirKpW5KCVB4lKco20sEObq7joK3NypIDV65cg+c0b2RmPhA+y14XYyyZ0KaNbqmps6uqvL/LyiYp2N/dqpBlYvFeZTZHbsPWbbuEnzWzGpMURfy0HrY9puHwuH24t9IcT0rUh8lP9EN7m1DA/xjSTZMpSaEilKQgNa62JilUeRJV1IsKZxYrwCOSoL1Re7Rsrg/7qR5wMii8OE0JbAqTgOe8kb5AVe9f06hwplx1JSnqkupOUhw4eAjSeYtwPOkI3nzzTR6tnHnCSRgb0tFXOAHT78bK6gvvA/f/xOEjR4UTyg+F1+0kfNLHQIwrXL+RBjv70VixLFDpN7OUpKhbKElRNkpS1B+UpCjN2OhTMTnRqZPyopXs776oqvz9lqW6kxTsfEej5Jy5JbAvAP/44145kxTpiLTpDLe8Fbj47QSwErWF+DYI22JLblNIR9TIznCK9UZC9hx0iCmepADykeTfCZYrhfcjf0dIA5ZQkkIFaGArIbWE08o4cU7yhPgIBLvaQR+xcDPVg8myVPkc5gJJ10UIDOgGVc5aTgh5sSGDB4knXCGr1vJI5c0VTrxZTwkLi4E8Ivxtt3wHwSuWYNeOyFIJCiZMuGBk43+p6zghtV/jxq9BS+vNWt8aNWooJmKUbasNrb56/PgfvlToI702WL50MVavWlFmgoJhSYmiTd2wn7OppiYaNWz43PZ6kybivuXTErrs+4BTqUh7II8UeHAZKWwkTeuWwl5AduxkNGnaFNJT4tYCebnC/8xaQ7eRfL04DZjMjICHJENMUBDVoJ4UpMZRTwrlPSlKZ13TETWeTRMGSBNvwqf0dUuFUU8K9UA9KSquuntSMEOG2uPXX3/HhXMneKTmsH+3T/oYYtnSRTxSHPWkqFuoJ0XZ1KEnhbqo6mtEnahTT4rdu/di4WL5xW4TDQ1xOLKz02hxvTaorp4U1Sn/whJYGM1HioE3dodPhLFEOAnOvoR1M1wgjdeFT/x+SI20gAdH4GUwDOH6K3Bx5wS018jBjc1esJiaDJPNxxA5XDFlb/HpgBnFsI8MYZl6UlQdJSlIjaMkRXmTFIJbW2DZdTKS/I8hz9cQqeHW8I03h3S/I+77DkX4T/YIjJ1QOD/zrWi4eW4BRq9B2PBmwv5ecFoajRvsHbONI5z0tyCy6Li7nFSE+05DyLYUpLP7tzGHR+ByBFrJR+yJj3dCF5IHhxF1PAMShzVICnMsI5OsepSkkFNlkiI5uW6ecPfo0a3akxS3b6djsK09TE2NsXJFzX1bwoqhBSxcgqOHY8t8HVCSom6hJEXZKEmhOpSkqB6qTFIM+sJKLKLcokVzcb02UMckBZOduATOnvNx+BYPCCQd7eAVMAcTzXShOAPP/2kLvEbNR+Q1dvIskBjDQ7oIvqP1wSqAlJWkKBz2kUFJClVgSQpCatLDhw/FuY3/uHePR16u6pjHvahHubni8RVt2fIQvkVOPt9yWXMqn5bNZXM728rndj69uHAuZ/m8zZqyuSflezKXgvsKsUmyA5ky2e2tQ4VlU9ncgzdkWXl5stsHvWTG7FgFc0Ffkq3sL6z3nyc7kJYtkz3Nll2KcBbnfFY8F/njsTnV18kSkg/KdsfdltXkzM/HfzhR7HeX+H0y31Ka4nWlaCGha/kW9RO+bmOxn+Xevft8C1E1bx//gt+zQR8jHi3bXOlCmXCCxtdqRp++/WUTXKfyNeVKvc+sKP4+Q9TLcPtRsk/6mcqWLA3mkYpzdnGVrQlbz9cqjt2XHaMqquPz9crVa8Ve63v3xfAtqjFz1tyCY/fs/SmP1k1VfY2oE/bvyV6PNaGqr/tdu/YUvAZZ623wmWxz5Da+9eUr7+/yv//+E/e9fiONR2qJ3GxZVjZrzz+jzRP3yZblPeUBUqOoJgUhtVwT9r9n4mIx2mZ28JEAQcdSeCQVSdGpkIyzgXHzVBwMOwLYToSTTTtoa2hA12YuvIr0Fsw/fhDBZyRwne6BwW21gEZa0HeeA6kpELI6St6zQmQMD68JsDCygb1VYaaZkPqIfWv7zjtvw7h/Ya+d6jRylDOePv0X68JCeYTUdezb7evX0/DnnxnYum0nxjjW/W+5CSGFzM2LD8vMy8/H8hWh+NLuKyR+X3ZvP1JOmlrQ1mLt+We0GuI+WtCood7DpDhKUhBSy+Wx/yl7g9QwhMloCRB4EEmssuaZIwi+rA8ne2NoZ9zBxcuAfqfWYiEgOS3oG9nwZeD+3RvIYPNALxsJSxtr3iYj5Kqw8Wga0gsKk+uj/Qd8kRAiFrdkQ2e+sPmSR6oHm06OTSsXvDyIR0hdt33Hbpw9dx7ZOQ9w94903Lv/Gy5eShXjhJD6LS3tZ3h4zhCnxL55s8iYBULqIKpJQWoc1aSoeE2KLP9jSGI1KUoWvrwcij59/fBJ9E0MPtMXlkcdkfTtHBjmxsJJb6Sw/wlcnFJQsYI/lq54f91d1ugwFfDZ5g2TUkMdtdHBQB/pK19uoU2qSSGnqpoUpLSK1KQo6scfr2K04zi8+24rxH+zn0dVx22SJ/7vxEksXjQfX1hb8GjZqCZF3cCSEUFLVuCXm9d4BNBr0wF6H7WBzrsVq7ly+fIVaGu/iQ8+qFyW+ddff0V29t/o2rUzj1RcTk6O+Dw++6wfj1Rdbm4uLl5M5WtUk6IqqCZF9ajqeWXJ85myjBvriEluE/Dqq6/ySM1Q15oURL1QTwpCaq18pOxcjyQYwtZMX/kwi67GcOgKhCfMR9SyDFiMsYe+phCXtEZ3IX4jJU2sMiyXj+upsXwZ0Ja0E/6fjHwtQ5gYGfPWDU1upiPnVS00fglJCULURZcunRAeFoq7d+8KJ5NmSL9zh2+pmsTEJHxu9oWYoJjpO71cCQpS92hovC7eNn5NA6+88gp0WrWCftfOFWpNm2pCIpEo3Vaexu7LjqFsW3mbXht5VTll2yrbPv5ITzwmIfUF+9Klf39jvlZo46YtsPpiKGIOHOIRQuoQsTIFITWICmcqL5zpuf++vJDP/Ruy08kHZWGupmLceG6SLIvvW7RwpoK8QCaLD5WFXS3cID9uG5nnwWxxPetkUPHCmXmnZYGfCOttZsoS5LvI7h+ZJ+5jvPi0WCBT2ePVJCqcKW9UOLP6VLRwZklpaT/LTEwtxPv7zZLyaOVMdHMXjyOcdMrOnbvAo+VDhTPrjgEDrcV/w46de4i3nxkPlGVmPuBby48KZ1Yc+z278r9D1qhwZt3B/j3VpXBmWeczR45+Jxtsa19sm6K5jHOTnT9/UdyvurHHU+vCmUQtUE8KQmqJ8NF6aKWjg1Z6PWFi5YfdufoI3nkeB6TG4pRHZdG1coQTW7C1h0XHwu4PkuFhSArohsMjddCkaVO0GpWMDg5FMvEahvDZtRMe7aJgq9NU3Ed3aDSaeUYgfKohFcgkpBzatv0I3x9LwPAvbfFNXDx69u6HzZu34bff7vI9nu/+/QyEhq5Ftx6f4PTpM/D0mIy4Q/vQs2d3vgepb747+o04tKNhw0bo3asnjicdRfPmb/GtpLoIF3j4arQL/u/EKR4hpHYxGzgAB/bvhof7pFJDPM6cOQdH5wmYv2AxMjMf8Cgh6ouSFIS8ZJLhO5GXm1uiXUHSthVwZTNz8P0YQ1+2rUR9iOY2CGP32WYHXR6S04Kh5z5cz7yLe3eFdjUOYRviit+/tQ0C428iL4Pvk3kFMQF2aM+GjAiUPh4hpJQ5s2ci+fsj6PtJH4SsWgvrQUPR99MBGOM0Hi7j3Io1e4cx4nhjtt3CajAiIrfC3OxzXLpwCmNdHPkRSX1mM9gavXr2QMSmMB4h1Wnf/gNwcpmIu3f/4BE5j6mT+BIhtce4sU5iLSTbIYN4pNCevTGwsrZF5JbtPEKIeqIkBSF1nQafaul5iQbFdEyUjCCk0rS1tbEqdLmYbJgxwxO9enXHo78f4ZdfbuLGjZ8K2r17GWgpeQeGhr0wedJEYf/TCApcwI9CCKlJbGpH6bxFfE2uWbNmWLs6GKNHO/AIIbULK6Y9f95sbNqwFj16dONRuaJTln5PU5YSNUWze5AaR7N7jMKXw1RXibwu+/W332l2DwHN7lF9Kju7R21Ds3vULWvDN+Dc2QtV6klR1ZkbVPEcquPz9eq16xjhUNjjqLKze+Tk/A3/2fOQlFx89o7u3fWxcMFcvP/+ezxSd9HsHtVD1bN7lOd8hvWgWBu2XulQD5Z009FphSYaTXikatg0yTS7B6lulKQgNa6+JylI5VGSgqhaySRFi+al5uNVGyypp0BJCvVGSYqyqSJJkZr6I2bNnoc7d37lETlbWxvMl/rztbqPkhTV42UkKZi8vHwxUVHWUA/W44L9/A0aNuSRymP1cihJQaoTJSlIjaMkBamsiiQpPvu0L19STz/830m+REmK6lQ0SVGXUJJCvVGSomxVTVIcjP0G/rPn87VCXp5T4eI8mq/VD+w1wr4VV2fsYrk8r9GXkaRgj1cZuY8ewd1zBl+r2Jcuu6P2iomKrKxsHilkYTEQk90mQFe3NY9UL0pSkKqgJAWpcZSkIJVVkSRFXUJJiupDSQpSG1GSomxVSVKEhK7Bxk1b+JrcG2+8gYUL5qB//yKzX9UT7N9H3YWFbaiVSQr2vCrr2bOnuHjpMl8rX5Li5KkUMTnBegmV1LFDe0yaNAHGRp/ySM2gJAWpCkpSkBpXH5MUe/fG8DVSFa1bf0BJCqJSLEnx4OFDvlZ3dOjQjpIUaoySFGWrTJLi8eN/xPoT3x37nkfkunTpJNaf+PDD4nNjEfWgSAbUtiRFVZU8n3lekoLNSMOSE7GH4nmkkKamJiZPmoDRo15OAVhKUpCqoCQFqXH1LUlBagZ7XQ23r5tddbdv3URJCkLqEUpSlK2iSYqrV6+L9Sdu3rzFI3KDBlmJCYpXXnmFR4i6qe9JCla/aq3w87NkQEn29l+KQzuaNSs6kX3NoiQFqQpKUpAaR0kKQgghpGyUpChbRZIUcXGHxQTFf//9xyNyU6e4YcJ4Z75G1FV9TVIcPvwt1oStR3r6HR4p9MknhmJyQl+/C4+8PJSkIFXRgN8SQgghhBBSJ6xZuw6+fnOKJSiaNGmC5csWU4KCqKVr125gytRpmOEzq1SCQufdd7EwQIr14atqRYKCkKqiJAUhhBBCCKkTnjx5gunefghft4lH5Fidlh3bNsFs4AAeIUR9LFkaDHuHMUg+/n88UmjiBBfEx+2HzSArHiFE/VGSghBCCCGEqL20tJ/x1eixOHLkOx6Rs7Q0w45tEfj44494hBD1sXffAWzbvouvFbK0GIhDB/dgymRXNGhAl3SkbqFXNCGEEEIIUWssMfHVaBekpf3EI3JuruOxJDAAr776Ko8Qol5YjYqiOnZsj9WrVmBJ0ELo6rbmUULqFkpSEEIIIYQQtcVmOWBDPNhQDwWWlAgKDMAkt8oVDiWktmnaVBPeM7wQtWsrjI0+5VFC6iZKUhBCCCGEELXEZnhYvWbd/7d3J3BVVG8fwH+mJSYFZnU1ehOlBMvAJUGzhDAFtCA0ATUFzAXcAFNAJCUjBTUBN3DHJRVJEUpRSgL/lUKpYZpgaVCR3tKEwqDUeGfmHmRXdll+3z7HO/PMuXMHvBLz3HOeI/Y05Gkd27dtxDCboSJC1LQ5Ob6OAx/vxbg3RosIUfPGJAURERERNUnyMqMlDRliqRTIfLqHkYgQNV3ykqLbtm7APD9vdOjQQUSJmj8mKYiIiIioyZs00RXLlwUpS40SNWV6evKSoguUJUV7mRiLKFHLwSQFERERETVZrVq1km7oAjBzhruIEDVt8tQO21eHiz2ilodJCiIiIiJqkrp21VfqT9i+OkxEiJo2eVoHlxSllo7/AoiIiIioyXnppUFK/QnjZ3uKCBERNQdMUhARERFRk+LqMg4rQpfhgQceEBEiImoumKQgIiIioibjnQB/zPKaIfaIiKi5YZKCiIiIiJqMEfa2YouIiJojJimIiIiIqEl45ukeYouIiJorJimIiIiIiIiIqFFgkoKIiIiIiIiIGgUmKYiIiIioSTjz3VmxRUREzRWTFERERETUZCx7P0xsETU/V69exbVr18QeUcvEJAURERERNRlbtn6ANye646effhYRoubFZvgIREV9KPaIWh4mKYiIiIioSUn96jicxjjjUMKnIkLUfMijKQIXLcEb49/E0aMpIkrUcjBJQURERERNzl9/5WH2HD+Ehq0WEaLmJS3tW0x2m4F5/gHIzv5VRImaPyYpiIiIiKjJ2rhpC6ZIN3K//npRRIial7iPDmDYKyOwdt1GESFq3pikICIiIqIm7cujKcr0j8OJSSJC1Lz8999/WLV6LV61G4X4g5+IKFHzxCQFERERETV5V6/mwNPLW7mRI2ou9B7rLLY0MjOz4O0zD9NmzMJ336WLKFHzwiQFERERETVJAQv88Fjn0jdx8pD4aTO88Ntvv4sIUdM1bJg1pkyeIPaKHTnyORxHj8eSpSHIy+OSpdS8MElBRERERE3Wrp1bMNjSQuxpHDnyhTL9I1m6kSNq6qZPc8NHsdGwth4iIsW2bd+JYa/YYxeXLKVmhEkKIiIiImqyOnTQRWjIEulGboqIaPz++2VMnzELEWtZbJCaPn39Llga/B5WrVyOp3sYiaiGPNXpPS5ZSs0IkxRERERE1ORNmfwmVks3cI8+8oiIaKxesxYeXnPwx9WrIkLUdJkPegFRu7bCe44X2rdvL6IaRUuW+nHJUmrimKQgIiIiomZhkHQDJ0//kG/kSkpMTIbTaGd88eUxESFq2sa9MRrx+2Pg5Pi6iBT76KMDsBluzyVLqclikoKIiIiImo1HHnlYGRLvNuVNEdG4ePES3NxnYsPGLSJCVPe++voE1kSsr3HbHLlNnOnO5KlO8/y8sW3rBgwYYCaiGoWFhZolS21f55Kl1OQwSUFEREREzc60qVOUWhUdOnQQEY2wFavx1py5+Ouvv0SEqG6Fh68XWw2jl4kx1kWsxHuBC6D32GMiqpGZ9ZOyZOmL5kPgONoZE950r7MmJ2SI6gOTFERERETULMmrfsjTP55/vr+IaCQkHFamf6Smfi0iRHVrqtukGjVXl3HiDNVz5cofSk2K7F/L16Jo1eoeGHbvDnPzF/Bcvz510r76+rg4O1HdY5KCiIiIiJqtxzp3wtrwFXhzgrOIaPz08y94c9JUbNn6gYgQNU3ye3jYKyOwO3qviBSzs3sFh+L3YcP61RUmRWraiOoTkxRERERE1Ox5ekzDsqWL8MADD4iIxrL3w+A7923k5+eLCFHTkJR0BKMcxynv4b///ltENXr3MsH6dasRuHA+OnfuJKJETQOTFERERETUIlgNfVmZ/mFq+pyIaOw/cEiZ/nHixDciQtR4XfgxE7Pn+GGGx2ykp2eIqEbHhx7C2/6+2LplPfqb9RNRoqaFSQoiIiIiajGe+L/HsXH9GjiPHysiGvKNn7PrZHywI0pEiBqXmzdvYsXKcNi95oBDCZ+KaLHx48fgwP69cBg1QkSImiYmKYiIiIioxZn9lgeCFi9Eu3btREQjKPh9+L/9Dq5fvy4iRHdfbOzHsBluj/UbNotIMQvzF7E7ahvmvOWJ+++/X0SJmi4mKYiIiIioRRo+zBq7dmxBnz69REQjNm4/nMaULrRJdLdMmjwN/vMX4uLFSyKi0a2rvlJnZeWK99HDyFBEiZo+JimIiIiIqMXq1k0fWzavw9gxjiKikZX1s9giunvkkRPHUr4SexqtW7fGzBnuiN23W6mzQtTcMElBRERERPXmWRPTOmtyccv64uvzFl59dZjYI7o7Dh06LLYqJi8pGr8/BpMmuooIUfPDJAURERER1bl+z/XBt2mpddrklTmIWiIuKUotCZMUREREREREjZBc2HXe3DlcUpRaFCYpiIiIiIiIGqH8/Hxs3LwVe2PiRKR5iv4wBkOtbWH58jDlsSrt0Ce3nxqjkYJgbW20s92CTBEppkbUOOmYth+SCkSohIITS2AhPddmc/Ez1dFjpP7yc0o048GwsR0D321pyBH9qHaYpCAiIiIiImqkLl1SY0FAIFwmTEFK6tci2vzIq5fk5ubinnvuQceOD1XY2rXTgpaWVrmVTurctRSEzV6IFLFblkvofsQfEG2VNxyfzsUu94HoFZCMCvIdVE1MUhARERERETVyx4+fxMRJUzHP/x388ku2iDYvPt5vITv7V7wxxgk7P4gs1WZ5zYBa/TueH2AmeteXAqSs9ENAlgoqESlLp5sZLAaZi2YFl6AdCBsHqJetRWzz/KtpUExSEBERERERNQLt298vtjTs7W3FVrG4j/bDZrg91oSvR2FhoYjWv+xfL8LC0hqm/c2V190VFS2O1B2HUSMw13c2fP3m41DCpyIKHD2aAvepnnB0GKkkK+pTQeJCOAaqEBLug/4idmc66NRFfsxF/j9KgGqBSQoiIiIiIqJGyP61VxG5aS3MTJ8TkWLhEeuVZEVs3MciUr9cXCfjyh9/4I8/LqOgIB+ffJKIpKQj4mjdGTPaAbPf8sDsOX5ITEzCkf99AfdpnnBxHgsvz+miVz25cghzJ0XBYuUCuDyjK4JVkJuMeLlsiLE5ejymCVHNtSpsyPQbkeTq1asYZGGFhENx6Nzp7i+h9NXXJzDhTTdlaTMiIqK7bY104/H1VyewaWO4iFTfhDfd8Vy/PpjqNklEqqcurqE+nPnuLJxGO4s9IGCBH0aOeE3s1Z6ffwA++uiAst22bVt8nfo/Zbs65CH5VDf69u0ttsqTf38LD19fpffosyamUr8IZVnc+lbb3yvl95/8Piwir+ohLz8qi4vbryQmfsn+VdkvyfjZnhg50g5P9zASkbo3ynEcfvvtV/z5l6Y85JNPPo1nevRQ/h2W9d9//8FR+re6NDgQ+vrKEIPb+uTTz7Bu/aZS37eNm7YgNGy1sj1t6mS4TZmobP/777/o2+8FLFu2GFZDBiuxysmFMwcjwHI1zsY5Q19ENeTCmQZwiZmJ+MuLYKGlRuyk5+GB+TgY6gyjnN1wMpyA3JWnEe+qeaZcOFPfNQ6qp83Ro8RtzKUzyUhXm8Enbq/0WjoiSjXFJAU1OCYpiIiIKsckReWaQpKin9kgFBSwdF5tzX97Lka9bi/2ymuJSYoicqIiPGJDg071KPLD+e/EFtCtq5FS5LIulfy+JSQcxltz5qJVq1aICF9xqxZFfSUp9D+aAAtf6efKJ2vg0k0LyK48SWE9cREsbp1MC52eNoTRM2Yw0ZOeR7XG6R5ERERERERNhLvbJMTvj4Gd7XARKa1169bKyINT36TUaZPPq/eY5s78gQd0lASFnPipqO83J44q/aKjtlV4vGx7299X6V9k/4GDSoJCnvYxedIEzJj5Fr766rg4Wh0qqCylh/x/Klh1Ix/5udKDpT46aaUgynU31EhDlOdI2EjfW5tJwTgmHU4KeRM2M3aXWsLU0HYyPDxnijYZjkPNmaCoQ0xSEBERERERNSF6eo8h8N0F2Lh+DZ7rW3qEyM2bN7F6zTq8Yvu6crMvj0Soi9andy+0a3c/njR4GqpH9ZQlQeURKhX1lZuignhlrYhcY8N37nz4+rwF5/FjMX3aFIx7YzRmeLyFk9+kiV5V1Qn6xtLD0TRkXNFEbrlyCimJ0mOXTlIvI9jJy4luXg6f2d6aNskOPaTDFg4e8BllgmpUqKBa4nQPanCc7kFERFQ5TveoXFOb7vHqKzYYOHCAsk13Jt+YFuF0D42KpntUJGZfnDIF5OLFSyJSbEB/U2X0Re/edz7PnWz/YJfYAt4Y6yS2ypNrUpj07o/o3dthZNhdRCsX/WEMFr67GAvm++GdhYvw9jwfODiMFEc1lr4fitjY/VgZtgzjXSZVcboHUHBiCawHLUSKqTd2RUyBuUoLyPkGa+dMQMABffgc2IuAQRXUkbjNdA+PuMsIsuTIiXojJymIGtIff/xR2NO4X+GvFy+KyN2V+tVx5XqIiIgag9Xh6wpdJ7iJvZqRny+fp6bq4hrqw+kz3yn/zy5qH+6JEUfqxtx5C26du2+/F0S0ep4zffHWOeb6zRdRupMzZ87e+r7JbXf0XnGkYvLvb1V9j8rnk/s3hNr+XhkXt7/U9+HEyW/EkTu7ceNG4cpV4aWeX7IFvPNeoVr9m+hdv27evKm85tn0DBG5Pfnvu+g69+yNFdHyFi1eWmj+kpXS72DCpyJ6Z1cPBxe+9mz7Qq32xa1LP9fC0EM/FuaLPuX8ElXoKPWz3vSjCBQWXto9Wnmuz+FKn0V1gNM9iIiIiIjuFnUywtwHo4e2NtqJpm86AWFH5cny1ZSbgdjoFGjWXqgjN9RI2nao1Hx8apzkmhHTp7lh/0d78MpwGxEt9uGefcqSpRs2RopI49PDyFBZ1nSmx+wKmzxSRO+xzqJ31elaeiPmVB7y1dm4mC23y8hM3QSPofqodDyEngN25eXdGkUhU43agXwpxlEU9YtJCiIiIiKiu6AgdQksDIYjJMsMPgeOI1O6eco8sQe+fbPgO0QPFsvSKij2V5k0BPfpC6dt6XWYpFAj1t0ANu7JyOSCJU3GE0/8HxYvegfrIlaWmyoir4wRtmINbO1GIf5ggog2Dg88oI1fpH8DXx8/cdv2Y2aW0rdG2utAV0duTDI0ZkxSEBERERE1tIJkBI1eiJShixC7cxFcBhlCJd08qbpbwS18P5J8TZASMAJhVS5tUCDnFOocV1NtugYMMFNqWiyYPxePPvqIiGrIN/rePv5wn+qBU6dOi+jdI9cf+fLzxGq1qtSjoKaJSQoiIiIiKmXnzmgcP3FSKU5H9SMnMRbBasDFxRkm5Wr2acHM1QN2UCNgxyFlZERaxHDY2K5Ayg1ND1lxTI2Dvn5QBvEnLoWL7TREZaUhwnY43INWwHeYgZhKYgCbwORbIy3UB/yk58t9RUBSMpYWMQFBX8rRKHiNGF6NhAk1Jq+PtFeWLJ34pouIFPv8i6MYO24CAt8LxpUrf4go0d3FJAURERERKf76Kw+9+gxATs5V/HH1Mk6eTMOwV0YolfqpbmWcWif9aQ6znhWsKiDTM4W1pfR4JANyDqEgJxlJiZeQXyJJURxTwWKuNxzloOVMhG1bBDu9AuQmJiMyMAyXRu3FxZw8ZO51Rn7QcFivEss4XsuUnp+J/JuaXUWJmMm45fAwk4N2CNi8A87yUo7UJN13333wmDkVcft2w8Z6qIgWi9q9BzbDX8PmyG0iQnT3MElBRERERIrNW7bh5s2byMz6HpcvX0L2r1n4+edfkPrVcdGD6kYuriorRRqik0oJVKAd2sn5i3OXcLUKUy60dHSlZ8jaQkdHB1ptlB3AfjECXE2gK+2rhnojwBNI841CUlWmcbSXztla3tBSzqnLafxNXteu+lgSHIjw1aEwNu4pohr5+QVYHrIS9iOckJBwWESJGl4reYkPsU3UIK5evYpBFlZIOBSHzp06iejdU7Sedb/n+ooIERHR3ZP966/KiAYjw+4iUn3pGeeUwnJ6jz0mIlVz4cdMXLlyBT+c/07Zv+eee9CtqxG0tLRw7733KrHK1OZ6q+ratb/x3dmzYg8IWOCHkSNeE3u15+cfgI8+OqBst23bFl+n/k/Zro5+ZoNQIAo5vPqKDRa9946yXVZKkDYsAs0Rfmo/XLqJYCmZiLTtCffL85GU6A2Eyv1nIv7yIliIZIHmHEWxFARrD0aA5WqcjXOGPjT7Mf6HkeRrdmsFA3X0GOi75iqva3O8eLvoGkoed+mmRtQ4A7jElH7d+vDdd+lwHD1e7AHz356r1CmojPz7W3j4emzaGC4ilXvWxFTqFyH9rtdHROpP0e+V36bVbG6M/P6T34dF5JoSZYtf1iV5BEV4xPoKp3qYD3oB7m6T8MwzPUSk6uTRVya9+yN69/YG+dlAzQuTFNTgGmOS4quv+QkRERE1Dl9/dQK//noRtnbDRaT64mL347HHOuO5ftW7Kfvhhwv45JPDuHxFjZycK1A9+hgeeEAXfXr3UpY3vJ3qvlZN/P777/jww31ir2knKTTJgDi47c5GyLAKpnxciYN7lzGIdN2BiyttkVEqIaHpUpUkxa6gL3ByevFNbubOMegxiUmK+tLUkhSy/Px8hEdsqHSqx5jRDnB3mwhdXV0RuTMmKahW5CQFUUP6448/Cnsa9yv89eJFESEiIqIiq8PXFbpOcBN7NSM/Xz5Pdd28ebPQ0Wm88v/pp5/tqzwuD10pjt59p898p1xTUftwT4w4Ujfmzltw69x9+70gotXznOmLt84x12++iFbg8sFCz27tC7VeXVt4VoSK5RceW2xZqNX++UKfwzlK5NhiqW/7uYWf5Su7kpzCeI+SsW8Kg5TzRRb+qBw/VhjUXtqfHlt4VdmX5Rd+Nk+KdZOek1dYeGn3aOn5wwo3nxeHJd+sfL5E7FLhvollX7d+nDlz9tb3TW67o/eKIxVL/ep4lf+dyOeT+zcE+XXk16upuLj9pb4PJ05+I47Uv++//6Fw1lu+pV6/qPUfYFG4ZesHouedyT9L5OedTc8QEaKqY00KIiIiIlLI0zt27dyC6dPdYNrvOaxbuwpeHtPFUapTHa2weOd8mCXOQm/LhYg9lysvIooCdRqifEfCMTAFZrMXwddSM8pCpWcl/bkCsQm5yn7OkbUI2qBsCp2g/7z08Isambmacyk2eyGo6DlHVyAgFDCbZIf+7QEdlRFUSEZUQprmtS/sRkiIKKqpUKGTgfyYC/Wv0jlLFO2k8uRpWgHvvKdsT3abgX///VfZbiqefNIA7y9bjFUrl5eb4pF37RqWLgvF66PG4tPDn4koUf1gkoKIiIiISpkyaQI2b4zAgP6mIkL1QcvUG/tSN8FDdzec+uihg7Y2OhgMhE+iCu6bv8C+AHMUDbDXHzEfIfb6iBijpywn2nl6Fiw8zcVRmQomQ62gOrcQNnojEHlOhIf2Qoa7eM6QrejgvwORMzQ1KrQGjUfEdHOcnT1Q89pDtkB/nLPmeYLh8zNhhi1wMdbD3MRbqQ8qIycnB5Yv2+Cnn37G9ev/4tixFLxoPvTW1J+mRK5FsWvHFsz1nV1uikfGue/hNcsHMz1m42x6hogS1S3WpKAG19hqUhARETUmayLWK3UpqjLXvjIT3nRXakRMdZskIs3Dme/Owml08U10fdakuO++e7Fh3RpluzomTp526xP029WkKKcgFzn/yBttoatzm+IP16R+N+TVPHRuFcMsrUC6MdaCVlGNCs/9uBpghoJr0snb6EC3vehWknhtrfYlVgUpo+CafFzs1IOyNSlcXcbhJYtBYq+8dOkGOWbfR8qN9J2Md5kEP6mfkZGhiNS9XVEf4kD8IWRm/YAbN/6Vvv/t8LheV4x2GlXhkp+V+eKLo1i7fpPYa5iaFGXduHEDa8LXY/2GzSJS2rg3RmOq+yRoa2uLSHmsSUG1wSQFNTgmKYiIiCrHJEXlGjJJIZOLZ1bXP/8omQZFtZIUda5EkiLQvJKERuNRNknRpk2b2xZrlW+C5eVy77TqjEz+O5H7ydOZ6sv169eVm/sLP6aLCGDQrYfydcitqv7776Z0ruJ5NQ2dpNi37yOsDl+HS5fUIlLM3PxFTHOfhB49jESkckxSUG0wSUENjkkKIiKiyjFJUbmGTFLU9+oe9a9pJyma2uoeH+7Zh3cWLkL2r1nIz78Gbe0H0Un1OFavDMGgQQNFrzu7G6t7yI6fOKmMnkhN/VpEinXrqo+p7pNhZfWyiNwZkxRUG6xJQURERETU7JjBJy8P+U0gQdEcjLC3RQ8jQ+g91kW6qTdUEhR9+vSuVoLibvj998tKcsXFdUq5BIU8AmTmDHfE7ttdrQQFUW0xSUFERERERFQL8lSS3VHbYPvqcGm7Nd6aNRNbNq8VRxunzZHbYDPcXhkFUtZrr72K+P0xmDTRVUSIGg6TFERERERERHVAvrmXuTi/oTw2RvISoiNeH4PlIStL1VCR9e3TCxvXr8G777yNTp1UIkrUsJikICIiIiJqaKlLlGVBS7YelsNhYzsNYQmZyBHdZOroMdLx4Yi8IAK3cce+2bvhJL2WzeZMEWgIasROMpCuyw9JXMX0rjl37gd4enkrS4h+//0PIqrxyCMPY8F8P0RuXgdT0+dElOjuYJKCiIiIiOgusfDdgfgD+5UW7usM6y6ZCBnRE70mxUm39hptu1ghKNAO+lVYbKQ6fRtKZvRceOwsv1oENQy5kOvykBUYOWoMDicmiWgxebnXA/tj8PrIuitCS1QbTFIQEREREd0tesawGGSuaUMd4LFyD6L8zaDeOQYe0Zobe11TZ3h4ToaFnrJ7W9Xp2yCydiPANxngzIG7IvrDGKXuxObI7SJS7OXBL2Hvhzswy2sGtGqw3G5dkq/TzX1mtdqhTw6LZ1NzwyQFEREREVGjoQUzz/nwkLZi45KV0RTqA37KNJCorFzEzh4sba9DmtJXuLAb7rbD4R6dWaKvOJYVB98RPcWUEgPYBB5ErjhUJDPOD/am8nQMTZ/ertL5r4mD6kPwlc/tPgY9lON9EXCkqnM2MhHpNQHpo9cgjPUXG1RK6ldwdpmMhe8uxuXLV0RUo/tTTyI0ZAlClgfjKWm7sfjiy2P4+vhJnD7znbLccEVNPvbt6TNKX2q+mKQgIiIiImpMtLqgt630GJOOszekx2uZSErMRP5NHZgPMpK2ZyHmqNJTkRYXhshEfVhb6pfoKx0oSEaA5Rjs6jgTSRmXcTVrB6yvJKPkgP+cA7NgMSYKOhN2IPNyHq5mrIFd1iz0H70FStWKG7nITExGZEIuHDfvR8xmH9g8U7VFTdNWvQn3HG8EeVmhUxsRpHp18eIlvD1/ISZOmoYTJ78RUQ0tLS1l1MSeD3dgsKWFiDYuffv2Rteu+jjw8V78L/mTUm3f3ig8rqeH3r1MRG9qrpikICIiIiJqVNoBreXHAkBOUpSgO9QBPiog+HCKiKQhaXcaVBNtYd5RhIScxFgEq03gMmE8zPS0oNXRDB7+Hii+xcvEvg3roB7qA18XM6i0pBtZPSv4+s8EEqch8ojoJrOfCd9R5rAe5QCzMq9TkYITS+DhC/hIr2dRhf5Ue+vWb1amduyL/VhEio163R7x+/cq9ScaszWrQnD//fdj6nQv/PXXXyIKXLnyB6ZJsUcffQTL3w8SUWqumKQgIiIiImpU8gF5JIScNShLywwW41RAUKxmpYzUQwg5ZQIXR3PoanrckvVdrPRnF/R4osR5jM1gLTblVTcyE6SHtLXwcpBXFtE0+8A45WjK+eIVQCyeMUTVxk9IrqUgbPZCYPZ8eFrqiCDVl4OHPsEQq1cRHrEe//33H1q1aoV779UMXTEzfQ5bNq/D/Lfn4uGHH1ZiNZGUdAR9+72AZ01MMchiqLJfH1q3bl0uUVEyQbEibJnoWVUpCJanKdmKkUGlqBE1Tp7CVPGqM3KizaLMSjia1XO00X9VqQlXGmLFHt9ELmFTW0xSEBERERE1JgVZOCnnCZ43Qo9ymQEtWIyQR0OsQGyiGkkH1kJtbAUb48pSCB2gVeZQO/GIggJ5rAYwbAp8ZnsXt4DVymojPgM7KN2qS30gDAGp0uORJRgtEh8+O+QjUfAaMRxh0jGqve++O4vpM2Zhjvc8XLqkxgMPaCvTJeTWps29SrJiSfB76NOnl3hGzc2WXuP69X9x+col5OTkYIbHbPzww3lxtG6VTFRMdpsBt6kza5igqAWRaCsar1RWmu9UhJ0SO1TnWhVKxDZRg7h69SoGWVgh4VAcOnfqJKJEREQkWxOxHl9/dQKbNoaLSPVNeNNdbDUv1679je/OnhV7QMACP4wcUXfLJvr5B+Cjjw4o223btsXXqf9Ttqujn9kgZclH2auv2GDRe+8o2+XIn7paLoTFytOId9UXQY3MnWPQY1IKHLd9iUh7lfLprb5rLsJP7YdLN7lHGsKeHwjfvs5w2bwFl5Ydx043zUiHkn1fS5+Fzg7rEJCYBx9T+XmSC1tgYzwNUF43V3Oeh1fjbJwzbl3FuUOISAMGPG8FE+yGk+EE5FZwnZUpyE7DsfM5Yk8jPXo4vDY7I+SAAwYYmMFEr3Tm5Lvv0uE4erzYg/LJvzxFoTJffX0C4eHrq/TvRP70f9PGCPR7ro+I1B/5uia86YZv02qWiZHff/L7sMjWLevL1WD46688rAlfh+0f7BIRTb2JlKNJuOcezWfQf/75p/L7tpy4eObpHkqspn69eBE//piFH85/JyLAkwZPo2vXLnisc2cRKU2+xfzyaAp6mRijffv7RbRyl9S/4fz5C6W+b7/99jvs7B2UpEX8/hjpa3lAif/777/KqI5lyxbDashgJVY5eSTFYARYlnmPK+SRFAZwiZmJ+MuLYHHrLVmAlKDhsFifCZVajR4l3vuaf1+akUboswjHjswsnj4l/k17xF1GkGVlSUOqCo6kICIiImpmnuvXp1m2p58xFF9h85F/TY2c3FypZSLtyCFEBYyExaQ4qEbPh+/QytbtNIGduxWweQsiYQWrQV0qnIqha+mIAGMgIGiFZrWOG5mIWrywROFMEzh52Sr1J7w2ZGhCuRmIXDoVXr5RSC9TD6OqtPRMipdVFa23siSqDoxMzcslKKjqdu6KxrBX7EslKGQjRtjeSlDIHnzwQbwwcADy8q6hb98+tWr/93+Pi7OWJscr6l/UZD2eNqrwWNnW5Yn/U/oXkad4zPSYjeekYz2febpcjYr6VJC4EI6BKoSE+6C/iJVmjqCgmVCd8MOUiqZ9UO3JIymIGtIff/xR2NO4X+GvFy+KCBERERVZHb6u0HWCm9ijkk6f+U75HaKofbgnRhypG3PnLbh17r79XhDR6nnO9MVb55jrN19EK5ASXKjVvn2Z1q2wl83UwqDdSYU/5ol+kku7R0vHhhVuPi8CssuxhW7yc96IKvxRhGTl+mZGFbr163brNYzcphY6So/Wm4qelVP4TfjoQiNxXG5d+rkWhn6Zozn8S1SZ/jVzbLF87rmFn+WLQBlnzpy99X2T2+7oveJIxVK/Ol7lfyfy+eT+DUF+Hfn1aioubn+p78OJk98o8c8//7JwzFjXUsdKtsgt25V+JS0MXFzYu+8AsVdz8QcTlNfoamCovD8e79JN2f/ss2TRo7ybN28qfc6mZ4jI7cl/33J/2eXLVwodncYXzpj5lrJ/48aNwiluMwrfGP9m4Z9//ln4zz//KH0PJnyqHL+9Y4VB8vv61chS/040LhXueqPM+/LywULPbt0KnTelF+ZX8N4v/veVX/jZPPnfVbfCoBRxUPyb9jlcyZucqowjKYiIiIiI6ol0Q1VxM/FAzpUrZdp3OBazHJ62/dG5TXFfXdvN0rG9GK1X4vnaVgiVn7PBDp2LYhX17WSH0P99h0sXLiDrwq/4JnQ5tkjP2zems3iOFoxcN+ObK79KxzV9Mv4XDrc+WprjD9uV6V+z1stL/voWYECrio9T5Xz95sNtqgdOfXtaRDS0tbXhPccLurq6+GBHlIgW27//oLJkZ21ZWw3B+HFj0L79g+jW1Qi6Oh3hNvlNWFgMEj3qTkVFMuXpHqtXhaD9rWKaeUq87qkR6zsVMZbz4etwp0KxWrCYuwkeKjUCRi+ptHYF1QxrUlCDq6uaFNevXy831I1qxmHUyCrNF7ybdkV9iPz8fLFHtdHYlx8jaunqoiZFc3Xmu7NwGu0s9hp/TQqqOdakuL3RTqMw1X2SkqDYF/sR3p7/LgwMumLj+jX4Ky9PqUtz5coVRISvxID+RQVJaufkyTSMd5mESZMmYOZ0NxGtmLzKiEnv/ojevR1Ght1FtHLRH8Zg4buLlfoZlRXJvHnzppLAyLt2DWlp39Z5TQr9jybAwlf6ufLJGrh00wKyy9djKVsfpiDRD0a2KwD/w8i0TGZNijrCJAU1uLpMUvR5bqDYo9o49mVSk0hSvLdoidijmpI/DVm65D2xR0SNEZMUlWOSouVgkqJiA58foCQnjI17iojGlq0fKMU0//5b84GOXGTS398Hw6yHKvt1parfy5omKV6yGHTbVTzkRMW27Tvx/vIVVUxSZCLStifc85fj5CeTYSSiGuIYpGNxJoiVkxkqQ1g8I+5PblzC2SMZUHczg4X5FISvdEC7ckVsC5Dk/wxsQqWfR/7OCAhcwiRFHeB0DyIiIiIiokZAXsGmInKRysWLFiIiPKxcgkLmPH4sUo4mK8kRuX35+eE6T1A0hM+SjiiJkMparz4DlARF1XWCvrH0cDQNGVc0kVuunEJKovTYpZPUywh2B/YjfvPy4qV4J9lBXhfFwsEDPqNMoKs8qawS0z4C+WFaXeFICmpwHEnR+HAkRcvBkRREjR9HUlSuKYykCFqyXGxRbRh069oiR1Ls2iX9vrO49O878sgJd7dJYu/uqur3siYjKarrQZ0HqzCSAig4sQTWgxYixdQbuyKmwFylBeR8g7VzJiDggD58DuxFwCAd0buEKkz3KFI07UMtbXMkRe017STFjQLkXCtfaEdLR6d8oZNK+hZrC10d6Vl36tdWB7rVfM8V5OaiaNBfuWur6nVJlPO0kV6/vbLbZNVXkmLMaAeMHesk9uh2oqP3InLLdrHXNJMUH0Z/gHbt2ok9uh35F/qiZbuYpCBq/JikqFxTSFJQw2gJSYp+/frinQXzKl0C9G6oryRFfctJXAJXz4U4eEEEJKqnHeAVOB9ThupXXCSzGkmK4mkfaiYp6oKcpGiyKly6qag9U/hayLHCWwvA3Lav3MTSM3foV53ll/LT1hY6Plv2HDW8rqLlc+YlFT+3iaqrJUj//fdf5TxFbdHipeII3cmy98NKfe/y8q6JI43Xzl3Rpa45PeOcOEJ3MmCg5a3v2+w5fiJKRI0VlyCtXFNYgpQaRnNdgnTnztK/78z29iu88GOmOHr3VfV7Wd0lSBtMXk7h1Ry5NfU7quatWdSksFj2BS5mZxe3818g0k2Fg/6D4RYjD7opVq7vreaD/iUSXpX12+lQuiZspa4cwlz7WThmthxJZy4jPy8P+erTiJmtuS6X6JpdFxERERERtQwHD34CW7tRWLU6QhmdQLXUXge6OnLjDVZj1jwKZ8pTMJQ3m2gqEzh6TYGddCjqi29uTbVQlO1bopV6q1bWr6pTLc6nIUIN2I8aD7Mu4szt9WEdsAgBKiB250FkaqIaVb2uWnJ2nVztRkRERERE9c/KquIaC2vXbcKwV0Yg7qP9IkLUfDXf1T3+yUeu/Kh1l7Jk0uuaSA8xR5KRo4kIZvA4cRn5e8uu09swfvwxEz9eyMS5jO/x80+/VNoyxPGffvpZPLP+LA9ZiZPfpIk9IiIiIiIqKzv7V8zzfweTp8zAN2mnRJSo+WkWSYr8a2rk5Obeapmn4hDsuxBJMIPP0F6lRiJcykhG0pHyLS279HrWFfY7p6Q9qsZ4MsL8zaAOHYnOBn1h77kCUQlpyLwmF88snzip6nXVhUcefQR5167B2XksEg8fKNfk4pPXpOMP6jwgnlG/Ll66hPHOk2BhaY0lS0OUgkNERERERC3dpImuaNWqldjTOHosBePGT0Tge0uUgvREzU2zSFKk+A5GZz29W62H/TtI6jgFkYk7yi0nk75qGmyGDS/XfBMuiR4aFfbbWmbqyG1pwcz3MDK/3IGQVw1xNdEPLiMGoodKGz1GrEBKmXxHVa+rLnTs+BCWLV2EZe+HYcvWD0RUY+OmrQgNW4XQkCXQ1a14NeD6kJN7BWfPnsbmyC1KReQXBr2MRYuXSj+Ea1YZmYiIiIioOYjfHwPbV4eJvWJRuz+EzfAR2LZtp4gQNQ/No3DmytOawpSXzyM+wAoqdQ50nneAo6lK9Ch2q2+ZVrSsTJEK+wWaV7s+hMrYFm6hO5B0Kg9Xs44jZpkzVAl+sHh1HdJFH1lVr6uuWA19uVyiomSCYrClhRJrSH/+lYPMrB9w4cd0nPv+rHRd2zDFbQYGDHwJC99djP99/qXoSURERFS3YuM+vrX8KFFjoqf3GN4LDMC6iJUwMXlWRDXk0c9LloXA0Wk8ko98LqJETVvzqkmhpYLF7A8Q6Sn9j8a9J9zjqjE9o07lImXbCoRFJKPkGh5aHQ1h7bYaYYEmwIlYHCuxTu/dUDJRMW26111NUJQkVy7+669c/PTzBfxw/jupZWDb9u2YPmMWTPubw//td/BZ0hHRm4iIiKh2wlaskX6/WCj2NO67716xRdQ4DBhghu1bN2Kenzc6lBnx/N3ZdOV35Tne85CZmSWiRE1TK3kdUrHd9KQuQTvLhcoohFIjDq4lw9d4OMLUztiVtRp2HaVYZX3Lqmq/O0hbNRD9fYGgL7+Ah7EICmmh0jH/LojM2AHH7Kq+XgqCtQcjwHM/rtZgREeRQRZDYWRkqGRii/jOfRv7DxyCne0rCHx3vogCr9qNUgr0PPvsMyJSN27cuIFTp06jZ8+npV8A7tMU88w8j8uXSy/LWpH27R/Agw/q4sEHdNC6dRv8+++/4ggwZrQD5vrOFnt0O+8vX4HILdvFHnDsyyTpe3u/2GucdkV9iPcWLRF7wIfRH8Cw+1Nij27n+RcG46+//lK2ra2GYOmS95RtImqc1kSsx9dfsT5TRa5d+1u6GTsr9oCABX4YOeI1sVd98qfQcnLi08OfiYiG/LtP4LsL0K1r/YxopdqTa5iFh6/Hpo3hIlK5Z01MpX4R6PdcHxGpP/J1yVOXv02r2ZRlucbEIAsrsaepSTFzhrvYK5aXdw1rwtdh2/aKp3pMnjQB06ZOxj331O1n0lX9XsofOpr07o/o3dthZNhdRImqpnkmKSQ5B2ahl8M6qN324OoyK2iJvkbTVyNkWEX/w9FFD1MTqE7VTZIC2XFwGTQGUTCHT9AiuAzVl17hKjLiVsDHfR0KPPfgYKAVdKt6XVoiSWG/CDGTTMokKYr6iN3bKJukKJri4eI8Vrpp/QCz3/KA8/ixyrFRjuPw88+/YPq0Kcp+Xfn773ysXBUOd7dJePDBBxAXtx9HU768Y5JCu/0DeKBEgsLC4kUkJBwWR5mkqA4mKVoWJimImhY5SUEV+/333/Hhh/vEXu2SFGfOnFVGZ/5wvvTQ1ldfGaZ8aFPXN3dUt1p6kqLId9+dxWrp+3CkgqkeHR/uCHu7V/D88wNEpPbkr41JCqpvzTZJAagRO+l5OO0EPOLOIEh7hdK3cuYIP7UfLpfrKEkhy4qD75x3sOtARvG0D5UhHGcsQsAkK+i3l/bF11A5cV3dRJJCREsr6iN2b6NkkqJsDYpDCZ9i9hy/W4kKlwlTkJX1Ez47HC+eXTeKfvgmHIpD506dMMdnnnQDuqtckkKuZCyPnNDV6YD7738AbdvehyEvD8bLgy3w0kvmuH79Ovo8N1D0ZpKiOpikaFmYpCCi5uKMdEPmNNpZ7NU8SbH/wEFlBIU8urOkGdPdlE+gqfFjkqK0+IMJWCN9PxpiqgeTFFTfmnaK2NT7NsUlVbBbf146fh5Bllq3+lbexE3+bc9ZTV1sEbT7ODJzLuNidrbSrp4/jkhPkaCQVfW65OVUKzwut6olKEqqqEhmRcU0G5r8qcUD2jp44v+64UmDp6VmiDfGjsWqFe8j9dgRvBe4QElQEBEREdXE6jVr4Tt3fqkERbt27fD+ssVMUFCTZWM9FOvXroL9a6+KSGnttLTw1qyZSvKktq0hkj3UsnEcW0NoowVdHR2l1bSWRF2S60xUViSzZKJCrf5NRBtGly4G6NbVCN2798D4cW9gbfgKHP3iMyyY74cXXyweMUFERERUXf/8849SVDBi7UYR0ejRwxDbt23E0CGDRYSo9uTRGzVpJUdRVMeGjZEY9soIxOz7SESKjXrdHgf2x8DF+Q0RIWrcmKSoruzdcNLWRrvbNj8kFYj+jczNmzdx6ZIaQ4e+jLNnM7Bq9dpy7fvvz2PIy5Z4+GG54mj9k4eDdev6JFydnbFpQzg+P/KpUrVYrmBMREREVFsZGd/jjXFv4uChT0REQ/70efvWTej+1JMiQlR78nSImrYVoUvFWaom4ZPDeG2Ek7JCjTwVuiRT0+ewZfM6zH97boP9Xk9UF5ikqC49B+yqcMpFybYIFo1hyEQFWrdurQxv/PTTRKzfsLnSdjgxSVmBoyG8McYJyZ8dgo/3LPTr11dEiYiIiGrv0KFP8cb4CUjPOCciGnIB7yXBgVxqlOqUPBWiNq1XrzLLAlYiQ3o/e3jOwVuz5+J8meKvnTqpsPCdt7Fx/Rr06dNLRImaDiYpWpgjSQlIO3msyq2ui2ZWpHdvE7FFREREVHfWrtuI2d5+KCj4R0SAe++9F8FB72Kq+yQRIWo68vPzlQLorzu8gcTPkkW02MQ3XXDg45hKa1MQNQX1urpH5NatOJeRIfaorj377LMY7eQk9pqOsqt71BRX96g5ru7RsnB1DyJqLqq6uoc8vVVeXvTj/QdFROOpp55Ulhd9uoeRiFBT1VhX96it263uEf1hDNaEr8Ply1eU/ZKGDBmMae6TYGBQzWr69YSre1Bt1GuS4vsffhBbVF+eerLpzaFkkuLuY5KiZWGSgoiai6okKeSh7/LyoqfPfCciGkOGWCJw4QLcf387EaGmrCUlKczM+inJiRMnvhHRYoaGT2Ga++RGt/odkxRUG/WapFCkLkE7y4ViR1AZwuKZTtC3nAmfSSWW42ySUhCsPRgBnvtxNdC8Uaze0dgxSXH3MUnRsjBJQUTNxZ2SFIcPJ8F//jvIy7smIholP42m5qGlJCnkaRsVrdghLyk6derkRrtiB5MUVBsNVpPCwncH4g/s17TNy+FmqYMk/5HoMW4LMkUfqn/y/9ir24iIiIgau42btsBzlnepBEWrVq3wXmAAExTUZHFJUWqJGq5wpp4xLAaZ32p2njuwK9AESJiGqFTRh+rdrxcv4udfsnHhxx9xNSen0vbTz78oj+rffhPPrB9yEmTtuk3S9TBVRURERDXz9vyFCA1bLfY0unbVx/ZtG2H76jARIWrauKQotRR3dXWPTnpdlMereQXKY87RFXAxNUA7bW2l9Rjhh9gs+YgaUe6DYTNuC9KVnpLvtsDJdjhsItJEAMjcOQ02tn44KNeSuZGJWP+R6G2gOVc7g75wkfpqXkk64wE/qe80uI/rqTluuhBJpUcGViw3DRGufaFfdI3uW3FSHCpSd1+H9FrSMfegFfAdIa5TPt+4dUiryrVW4qmnDKD32GPoZWKMQ/Gx5dorw23w999/4/7763/4f0FBAVaviYDdaw4Y+foYbN26AxcvXhJHiYiIiG5v3PiJ2Bf7sdjTeOmlQdi+dSOMn+0pIkRNF5cUpZbm7iUpbmQiPi5O2rBFb0MtFJxYgteG+CFzWAhOZuUhP+sw3NpEwemZMYjKVsHseV0kxezGMbEMcGbKbsQmJiNpXTI0t/dqpBzYgiSdXujdMRcHZw+G004dTNl5HldzLiMz3A6ZswfCfrP4xP5aJpIStyD+igMiD+xB5Bwr9LpjbYxMRLoOhFeWHcJOZOPq5dMIap+OWHFUVrdfRwFypWORgbH4x34jzmZn4+zumdCJmYUp22q+asp9992HlSveV+Z1zvN/R0Q1loeuxJatHyBiTRh0dB4U0fr1228XkfXTDzia8qX0+isw1NoWb4ybgN279yjz8oiIiIgqEhq6Gt+knRJ7Gq4u47AidBkefPABESFquia+6YwDH+/lkqLUojRYkiIp5E3YyCMGRLPo0xPuMSo4rlwAO71cJG1diBRjbwTPsYWRPHqpoxk8An1ggTiEfJQB/YG20nYyDh5XSwelG3np5l2lUgHnknFSvuHP/QbHYgC7YaZQXdiHtRvUsJ7jAxdTFbTaaEE11BsBntJ1zNiKpBvyFWnYe3rDcZAVHEeZQVfEKnUqDhEJ0mtMGg+77jrQ0tKH3VwPuIjD0kXU7dchn1I2dDw8xplBX0cH+sPsYC+F0n65dGtUSE08/riekqg4fuIkAt7RFNFbsjQE0dF7lQRF//6mSqyhXL/+L65evYyMc6fx8y8XkJSchMXBy5TCQZOmTEdc3H5lXWgiIiKiIjm5uWJL450Af8zymiH2iJoueTWafXt3wWPmNNx7770iStQyNFiSwsTMHNaWVreaS+B+JJ04gUhXQ2ghHWkbpE4GRqVX+uhuIt3QixvybuZwtARij6RI/0PS3MjbeHnADoeQcjoXOV8cQgSkc5vpS/f+WZBXxT65aRbsbyVGRiJAHriBFGT+JD/KzGHyZNXX41Cf/wZpMEFvgxIrUnQ0hoWt2K7rr6PI0/ootwbGqUzUdlJEV/0uWBm2DP/7/EuMGDkaH30cj/A1YXjuLlc+/uefAlz54zekZ3yLX7IzcfBgPBa8EwizARbw9PJGwieHUd+L0hAREVHT8X//9zi2RK7DCPtbv5QRNVlhoUuxfFkQDAy6iQhRy9JgSYoOz4+Hh+fMW83F1hxm3XXEUUFXC23FZnn66D3UBNicjm+OJ0s38rawkP5HZC3d8EemJiP5y3XAUCkm/VsuyNeMMbCZ7A2f2cUtYJW8uog3+pd52eopgJZWycRGO6C12CxSR19HQ3jqqSeV+ZrnL/yIAf1NlToVslWr1+Ls2Qzk5OTCcfT4Om3yyAjZtOle+PmXX5TtyhQU/I3LV9RKwiI7OxN798XA28cfz5m+iJ27okUvIiIiaqlefHGgUn+iT2/O1aemr0OHDrB8yVzsEbVMd7VwZjF9GI2WHjZ/g1KVFi6k45j0YNFJMxHDZJAjTBAF34Ao6UbeCmZ6+ujxvAoI9YLHTsB6aH9lxIHWw52kfkBm6y6lVhTplJcBdYEuOtQwSaEy6CWdNwNHM+SpGkJBOk7GiO06/joaglwNW65N8d67C/DFF0fx/vIVStzM9Dk88sjD0NJqi1Gvj6jTZvvqcOU1hg+zwYMP3rnuRevWbaDzYAd06qSnPHbooAsnx9fRvfuTogcRERG1ROPeGI01q0Lw0EMdRISIiJq6RpKkUMHcfrL05xIErUpDjhy6kYmoxQtxUOUAx2HylBCJsRnsVRlIO6GGiamRciNvYuoo/amGWm0Oi+e7iH6O8LKX60+8hYhzcgDI+W4LgmbMgk90BvLbaGLVJs4b6xuMWHkFEeQiJXQhwpSDsjr+OuqZr998nDjxjVKD4pVXbLBixTJE7d6DFSvXoF+/vsrSRvKokddHvlan7VXptWTDhg2FTiVJijZt7oWOzkMw6GaIrvrd0bOnCSa+OQHbtm7EZ4fjMWe2J/r26S16ExERUUvztr8vvOd4iT0iImouGkmSAtAdtggHN89EQchAdJaX2tTtCZ80cwRtD4FLt6JbdjNYTJLLSapgYWqi3Mhr9TWHm3zI0goW3Yv6qeC46guE2GfAq49m2c7OpguRNmgRooIcUKLaQzXJ5z2MIJMEOHWRz6sHxyNGSo2JInX7ddSf2XP8lOkccg2Kbt26KjH5pl+uURG5ZTvWhK9XYg1JLgqkq9MRTxr0gH6Xp9DLpA+mTJ6EXTu24NOEj+HlOV2KPSt6ExERUUvUuXMnbNywBg6jRogIERE1J60KG10FwgLk5P4jPbaVbljr4Ga9IBc58una6ED3jkuMVl1Bbq6yuoaWjk4lox7q+OuoI4MshqJVq1Z45OGHlZETj3XuLI4U+/yLo3Cf6gE9vc74559/lZELdUleVlRetSPhUBzc3T2Q+tUxPPyICoX/AV2e+D8MH24Dy5cGwdCwu3hGxa5fv44+zw0Ue8CY0Q6Y6ztb7NHtyNN65GRUkWNfJqF9+/vFXuO0K+pDvLdoidgDPoz+AIbdnxJ7dDvPvzAYf/31l7JtbTUES5doVvQhImpq5Cmq8u8wjz76iIhQS/XV1ycQHr4emzaGi0jlnjUxlfpFoN9dLg7fkvz3338w6d0f0bu3w+gOv9MTldVoRlIU05Ju6nXq7sZeSz5X3SYoZHJyQj5v5VdZx19HHZKTFD17Po1t23YieMnyck2uTWFh/qL0C8Cj4hn1SLoWU9P+mDFtqrLM0scf7YG728Q7JiiIiIio5Xnm6R5MUBARNXONMElxd6QEaaaF3K7ZbM4UvZu23Nw/ERu3X/lkurImj6b49tsz4hn1JyxkCfbtjcKkiS5cZomIiIiIiKiFY5JCMPPNQ37e7Vu8a82rWTQWR5IScPL4l1VudT3Vo6wuXZ4QW0RERERERNTSMUlBRERERERERI0CkxRlyEUdm0rLy8sTV01ERERERETU9DXC1T3urtNnzmDlqlVir3F7f+lSaGtri72mQ06wFK3u0blTJxGtPq7uUXNc3aNl4eoeRETU3HB1j8aNq3tQbTBJ0cLYj3ASW1UXs3eX2KobTFLcfUxStCxMUhARUXPDJEXjxiQF1Qane1QqFymh02BhXGKFD+PBcA9NQY5yvAApQYOVuHtcrhIpLRORI6TnGExAVJYaUePkcwxE2ClxuATNyiJ+SCoQAdkNNZIiZsHe1KD49Q36wiUiTbx+zVz54w+l/XrxIm7cvFlhu37jBrJ//RXXr99ATm5FX1vdcXQaj9Cw1Ug79a2IEBERERERUUvFJEWFCpC2bAQs/NPRe85+nDyfjYvnjyNmggpJ/oPRKyBZ6qEFsxmLEGAKRI7xQ+wV8VQhc/NbcE9QwS0kBI5dRBBp8J2+QvrzTjIR5f48bGanQX/GJs3rZ59G/AxDpMweiF7+8uvXnLzUp36XLnhSevwoNrpUi9mzE3qPdUYPI0N0eEhXPKP+/PPPP1i/YSPeGPcmXhpsg2Xvh+H4iZPiKBEREREREbUkTFJUKA0HA1IAVw8sGGcOI5UOdFWGsPbchBA3QL1sLWKzpW7tzeARNB9m2AKnxYeKEwcXtsBrxiGYeK7BAlsdERRO+GHKqtunKdJWvQmXnZ3gsXcvQopeX0cfFp47sCvIDOrQ4Qg6KjrXwL333ouVK95H1k8/YY7PPBEFbty4gWnTvVBQUIDVq0LQunVrcaR+XbnyO37MzMB3Z7/Fxs2RcHGdgkEWQ7E4+H2kpH4lehEREREREVFzxyRFhbQAlfSQdQmXbmgiGlqwDpRHNYTDTj4uR0xnItjfDIgYibkJcpoiE1ELpuGgqTeCvKxQaiyC5SIEeaqQ5ju1wmkfGik4GJIi9XXE6EFlEhwSk9FrEJ94HO7GIlBDjz76CFaGvY+M9HPwmxdQLkHR0AU5b968iT//zEFm5ve48GM60jPOYMuWrZg0eboyn/7dwGB88UUtMjNERERERETU6DFJUSETOAY5QJU4C70N+8Lecx1iUzOgviYd0pJHNehAq42mp5y4KJr2EeG+BJGb/eASYwYffw9YdBRdbtGB3dxN8FClwdd+CVJEtJTsLJxUS4/GJjDU0oRK6WgIC1NDqNqL/VrQ03tMGVFx4uQ3sLKxK5WguHo1B//88y9u3vwP2dm/1mm7eFH+AoFLl9S4fuO6sl2SXGjnr79ykfXTefxw/ix++CEd27Zvx9TpnjAbYIH5AYFITv6f6E1ERERERETNBZMUldAftQnfnNqDkFcNcTVxFpws+0JfpQ1902mIyhKdihRN+1AvgfuMOJjNng9Py/KjIBTtzRGwfiZU6oVwDKowTdGg5ETFIw8/jJyrOejS5YlbIyiWLgvF6dNnlJU4rIe9VqfNcfR45TXGO09CVtZPynZlCgv/w195ufj5lx9x/kI6MjN/QHT0h5g+8y1ltQciIiIiIiJqPpikuA3dblZwC92BpFN5uJp1HPGb56N/wRa4PDMSkRdEJ0Ge9uHrJm85w2uGeelpHmVoWc5HpKcK6sAxCE4VwbugaIrHPfe0wvp1q3Hkf19gcdAy5Zi/vw9MTIzRseND+PzIp3XaPo7bo7zGnugd6Nq1q7Jdmdat2+DBBzugW9fu6KpviB49emKCqws2b1oLJ8fXRS8iIiIiIiJqDpikqEBO6haEha5DklwcU9CSp1mM8sau7YtggkOISs4UR4poocPD8qMOdO44FUMLFsq0DzUCRi9BUsm6F3qG6C3XuziQhgxNpLQrh+BrOw3BRzRTJmqqbA2KPn16KVM/9h84qKywcX+7dmjTpjVatWoFHZ0H67Q9+KBmtMYD0mPre8q/Bdu0uVfq9xAMuhmiq353PNvTBBPfnIBtWzcgKfEg5sz2xHN9e4veRERERERE1FwwSVEBXagR4j8LvjGVr8JRXJOihkpM+wgIEjGFCay9zIBzYdiZWH6h0cy4dQiTbtQv5VVUsKJqCgsLKyyS+WzPZ5RimtEfxiA0bLUSayjyiiO6Oh3xpEEP6Hd5Cr1MemPK5EnYuSMSnyZ8DC/P6VKsltVCiYiIiIiIqFFjkqIipg4IHi2vwjECNoFxSFfnIic3F5mpW6SbZT+kqSbDZZi+6FxzRdM+yjJxlQtxqhFmOxwBcRnIkXMV1zKREjENNjMOQTV6PqaYV1LzogrS0zMqXcWjd28TrFyxDNu278Svv14U0fr1qKozujzxFPr2eQ5T3acgevd2HDwQixnT3dDzmadFLyIiIiIiImrumKSokD4cQw8g0rMXLm0eg94Geuisp4celguR1GURYhIXwa7cyh01UTTtQ+wWaW8Gn5gvED5RF1Fj+qLzw9pop+oJi9nJMAncg6RlzjCqxeoe8qiFx/Qew5JlocpKGWXbx/sPol+/Pnjssc7iGfVHq107zJjmjn17d+Hjj/bA3W0ijAy7i6NERERERA3j559/EVtEdDcxSVGZ9oZwDNyDk+fzcDU7Gxfldvk8Tm6eCesuFU+1MPPNQ37eIliUO6yC4zbpWJwzyo2/aG+OIOk1yj1PxwQuoXtwNu+y5rWldjXnNHZ5WkG/5oMoFH/++Sc++eQwDhw4WGn7+usTyuoe9W3XjkhMmugKA4NuItJQUhCsrY12/skoP6mmcuojW3CwTNHUasuKg7ux9Nry62vPwkF5aVsiIiIiuuumz5iF3y9fFntEdDcwSVEFWjo60JVbzctA1IKW5rWlVus6GJIjSQn4OvXzKrfPDseLZ5I6ZgL0h01DUmZ10hrlpUV7IfKCFYISz+Ni9iJY12JUDBERERHVneQjn8NptLOy6h0R3R1MUhBV1Y3aJSeKFNyQV2YxhImxCro6dyXzRURERESV+O2335Ui82vXbRQRImpITFIQydTy0q7D4Ru6Ai6mBmIqhgF6+x5Cjnz8xDq4LE1Ruu7yHQmbUM12jhR3t+wp+mujxwg/HMxSDknSECGd08l9AmwM5ONdYWU3GD475GNR8BoxHO7R8lK2uUgJnQaLW1NApGY8EmGpJZIiV1IQ5toX+iWOByfmioPyqi9+sC953a7rkMZpJEREREQ1tmr1Wnh6eeNqjvLbIBE1ECYpiGQ3cpGZmIywlcnoEXgAmdnncSzUDOmrRuKdA7mA8XiEuJspXe39N2GnqwlwagVeGzQLZwctwsmsPORnfQGfjlGwf8YPSUp+oQC50jljt6VCf84exO8IxvSFO+A7Qj5mh4DNO7B4mD7SI0bAwj8dFsvO42peHq5m7IHPw4fga7kCmlRIGsJGDYZvlh3CTmTj6uXziBmRgwDbYYj4Dsg5MAsWY6KgM2EHMi/Lz18Du6xZ6D96C+QUCBERERHVzOHEJGX6x5dHNb+VEVH9Y5KCqATV6JnwGGoIlY4KJjavwU6KpauvAm200EGs1tpWW64RAiTtDUOKajJ8Z9jCSF7tpaMJXObOhwVWIEwZISFYSud0s4KFrQNeNVGhgzLDQws6cq2R9gXoYOqNyPD5cB+qkqLSET0r2AyV++QgvwAoOBKLkFQV3GZ7wK67DrS0VLCesQjhgZPRuc232LdhHdRDfeDrYgaVdAL5+b7+M4HEaYg8Ip+HiIiIiGpKXpZ/itsMbNy0RUSIqD4xSUFUQg+DLkqioKSk81kVrAByCepzakCdgCDX4bCxFW36CpyVjh7MKPEcY8Pyq7rcogVVHyvYWeriZPQ6hIX6wd12MFwCxWFJrjodahjBxKjEsi4dzeDi6Qy77n8jM0HaT1sLL4fi67APjFO6pZznWAoiIiKimtDV1RVbGqFhqzF7jh/y8vJEhIjqA5MURDWUL///ydIBXrO94VPUfJcj8sB+xI8w0nSqgvRtI2FkOAJzD2QCWr1gN3s5AmaLg3dSUKBJhgybUnwNcgtYjXjpOnwGdlC6EREREVH1THAdhwEDNNN9ixxK+BSOo52R+tVxESGiusYkBVFVtSk5xqIDOnWTHhILoGNqDotBoj2jhcysXLTT1So3IqNCBcmIdD8EtWsIPtu8CB5uDrAeZAjVDeUgCm4COh3lcRjJSC+59GnuIQTYDofL9t/Q2Vjaz2oL/aJrkFunAqSrC9ChfYnRF0RERERULesiVuLNCePFnsZPP/2MNye6Y8vWD0SEiOoSkxREVaTS04yOyFVfQs41HViMmQ8TrIBLoFgB5IYaB1f6wd09DEmX2yp970hLCx1U0mPWJVxSEhPyDJIlCAiVtzJwSS11ed4RAaZAWOg6pCgLeuQiJXwJghML0MP4VTh52Sr1J7w2ZMgHpcMZiFw6FV6+UUgX5yQiIiKimvH0mI5lSxZBW1sUKBOWvR8G37nzUVBQfmIwEdUckxREVWVgBg9TIHJST3RecAgw9cauHTPRY+dIdJaX/tQ1gP1eXXhsXiP1q9I4CokZHFfOhMWZWeitq1le1Cy0AE7+ttKxZGSqpQctE/hs3gGPG2Gw0JP76MFihy4CdmxUXkc1KhzHltki3bOvZglSvb4ISDNH0PYQOHZRXoSIiIiIasHK6mVE7dyCfv36iojG/gMHlekfJ0+miQgR1RaTFNRCmcEnLw/5geaaaRl6Dtgl7ce7lihxKWK3+nSUbvwTpX31ZeQvs1Ji+raLEH8+D1ezs3FRaldP7UHQKEMx1aPMawhmvlIsbxEsRFB/mHyOy8rzL2ZfRuaBRXDz3SH1yUPAAE0fdLFF0IHzxa9zYg98bPXFeXVg4rYDZ/NKnCN1EzwGcKoHERERUV154on/w6YN4Rg/foyIaFy48CPGu0zCBzuiRISIaoNJCqLqal8y5aChJS8nKrXyR6pKS3m+rs7tz3DrddqIQClVOwcRERER1dyctzwRtGghtLRK/84VFPw+/OcvxI0bnG9LVBtMUhAREREREVXD8OHWyvSP3r1NREQjNvZjZfrHt9+eEREiqi4mKYiIiIiIiKqpW7eu2Bq5HmPGOIqIxrlz32PMG67YvXuPiBBRdTBJQUREREREVENzfd5C4ML5aNOm9Hzcd98LRsDCRWKPiKqKSQoiIiIiIqJasLN7RZn+8eyzz4iIxp49++A4ejzOnk0XESK6EyYpiOrblWQEj+ipWR5Uaj3c45ApDjU1N2/exKeffgY//wARqZnk5P9hxcpwfHua8zWJiIioeeje/Sns2L4ZDg4jRUTju+/SlToVe/fGiggR3Q6TFET1Khex/sMRcMkWMfIyowe8obNtDHyj1eJ44/fPP/8g/uAnmPWWL/qZvYjZ3n745JPD4mjNbY7cijFjXTF4yHAsD1mJk99wfXEiIiJq+t6e54MF8/3EnkZhYSEWvPMeAhctEREiqgyTFET1KhPpCdLD44YwUmlBt4sR9KXdXPUlFCjHG6dr167ho4/jMX3GLJj2N4ffvPn4cO8eZP10AT/9fEH0qr0fM8/h9JlT2LBpM8Y7T4KFpTWWLA3BV1+fED2qTh095tZolQqb7RbNCJbUJRUfv9X8kCT/5VTUz6AvbGyHwz30EDKvySeTpSC4bD+5GQ8WfVOQI3reckONpNBpsDAu0V86t0vZviWuIThVxEoqSEaAgea4b2JjfkcRERG1LK+PfE2Z/tGjh6GIaERFfYix4ybg++9/EBEiKotJCqJ6ZQJrLzPgwEJEHMjAwc1rEatygONQQ5ReWfvuy839EzH7PsIUtxno//xLmL9gIeI+isMvv/yI9Ixv8fvvF/H333mid924efMG/vzzKn788Rwu/JiBs2dPY3PkFkx40w0vDBqCRYuX4uixiu7OK+cSuh/xBypos/tDV/SRWfjuqLjfAUf0EH1kpfptXg43Sx0k+Y9Ej3Ei6VHEcjmOZWfjotJO49gqbzg+DcT7D0avgOTipNS1FAQPNYDNykz0n7MfJ89L/c8fR8yc/siU+na2XIK0CvINAYkpYqtYwZeHENx0BuUQERG1KE8/3QNRO7dixAg7EdE4deq0Mv1DHq1KROUxSUFUz0xc58OnuxphDn3hlmqG8OgQuHRvXCmKqdM88MKgl7Hw3UU4EH8A2b9mahITly/h7/xbQwbq1X//3cSff+UgM+sHXPgxHee+/w5btm5TkiYDBr4kXdch0fP2dLqZwWKQeQXNsFSSAnrGFfSRmwlUJf96yvSz89yBXYEmQMI0RJXKn7SFjo4OdJWmD5NBVnAJWo0AS0C97BCOKYmHAiQtHYOAVCsERe9A0DhzGKmk/ipDWLutxsFPvGGSuhB2oaUTEiqVCghMRuloAY4lrhDbRERE1Bi1atUK7yyYh3l+3iKicf36dbFFRGUxSUFUn3LTEOY6AcG5+tCX7jPVGYC+oQ5wo6BRTfdITPoMv2RrRkxcvqJGfv7f4kjFCgoKlGkgNW2zZs/Fv//+qzlZBf777z/89VeuMrXkh/PfSS0DX3z5hTKfU253Wye9Lsrj1bw7/S22Qzvpr1tOKBTclB5ykxG7TA24OsO5j3KgFK0BU+BlL71PAqNwMFcEJTav2kGFhUgqmRQpSMHBUMBFOhcRERE1bk6Or2PsWCexR0S3wyQFUb1JQ5j9QPj+4ohdiV/j5M75MFOvgM24LUiKnoAO2gYIOCq63mUPdXgY+l2exKOPdMb992uLaOXuu+8+hK8OrXGb6jYJbdrcK85Wsdat2+DBBztAX/8pdFI9joc7Pqp8GiG32/knNxc5FbSCG6KDkH9NXWG/nDvlHW5kIj4uTtqwRW/DykbEFEjnUiNt20IExACqiVbo314KZ6QhQnqw6GNcelTHLSqYWZpLj8nIyNJEZDqWVnBRlZ7ykZMYizA4w3qIJmFCRERERNQcMElBVF9OHEJIqnRDOsEZdl20oGXqjcjNDlAlTIPNJOkm19gZNsai712WlHgQixctxMiRI9HliW4w7P4sOqn00L79A6JHaffccw/69u1d4/bkk92kc5RPNsiJCx2dh2DQzRBd9bvj2WeMMXGCK7Zt2QAvz+mi1+1FjDNAZz29ci3gSOnsQ4rv4Ar7jd5ZeoHYpJA3lQKYRc2iT0+4x6jguHIB7PREJ1niNPQoKoKp/bB0LgP0X5oOi8A9SHrHSklK5Fy+pHQ10uukPFaknbY8wiIDFy+XuF7t/rAYV3LKRy6OJayDaqItzCs/FRERERFRk8MkBVE9u1RQfLOpPyoEERM120a2VjCTP11vBOSREdZWQ7B8WRC+Tv0cy5YugqODgzK6wrB7Tzz22BPQbv8gWkn/1bV729wLXZ2H8KSBkfR6T8HEuDcmT5qInR9E4tNP9mOW1wz06lX1bI5H3GXk5+WVa0GWpUc9WKw8XWG/eFd5/ZViJmbmsLa0utVcAvcj6cQJRLqWKX56q3DmeZzc4Q0zKaQ/0AM+nlbQFzM7dB/WZBTSszXJiork58nzPEzQodSAlrbob+lcPOXjSjJiN6hgP7R0MVAiIiJq+n77/XexRdQyMUlBVF/6WMHLVLoh9V2IiO8KgBu5SIt+B0EbNIfTA8fAN6FE4YFGQh4l8fLglxC0+F18nfo/hIYsxdjRo9Gt21N46qln0PGhR0TP2nvqyafRpctT6NPnOUx1n4LoqO04FB+LmTPc0bPn06LX3dXh+fHw8Jx5q7nYmsOse/l6EsWFM1Uwsp2vjJrJ3zYGFv4lVvbQ04dc3zspLaP8sqQK6T2Smiw99oKRQemkipap+a0pHzlfHEKkyg5WZhVdBxERETVlly6qsWnzVrFH1PIwSUFUb0zgEb0fAUMz4GX6MNrp6qG/bzL0A/fgbMZhBAwCdkVHIb3x5SlKsTB/EQvfeRspR5OxelUIxo97A23bthVHa+6JJ/4PM6a7I2bvLuz/aC/c3SbByKi7ONr0aUbNqKAOHQ6vOPGXrGcFFymGDSuw65wmVFJB6lqEbJPeOZ4OMO8ogkW0zGEzSZ7ysRVz47dANdoOFmX7EBERUYW++vo41kSsv237YGeU6H33hYSuwoiRo/Hpp5+JCFHLwSQFUX3qaA6fvaeRr5anAWTjasZxRMrD//XM4BN3Bt+snAyjJvRh+AsDB+Btf198fuRTEamZLl2eQGzMbkya6IonDbqJaN2orHBmTm7pmhSVFs6UWumeNaUD6zkhcFQBkWPewUFlJVcp9t4OBJgmw6vPYATEZWgKdUrXkhbtB/vRC5Fi6o0gL/MKp3GYWU6BClsQuU0FJ0uz0tNNiIiIqEL9nuuLr786ccf27akz4hmNw/c/nIfXWz7w8JqDc+e+F1Gi5o9JCqKG0F6eBqADrTZiX9ZGC7ot9C5TX7/+VqSorHBmZ72FSCqRfaiscGZnvTHYdUF0qi09WwQvc4AK6+C2WEz7aG8Gnxg5WaWLqDF90flhbbRTGaC/7yGoJm3Csej5lY+QMDWHu0p6NHaGvRlTFERERFWxaWN4lVrQ4oXiGY1LYmIyRo4ai/eXr0B+ft18lELUmDFJQUTNgmrUjnJFMEu3RbCQ7+tNvSs4VrLth4s8uEP0K1tIszwz+MjPi3NGRT1V9puQKR3PDDQvHvmgYwhHedpP3mVlhI0yyub8cUT6OsCkZIJCXENx0U/ptc5Lr/Xl/OKiq+X6EBERUXMUuWU7hg23R/SHMSJC1DwxSUFEdNdoKSNslFE2IkJERERUmctXrmDhu4sx3mUSUlK+ElGi5oVJCiIiIiIiokbqrVkz0a5d6Y8zTp5Mw8TJ0+D/9kL8evGiiBI1D0xS3FKAdLlwnakB2mlra5pBX9j770a6UvBOQx09pvh4UTMeDBvbMfDdllZiWcEUBMvHSi4/eFtqRI2T+ttuQaaIlJO6pPxrl2p+pebcV2SQxVAMfGEwBgy0VB7v1F4abCOeWf9u3rwptoiIiIiISCYvcX7g4xiMet1eRIrFxn2MYcNHYN36TSJC1PQxSSGoY6bC2jUKcAjBsTPyHPHTSAqwQsHOCeg9rnziwCV0P+IPiLbKG45P52KX+0D0CqhqUqLmLHx3FL92qeaIHqLP7bS7/37l8Zlnnkbv3iYVtnb3t8NT3Z9U+jUUOYHiO3c+kpL/JyJ3QW4GYoOmwcK4RPLHeCR84ypNHdWc/FrRKSUSW9WnSZoNR2RdFXokIiIiokbn4Yc7Yv7bc7Elcj3MzPqJqIb8Qd/KVRF41W4UDh78RESJmi4mKRRqJO3dDbWlBwKm28KkizxHXB9m4xYhZK45kDANUamiq6DTzQwWg8xFs4JL0A6EjZPOtGwtYrNFp/qiZ1zitUs2E6iqMLG9Wzd9PPdcH+Rdy8N7gQFYtXJ5qSYnKO5v1w4FBf+IZzSM//77D7ujd8PDcw76D7DAu4FBOJZS5htfn66lINi+L5zWX4JN4Bc4Kxc0PP8FIocVYNeYnrDfXJeJijQE95Fea1t6rZIURERERNRy9Oltgg3rViPw3fl4rHNnEdXIzMzCHJ95mDZjFs58d1ZEiZoeJikELfnmPjETF8vclxu57FEq708xFoFK6aCTsqpiLvIb9t6+RlaGLYPOgw9ihsdb+Pvvv0UU8Jrlg/PnLyB8TZj0PWkrog0n988cnPv+NM7/eA7btn+AyVOmKyMsli4LxTdpp0Sv+pCLg/PGICDVFiHxH8DH1gT6ckFDlQkcg3YgYqIKB2f4ISpLdK+1Ajk3RkRERERUbXa2r+DA/r2YPGmCiBQ7cuRzOI12RvCS5fjrrzwRJWo6mKRQqGA1aT7MsA72ej1h4b4EUQlpyMyVbiTbiOr7dxqhkJuM+Djp0dgcPR7ThOpL/jU1cnJzy7dqzjNZueJ9tL3vPsyYORv//POP9PgWsn+9iIg1K6CnV89fxB3k5f2Jn3/5EecvpCM94ztsjtyCceMnYsjQV5ThbOkZ50TPOpJ9CJEb1ICrE5y6l/3L1oHFnL2I/3IRrFQidCUFYa59oV/JlJC0iOGwkd5HYf4j0eNWnzGIOCX/Jalx0NcPkXLHxKVwsZ2GqKw0RNgOh5P7BNgYyP0N4LJNOt+1DESVPIdBX7hElKx9QkREREQtUevWrTFjuhviYqNhbT1ERItt/2CXsmTpzl3RIkLUNDBJIWiZeiPp/GFE+puj3fG1cBkxED30HlZuPsOO5opexXb5joSNdFNZ1Hr3GY7gU2bwCZwCsypMuaiNFN/B6KynV66N3lm96Qht2rTBirD3cePmDbw89FX88cdVRKwJw6OPPiJ63H3yFJC//srBj5nfS+0cvj2dhrXrN2CUwxt4bYST6FUHsjMRKz1Y9DGGriZSipaeCSyM9TXJqoI0BI8aDN8sO4SdyEZ+TjaSJkvviTE94RStGR5RkJOMpG0LEVNgi0i5xsmZPfDQjoPX9K1IhwoWc73hKHe0nImwbYtgp1eA3MRkxG5Lhf6cPYjfsRhOA+9BrOcwuOzUgUfieVzNuYyzIebInD0QvYJSlNchIiIiopatq34XLA1+D6tXLsczT5euUCd/kLlo8VKMecMVn39xVERboCtxcFc+9JuFg+Vu7cSCBxUuYCAWNxALFBSkLoGF3HdGXLkPDQtOaI5ZBCTzA8VaYpKiJJUZHH1XIz71PPLVp3Fsx3K4PP4NfIf0QcCR0sMUej9vBWvLomYH3/D9OJaxHwGWOqJH/bFYeRr5eXnlWryrvuhRHYVo1aoVrl+/jgce0MZDD3UQ8WKuE9xg3Muszpr5S9bKea2s7UrF7zQc7ebNG8j98yrOn09HZtb3OHHyuDjSsHIStyAg1QQ+73nDrrv0991GB2bTF8HXEohdGYt00U/6CuEy1Rlmco2TLlawt5VCJzJxSXoraenoop3Sp61SsVmrjbKjJC083KxgYesA67x9WLxTDbvA+XAzVUl9tKBvK72Om/TjMjCqgh+wRERERNRSDRr0Anbt3AIf71nK7/UlffvtGbhP9VCK1P/0088i2nJkHtiCSJUKKqxD5IGa15mTP9gOCzIDNo+Bqzzquci1FITNXogU++WImGNe4YeeVHVMUsguHEJY6ApEKUPxhfb6MLGdjPBtIXCBGsEJKaVW7TCUjnl4SjeUSpsMx6HmMNGr5yEUdezPP/+Cm/TDqk3r1ti7Zweu5uTAc5aPOFpswfy52Lkjss7a2oiVynnl6SYl4/eLVUdup337B9C50+Mw6GaExzo/LqINK+PUOunPLujxRMm/b0P0fl56EEkIDUPol5s1k4bMX8VmRYyl54hNdcYxqbcJeht0EhGZFnqbydmODFy6ookQERERERV5Y6yTsmTpaCcHESm2/8BBDH91JNaEy7/PthRpiA0/BDzvDJehkLYTSnyoWH0m0zci0h446P6WWGEvE1GeYxCQ5YDwt8fDqL3SjWqBSQpZ21wc9feDy/qESofmqIo+6W4m5Kkdcja1Xbt2SpFMuTrwyrD38fNPP2OO9zzRS0Nfv4sydKyumpHhU8p5u3d/slS8devyb0d5lIe29oPQe6wLuj/VE926PgUnJycsfz8IR79IFL3qQBcjZfpF0olTFb8HTq2D07hZiLyVyOqgKbZa7wqk12layS8iIiIiurt0dXXgN3c2dmzfjBcGDhDRYuERG2Az3B4ffRwvIs3YqWTsPCUXG50CTxdn4MQs7KrVzBd9OAZugqPqENxnr8PBnQvhsxNwCwmBS7nadlQTTFLI9Gzh5a8ZtjPAfR1SsjSFKNXnDiHY3QuRsILXCDM0yFsuX3rdksUwRSu4IY5LKi2cKbWSoz0q8++//yojKOSpHXINinvvvVeJy7UoVqx4HxnnvsfceQuU2N1wT6t78IC2Dv7v/7riSYOnYdDNEG+MHaOMvEg9dgSLAgNg+ZK5ksCoMypzOE1USe+BLdinZERLKkDS7mDExmShoI30Y8lQzkpvwclStTszcVZeLdWyE8pPmKmI9G4qKsJZCZVBL6lLBo6eKTkkrQBnz8j1KPTRof5nFhERERFRE/bss88oH0gGLV6IJ574PxHV+OWXbPhJv/NPcZ+JtFPfimhzI/0evzcMaarJcLFUQXegFVykaHDUodrVjejigIAgB6gSZsF+0m7oz96EBbb85byuMEmh0IKZ714kBTpD9cUsWDyjKUSp32ckIm84IvzIJngYN1BW7KgfLMoUxJRbyZoYlRXO7Kw3BrvK3WCXJheiPHs2A3qPdVZu+stS4mHLkJb2LbKyfhLRhvPIwyp062aE7k/1gPO4cYgIX4FjX36GgAXzMOjFgaJXfdCBtddiTUZ0yAREpGYqiaGCKxmIDRwJl1A1zGbPhNPTWlANcoSbSvrhtnQF0kRdiMydCxGQoILjKFsYVumt0gn68vSQX9TIrCy51McKXqZArP8KxIrlSnOOrkDAMvlaHGDeURMjIiIiIrqd4cOssf+jPZjqPllEin355TG8Me5NvLdoCa5ebWYlHwtScFD63Vk12g4W8u/OHYfCcbb0i/yGLTiUpelSU/rDnOHSXbPdf5AZ61DUISYpbtGBmedqJJ3Kw9XsbFyUmzoPZ/cugkuf4qyYatQOpUhlkOWd7kTN4CMXtAw0r+IIDOkGd1v5YphFTXk9U+8KjxW3/XDpJk5XiXvuuQfa7dvjt99+x9g3JlTY/OYFoJ1WO2UKSEOSp564ujhj44ZwfP6/TzHPzxvPDzATRxtAFwdEJu5BwKA06fvdEx10tdGhS184bQacwg8jyl8UwelohcXxm+BREIb+enK1X2308E+DReAOhI7Tr/Lft8lQK6jOLYSN3ghEVriiqgk8og8j6PkEOCnLkmqj85Ct6OC5iQV5iIiIiKja3N0m4sD+GLz6io2IFNsV9aEyBWTbtp0i0nA+2BFV7VYVOQm7ESY99tYtwLEjyUg6koICXfn+Ig4h8RlKn5rJxcF5ExCcawYzYyBs0kIkXROHqNZaFUrENrUAQ6xeFVtV98mhj8RW3bh69SoGWVgh4VAcOncqWRSyeuQVSfo8Vzy6YsxoB8z1nS32aulGAXKu/aNsasmrbyhb5RWIURBa7Uus0FEtBSgo0LpzfYtruciRp/y01dEsg1pL7y9fgcgt28UecOzLJLRvf+fCpXeT/D9OOcNf5MPoD2DYXVPfhG7v+RcG46+//lK2ra2GYOmS95RtIiKipuqrr08gPHw9Nm0MF5Ha+/nnXzDslRFiD5jlNQOuLuPEXu0FLVmODz7YJfaAr1P/h7Zt24q9YqdOncbYcRPEHrDwnbdh/1r1f4e/E3kExRrpe1jRVI8ePQyVURcW5i+KSPXIo7dNevdH9O7tMDIUww1uw9l1Mk6c+Ebs3Zn8wWvayWNirzKZiBzRE+6XHODj0KvElOwcnNy9BFEFi3DsxEyYyP1spX75y3Hyk8kwEr00xDFIx+KKj2VGT4CFazIsVh5A8DOxcLRciBTXHbi40pYfJNYBjqRoCKlLlE/Bb9sqXJe37skJh+q2FqmNFnR1dJR2u5yAnMBQ+tS4sGoVEhSy9prXqYsEBRERERHR88/3x/ZtG5XRyx06lL61lqeHz5j5FmbP8cOFCz+KaP3qoKur1Mhzcnwd36allmtx+3ajS5cnMKB/FUdaX0hGbAJgYjsFvrdWZZTbfHiNMQHO+SFGKaDZCfrG0sPRNGSUXT3vyimkyLX6u3SSegkXtsDLdTcwejECXA2hMp2JYFHfsNSypFRjTFI0hDtO05BanPOtpSeJiIiIiIgagpwUkJcsHTdutIgUO5TwKezsHbFi5Rpcv1Gikn89aNOmjbLaYMInhxG8ZLmIapz7/gel8L+JybMwNu4poreXFrcOB2EFF1uTch86mgybDGvpUVNAUwv9R8yHGbbAadRCxJ4TixRkJYtFFMzgM0pMtb6WguCJ03DQeCYighzE/ZsWzDyXI8C05LKkVBtMUhAREREREbVg2trt4T3bC7t3ba1wisf6DZEYNtweMfvqd5T1008bKYmK2Lj9eD9khRL77rt0uE/1wID+pnjv3aquQJiCgyvTgKFWsOhWwVDkbtZwspceRQFNrT7e2Bc3H9aXl8Cpj4FmUYJnhiM80xxBezfCd5BcozAXBxePQUCqGXwCfWBdsoi9lgl8NqyGNQ7B3XMd0kWYaoZJCiIiIiIiIkKPHkbKCoDLli5Ct25dRVTj0iU15i94F29OnIrjx0+KaN2TR0qsXLEMUVEfwv/thUqC4qWXzJXV/qrODD7n85C/dzKMKpwuXbRowQ44dtFEdC29EXNKiqnFIgrZl5GZugkeQ4sK4+vAOvC89JzDCLCsYLnRbs6IUUbIl61rQdXFwpktzCCLofjnn38g/7W3atVKRCt3//3347PD8WKvbpQtnJkn/WPW1tYWR6uuXgtnNnMsnNmysHAmERE1N82hcOYzz/RQCkCW9fff+Th/vnjOQH0VzqwKeQTFmvB1uFHBVI+HHuqARx99FPfeW744m3yHefr0GTz1lAG0qlCATa57cX+7+5F4+ICIANu278SSpSEwfrYnPti+SUSBVavXSte1uQqFM6mp4kiKFkhOCMg/EPv17QPzF18o157r01vpp68v0ooN4DnTF+Hj+zY++TQRN2/eFFEiIiIiouZJXgbUznZ4uTboxedFj7tL/r08/mBChQmKxx7rjKFDLPH6SLsKvwY722FKP3nqSMXHS7eODz2k9C9yLOUrrFwVjiHSa5z69rSSlKCWo5kmKQqQHu0He1OD4tUzDPrC3n830kusX6uOHlN6hQ25GQ+Gje0Y+G5LQ47oJ89pCpaP+Scry01W2Q01kiJmlbsOl4iS51YjapwUv93qHmJ1EN/EMq9+LQ1hDvK5ByMgQS2Cd2Zg0E36gTEIWT//gukz3LFkyXu3mrv7JPyYmYUhL1uiXbt24hn1Tx7dsTt6N+Z4z1MSFrPe8pV+KH6ixImIiIiImpvXR9rD0eH1cu3lwZaix93x3dl0zPCYrfw+/v33P4iohrwKiN/cOTgUH4t5fj4VXr/cHEaNVPoPHfpyhcfLtocfeVjpL/v8i6PKFI83xo7G8mVBSo2KFSvDsTlym+hBzV2zTFKoY6bC2jUKcAjBsTPyfKLTSAqwQsHOCeg9rnwywCV0P+IPiLbKG45P52KX+0D0CqhmUqKUTES5Pw+b2WnQn7EJJ89rriN+hiFSZkvnrm7Coyw5QeE6Ar7HjeATtxcBQ1XiQNUELV6IZ57ugWnTvfDTz78osR9/zFT2+/TphcAqF6WpO1f++B0Z576VrucCPty7B37z5sO0vzmmz5iFjz6Ox7VrJTJMRERERERUZ3Jz/0RQ8PtwdBqPpKQjIlrMefxYxO/fh9FOo0Sk7smvKycoJk10xcwZ7krMwuJFLH8/CMtDVipTQKj5a4ZJCjWS9u6G2tIDAdNtYdJFB7o6+jAbtwghc82BhGmIShVdBZ1uZrAYZC6aFVyCdiBsnHSmZWsRmy06VVPaqjfhsrMTPPbuRcg4cxipNNdh4bkDu4LMoA4djiBlXd4auJWg6IWA7TsqLtxSBSUTFV8eTbmrCYqS/v47D7//fhHpGd/i519+RNxHcZi/YCH6P/8SprjNUKoK5+bmit5ERERERFQb8s2/zXB7fLAjSkSKvTz4JeyJ3oHZb3nUaw0zeQS1PIJDTk5MdZ8kohryKO8lwYFKjYozZ86KKDVXzXIkhVKbJTETF8vMFDBy2aNUap1iLAKV0kEnpRxDLvJrNNsgBQdDUgBLR4xWlqspzWT0GsQnHof7Ha+jArcSFOYIid4EnwE1S1AUkRMVXZ54QklQGBp2L5eg+Pfff/Hpp5/VaUtO/kI59+f/O6rsJyX9T9mvSH7+Nfx++ZKSsMj+NRMH4g9g4buL8MKgIZg8ZbroRURERERE1ZX4WTJGOb6h3PwXFdku0qOHIVaELUPI8mB07/6kiNYPuah/QUEBpk2dDEeHkfjzzz/LtYHP98fb83xwT+tq3sLKU/BDp8HCWEy/L5qCH5pSYgq+REyxt9lcwST87N1wkp8nj4Yv2r5du91UfrqjZpikUMFq0nyYYR3s9XrCwn0JohLSkJlbALTRgq6ODnTvVGA2NxnxcdKjsTl6PKYJVUt2Fk7KJSKMTWBY0Wt1NISFqSFU7cV+VeWKBMUBXXiEh8CtT+0SFDJ5iseFCxfQqZMKP5y/cGvqRxG5uvDS90PrtK0OX6uce+36jcp+2MqqVWXOz/8bV/74Db9I39+Cf/7GiZNp4ggREREREVVVxrnv4enlDQ/POUhPPyeiGg8++AB8vGdh965teMlikIjWL3nVwX+vX8fqNesw8MWXK23vvheMI0c+F8+qgmspCB5qAJuVmeg/Z79mCv7544iZ0x+Z/oPR2XIJ0qo7B7+jOeYWlQqQ2i5fcyloDp9tJUoIzO4PXU1vqoHmOZLC1BtJ5w8j0t8c7Y6vhcuIgeih9zDaGY9E2NHy0wR2+Y6Eje3wW613n+EIPmUGn8ApMLvzijkNJmzcYPim68JIlYEw97VIEfGaKlmDIn5/TLkaFTJdXR2lME5dtt27tirn3rZ1g7Ifs2eHsl8ZeSWSBx7QwRP/1w1PGjyNp540wrg33kBY6FLRg4iIiIiI7iQv7xqWLgvF66PG4nBikogWe2Osk1J3Qn5sSPJSrytXvF/lVrX7gAIkLR2DgFQrBEXvQFDRFHyVIazdVuPgJ94wSV0Iu9Bq3lVpqWByq1SAOfobaj441jcpjlkMMmSSohaaZZJCoTKDo+9qxKeeR776NI7tWA6Xx7+B75A+CDhSOl3W+3krWFsWNTv4hu/HsYz9Na71UG+6OSP8wy9wcJkDVOqFcKxF8c2KimRWVEzzbml9T2s8+IAu9Ls8iW5djWDY/Wm4OI/HurUr8eXniZjv76sM+SIiIiIiojvbsXM3bIa/hq3byn9A+NJLg7A7apsygkIeSdHQ5KVKq9vuKDcZscvUgKsznCsYga41YAq87AF1YBQOstxdo9L8khQXDiEsdAWiTpW4fW+vDxPbyQjfFgIXqBGckFLq5t5QOubhOVO0yXAcag4TvVoModAzRG95sY0DacjQREq7cgi+ttMQfKTqy4bK3Ja9D5fuWlDZr0Gkp0opvjk3ofppivz8/HIJiiIlExV3Y/nPBx/sgG5du6NrV0P06NETE1xdsHlTBP6X/Anm+s5GfzNT0ZOIiIiIiO4k+cjncBrtjMVBy5CTU/puvHv3p5SaEytCl6GHkaGINhMZaYiQHiz6GFcyqkEFM0t5qkYyMrI0EWocml+Som0ujvr7wWV9QulCKCWo2oiNemMCay8z4FwYdiaWTyJkxq1DWOJBXMqrXiKk7a3r1oLF3B3wMQYiRoxF5AURroKbN28iPT3jtqt4FCUq5OFgDanLE0/i2Z4mmPjmBGUqSJL0PZoz2xPP9e0jehARERERUVX88MN5vDV7rrKc/5nvSq+I0b59e2W1jj3RHyirdzRHOZcvKY9Gep2Ux4q005ZHWGTg4uWajk+n+tD8khR6tvDyNwM2j8EA93VIycpFTm4u1OcOIdjdC5GwgtcIM+k2v36ZuC5CgKkaYbbDERCXgRz5fX8tEykR02Az4xBUo+djinmJYUf50jVK1ylfa8lWcEMcL6u9GXxD5QKhh+A+u+rVY1u3bi39UNLG2fRzGDlqbKXte+mH2n333SeeVf8mT5qAXTsi8WnCx/DynI5eJjVZ+oSIiIiIqGWTR00vD1kJ+5GjkfDJYREtNtppFOIPxMB5/FgRaZ50H9YkJ9KzNcmKiuTnySNLTNBBW7NPjUMzrEmhBTPfvUgKdIbqi1mweEYPnfX0oN9nJCJvOCL8yCZ4GDdANcz2ZvCJ+QLhE3URNaYvOj+sjXaqnrCYnQyTwD1IWuYMo5Krexz1g4V0nfK1lmxl62eUpGU6E2EBZkDCNFgEVq3gywPaD6D9/fejIL+gSu3+dvW3FnIRbW1tzJjuhmeeeVpEiIiIiIiouqJ274HNcHtsjtwmIsUGDXoBO3dEwm/uHHTQbQFlHfX0YSc9JKVlVDLCPhdpqcnSYy8YGUj3hw+rYCHt5d+sYMr7P/lSb8BCv1O9f9hNzbZwpg7MPFcj6VQermZn46Lc1Hk4u3cRXEoUTVGN2oH8vDwEWd7prWYGH6lffqB59d6UOiZwCd2Ds3mXNdcgtas5p7HL0wr6ty5DBcdt0rnl81fQlGsz9S7eLkULJrMPK8cy5dEjVbD/4z3VbkRERERE1Hh9/vmXGPvGBAS+F4wrV/4QUQ0Dg25YtnQRVq9cjp4t6UNBPSu4TFQBG1ZgV+lVVhUFqWsRsg0w8XSAeUcp8Jg+TKSHlOPlkxo5p1Mhr4Wi/2jlU0eo7jTTJEUxLR0d6Mqt5KiFBqeluQapadV7PQwiIiIiImoJ5BX7vH384T7NE6e+PS2iGlpaWvDynIF9e3fBaujLItqS6MD6vR0IME2GV5/BJabgq5EW7Qf70QuRYuqNIC9zTWFNLTOMlkepbxuD1wLikK7WTL/PPLIErl5blA+OHQeWXyWE6l6zT1LUtZQgbbTTvn2z2VzVChFERERERETV8++//yJsxWrYvuaA+IMJIlrMwWGkUndigus4EWmhlCn4xxHpWXIKvgH6+x6CatImHIueDwt5FIVCHqW+F/H+VlAvG4PeBprp9z2GrUXmoEWI2exdoi/VJyYpqsnMt+JpGSVbvKu+6N34fPvtmWo3IiIiIiJqHD78MAY2w+yxYeMWESk2cOAAbN+2EW/P88HDHXlHrdAxhGNgmSn4548j0tcBJuW+RTqw8JX7ligbcPk8Tm6eCesuFU/815QQ2A+XbiJAtcYkRQszbYYXxrzhWuU203O2eCYREREREd0tXx5NwXjniXjn3cX47fffRVRDX78LgoMCEbEmDCbGz4oolVZiCr6I3M6tsgHVKkpIdYFJihbo0UcfUdqKsGXYFxNVri1buhgPPdQBPXoYimcQEREREdHd4us3H1PcZuDkN6dEROPee+/FzBlT8VFsNIbZDBVRoqaNSYoWSK7wO/D5AQgKfh+FhYUw6Nb1Vsv7Kw/vLQrG0CEv4/77a7786GefJePipcrXJCYiIiIiojubv+Bd7N9/UOwVGznyNRw8sA+TJrqICFHzwCRFC7XwHX+YmfbDtOle+OH8BSX29fETcJvqgVeG22Ce3xwlVlU3btzAJ58kwttnHvr2ewEzPav3fCIiIiKi6prwpnudNd+588VZG7f+/U2xNXI9Aub7KaOjiZqbppmkuJKCMPfB6FFiRY0eltMQdjRXdJCkLim14obSDPrCxnY43EMPIfOa6CfRrNjhhyR5SZqqKHHu4FQRK6kgGQEGmuO+ieKk2bvhJO2XWvmjKl9HEXVyub76phMq7ltFJRMVe2Ji4T7VE6Net4f3HC/R4/YKCgoQH58ATy9v9DN7EXN85mF3dDSysn4QPYiIiIiI6sdz/frUaXvW+Blx5sbp//7vcSx+7x2sX7sKvXubiChR89P0khQFaQgeNRi+GSbwOXAcmdnZyDyxB256yfAd0gcBR0pnGix8dyD+wH5N27wcbpY6SPIfiR7jtqAuFgoNSEwRW8UKvjyEYLXYqUw1vo6C1CWwMBiOkCyzUn19+2ZJffVgsSwNVc2vlCUnKvS7dEFAwHvKCIpZXjPEkYrl5eXho48OKIkN0/7m8PNfgL37YvDTzz8i49y3UP/2Kwr+yRe9iYiIiIjqXr/n+mCq26Q6bWNHO4qzNy733HMPpk+bggMf78Urr9iIKFHz1fSSFKcOISAVcPFcAJdBhlDp6EDV3QoeEe/DDWoEr4+T/ixBzxgWg8xvNTvPHdgVaAIkTENURaMgqkGlUgGBySidpijAscQVYvs2qvp1FCQjaPRCpAxdhNidi0r1dQvfjyRfE6QEjEBYDb+Wz5KO4Mujx9DDyFB5/OEHzdSPknJycrA3Jg6Tp0zHgIGWmB/wLj76+CP8kp2J9Ixv8fvvF/H333miNxERERER1QX7115V6k5MmfymiBA1f00vSdEGUEkPmb+WKcrY3gqL5XVsV9kqx2+nk14X5fFqXk3HH2jYvGonvdZCJJVMEBSk4GAo4OLqLAKVqOLXkZMYq4zKcHFxhomOpksxLZi5esAOagTsOIQcEa0quYbETI/ZSkXg3VHbNFM/ZnjdSlRcv35dSVC8aD4U7wYuRvzBeGQXJSYuX0J+fok5MxV4990gzHrLt1x7e37gbY9Xtc3xnqech4iIiIioOTHt1xebN0Zg4Ttvo3PnTiJK1DI0vSRFHwcEj1YhaXZf6JuOhFdEHFLOqVFwo2gt2zssZHsjE/FxcdKGLXob1m7RWx1LK7ioSk/5kJMKYXCG9RBNIqRSVfw6Mk6tk/40h1nPchkKDT1TWFtKj0cykKWJVMmB+EOYNdsXb82aeasi8K0aFSUSFW3a3IsHtLXx33+FuK9tW9zTurUSr4rHH9eDvv4T5doTT+jd9nh1GhERERFRc7NxQziee66P2CNqWZpg4Ux9OK4/gbN7l8PeMAcHZ4+BRR8DdNA1QO8Zu5Ep3eSXlBTyplIss6hZ9OkJ9xgVHFcugJ3mXrnmtPvDYpyqxJSPXBxLWAfVRFuY3zHhWZWvIxdXlYEWhuhU6fCQdmgn5y/OXcLVKg4M+f33y/DxfRs+3rPg4vyGiGooiQozTTHNGzduQlu7Pb78IhGrVryP0Y6O0O9iAMPuz+LRRzrj/nbtxbMq5uo6ThmlUbZNmuh62+NVbdOmTlHOQ0RERETUmG3bthMffLBL7N2esXFPsUXUMjXBJIVMB/pDJyNk22GczbuMiyf2I9LfDAWbJ6CHQ+mCmCZm5rC2tLrVXAL3I+nECUS6GqJ24yhkbdHf0rl4yseVZMRuUMF+aH/oajrcwZ2+Dh10UJIdGbhUaSHOfOTLC3wY66KdJnBb8lKhFy78CH8/b7wx1klES1sY4A+z/v2QX1BcAPPFFwci8N0F+Dr1cywNfg8j7Efg8ce7wsjwWTz8cCdoad0vehIRERERUZF3A4OwZFmI2NPQ03tMbBFRWU0sSZGLlG0rEBaRXKI4phZ0u5vD0beoIOZuJJWo/djh+fHw8Jx5q7nYmsOseyVTJ2pAy9T81pSPnC8OIVJlByuzO52/6l+HvoGtdCwZaemVLDV65RRSEqXHvkaoyuyVNm3aoLCwEIuClsGkd/9KW2zsx8jK/Ek8q7QhQywRsjwYKUeT8E7A27CxtsHjevpKwqLjQ48qU0SIiIiIiFqyixcv4c2J7tgdvVdENAY+3x8fbNuItm3biggRldTEkhTSzX92GHxn+2HXKREqp/bjI6pFyxw2k+QpH1sxN34LVKPtYNFRHKtU1b8OlaUz3KTTR0REIV2JlFSAlPVhiIQJPOzNqzR6w9HhdaU68ORJE6rUXh9pL55ZnpaWFmxfHYZ1EStxJDkBc33nwMLiJfzf491EDyIiIiKilufo0RSMHfcmUr86LiIaY8c4IiJ8BTp2vOMNA1GL1eSme5iNXgxHVRp87YcjIC4D6txc5ORmImXbLHj4p0E10RmvNfA9spnlFKiwBZHbVHCyNKtSmqTKX0dHKyzeOR9mibPQ23IhYs/lQi49UaBOQ5TvSDgGpsBs9iL4WlZtdMi0qZOr3aqig64uHEaNwPatG5FwKA5zZnuKI0RERERELcfOnbsx2W0Gfv/9dxHRmOfnDV+ft8QeEVWm6dWk6OKAiPhN8Oh7CZFj+kJfTw+d9XrCIiAZ+oF7kPSebRXrQdQhU3O4y4UtjZ1hb1bFkRzV+Dq0TL2xL1Xqq7sbTn300EFbGx0MBsInUQX3zV9gX0DVRlE0lM6dOmH8uDHKIxERERFRSyFPqZZbSSrVo1i/bjWcHF8XESK6nSZZOFOruwOCdh9HZs5lXMzOVtrV88cR6WkF/aIFJ6Qb+/y8PMS76otA5cx886S+i2BR1Zki4txBlkVPMIPPeekcX86HWZnXv9VHzwG7ylxPlb4OQfdpqe/e08i/rOl3MfsyMlM3wWeUSaNKUBARERERtTTy6nny6Al5FEVJ8vL+H2zbhP5m/USEiO6kSSYpbmmjBV0dHaVVNb/QKFXn69DS9NPVqdlX/MUXR6vdiIiIiIioYl99dRxjx01Q6lCU5OgwEhvWr1ZGUhBR1TXtJEVdy94NJ21ttLtt80OSXBSiiZo7bwHcpnpUufnPXyieSUREREREJUVH78WEie7KSh4l+XjPgv88H7FHRNXBJEVJYkqGPE2j8laNaSGNlIGBprKoXLgnKfFgubZqxft48MEHYGjYXelHRERERESlLVkWgoWBQWJPo2PHhxC+JgxvjHUSESKqLiYpWqBHH30Eb8/zQVDw+0hJ+Ur5YVrULlz4ET5z38Zrdq9CW7tMYYx6ErF2I0LDVuPMmbMiQkRERETUOF29moOp072wbdtOEdHo27c3tm/bhBcGDhARIqoJJilaKAeHkcpICjkhkfDJYSX25dEUZYqHXHm4oZcQXb9hI5zGOMNmuD0i1m7A+fMXxBEiIiIiosbh5Mk0pf7E//73hYhojBzxGiI3rcXjeo+JCBHVFJMULdjYMY6YPcsDb82ei1WrI+A+1QOuLuPg6TFd9Gg4hVLLzDqHb745jjXha/HaCCfYj3RC5JbtyM7+VdOJiIiIiOguiYmJw3iXSfj5519EROOtWTMRsMBP7BFRbTFJ0cI5O4/FK8NtsHbdJgwbZoXp06aIIw3vxo0byMn9A9//cBZZP/2AlNRjCA1bCethr2HMG67YFfUhrlz5Q/QmIiIiImoYIaErMT8gUOxp6Og8iJUr3oeL8xsiQkR1oYkmKQqQHu0He1OD4lU3DPrC3n830q+JLhJ19JgSq3KIZjwYNrZj4LstDTmiH5CCYPmYf7J05qopPvcYRGWLYEkXtsBeOT4ckSVnLtxQIyl0GiyMxfXITbp2l9CUEtdTJBcpZftK1+9epm9KkHysZquOHEr4FB/vj8eA/qaIj0/AsWOp4sjddf36v7h69TIyzp3Bzz9fQPKRJAQveR8WltZ4c9JU7Iv9GNeu5YveRERERER176+/8jDTcw42bd4mIhomJs8q9ScszF8UESKqK00ySaGOmQpr1yjAIQTHzmTjYvZpJAVYoWDnBPQetwWZol8Rl9D9iD8g2ipvOD6di13uA9EroOpJicrFIeZLtdgulpm8GwfF9i3XUhA81AA2KzPRf85+nDwvXfv544iZ0x+Z/oPR2XIJ0m5dUAHSlo2AhX86epfsO0GFJKlvXVz7/v0HMXuOH2a/5YF1a1fhzQnOmD7zLXx9/IRyXP6hnJv7p7KsUl02Dy9v5fxzvOcp+/tiP8L169eVWEX++bcAf/zxO9IzvsUv2T8iIeEQ3ln4HgZZDBE9iIiIiIjqnlx/4rPPksWehp3tK9i+dSP0uzwhIkRUl5pgkkKNpL27obb0QMB0W5h00YGujj7Mxi1CyFxzIGEaosoMBtDpZgaLQeaiWcElaAfCxklnWrYWsRWNgqgyFVQqIDYuWbqqkjKRFFP6h5mcdEhaOgYBqVYIit6BoHHmMFJJ164yhLXbahz8xBsmqQthF5oi+qfhYIC07eqBBSX7em5CiFvtr10eieDrNx9zfd6C8/ixSmzGdDeMHeOAGTPfQlrat7j33ntx3333wnzQC3XaBgwwU17PzKyfsi//gL+n1Z3fiu3atYe2tg4efvhR3LhxE6amz4kjRERERER1KyR0FX78sfTHnx4zpyLw3flij4jqQ5McSaGlJf2RmImL/2j2ixi57MHF7GxMMRaBSumgUxf5MRf5Zc5RPUawf9UKiNmHpJIJgwvJiEo0h4uruQhIcpMRu0wNuDrDuY+OCBbTGjAFXvaAOjAKB3OViJwDAbIu4dINeb+IFqwD5dEj4bCTj9eAWv0b3p6/EG/7+2LMGEcR1fDynAH712yVERX//XcT7dq1U5IYddmcHEYqr/X6yNeU/V69TNC6TWslVtb992vjkUc6w8jwWTyup49XX3kF7wT448svEhG+OlT0IiIiIiKqW4WFcml3jfbt70fI8mBMfNNFRIiovjTBJIUKVpPmwwzrYK/XExbuSxCVkIbM3AKgjRZ0dXSgKycxbic3GfFx0qOxOXrUcpUgk6G2sC4z5SPtwDokWVrBumQyIiMNEdKDRR9j6GoiZahgZiknNZKRkSXvm8AxyAGqxFnobdgX9p7rEJuaAbVcc0NLHj2iA602cr/qkYtTZmX9hIXSjb7DqBEiWpr3HC/YWA/Bv//+KyINq/392lA9+hgMuz+L/3u8K0a8Zo/3AgOQeiwZa1aFwvbV4XhAW1v0JiIiIiKqP88800OpP/Hy4JdEhIjqU9McSWHqjaTzhxHpb452x9fCZcRA9NB7GO2MRyLsqDIMoZRdviNhYzv8VuvdZziCT5nBJ3AKzO6U0LgTI3PYDS055SMNSTvSYD3MCiYl7qNzLl9SHo30OimPFWmnLSc1MnDxsqbahP6oTfjm1B6EvGqIq4mz4GTZF/oqbeibTkOUksiovjZt2uC///7Dgnfeg3Evs0qbvJLGhQtlq3vUr86d/g+G3XuiS5cnMWrUKCwJDsTXqf9DaMgSDLOxgpYyhIaIiIiIqGEMH2aN7Vs34UmDbiJCRPWtSSYpFCozOPquRnzqeeSrT+PYjuVwefwb+A7pg4AjpUtK9n7eCtbyyAal2cE3fD+OZexHgGX5aRfVpw8L+xJTPk4lY+cpK1gN6oJ2mg4K3Yc1yYn0bE2yoiL5eXKCxQQdSiQ3dLtZwS10B5JO5eFq1nHEb56P/gVb4PLMyNKrhlTRxAnOmD1rZpWbawMtqaTdXhujnRyx/P1gHP/qcywNfg9DhwxWkipERERERA1t2tQpCFq8UPp9tOJpyURUP5pekuLCIYSFrkDUqRKJiPb6MLGdjPBtIXCBGsEJKaVWvjCUjnl4zhRtMhyHmsNEr+4+ldcfWDTlIxNpiVFIG2oFi25lzq+nDzvpISkto4KlRmW5SEuVi232gpGBFnJSt0hf57pStS60OhrCYpQ3dm1fBBMcQlRy9Uc6jB8/ttqtvj39tBFSjx1RpnRYvlSijgcRERERUQNr27Ytli55D25T3hQRImpITS9J0TYXR/394LI+oZKbfUDV0B++d7OGkz0QG7MUEbvTYP3qUBiVzYHoWcFlogrYsAK7zolYCQWpaxGyDTDxdIB5R0AXaoT4z4JvTJroUV5NalI0RoNeHCi2iIiIiIjuHkPD7ti+bSOsrbjUPdHd0qqwZNnaJqEAKUHDYRGYAv1xyxHp6whDXeAf9TFE+k9FwIFeCPryA3gYa0EdPQb6rnHwiLuMIMvbjZxIQbD2YAR47sfVQHN5XY070pw7F+Gn9sOlW9G+XI3TSortKREr7oNr0uu8Kr1Oqhl8dqyB51BD6N5UI+1AGHx9VyCpizfio+fDoqP8CpmImjQYLjsBC98QhEwyRyfpwnIy9iHMdxoisiZjV+py2El9U4K0pe/HTMRfXgSLqlz8XXb16lUMsrBCwqE4dO5UeY2OO7l+/Tr6PFec4GAxo+r59PBnYgs49mWSUrW6MZPrpLy3aInY4993daSkfo2//vpL2ZZ/6ZI/HSIiIqLSfv75Fzz66CPKSAqqHbkGnknv/ojevR1Ght1FlKhqmmCSQpaLlFA/+GzagpQSdRn0h86Ej78PXMSqGg2ZpED2bjgZTkCs/Sac3eYA/Yr6yHIzELXUDwGhh3BrsobKEI6TfOA1yQEmSoJCuCb1XeyHoJ2HkH5r8RAVjEZ5YHHAZFh30VwpkxRUW00xSUE1wyQFERER1TcmKag2mmiSolhBbq6m/kQbHei2V0JNRAFycv9RtrTk5USVrcrd+jrbVmGJ1UaOSYrGh0mKloNJCiIiIqpvTFJQbTT5JAU1PXWZpBg85BWxR7URvz+mSSQp1oSvF3tUU2amzzFJQURERPWKSQqqDSYpykpdgnaWC8VOJSxX42ycszKlg6qvrpIURERERETU+DBJQbXR9Fb3qG+m3sjPy7t9Y4KCiIiIiIiIqM4xSUFEREREREREjQKTFERERERERETUKDBJQURERERERESNApMURERERERERNQoMElBRERERERERI0CkxRERERERERE1CgwSUFEREREREREjQKTFERERERERETUKDBJQURERERERESNApMURERERERERNQoMElBRERERERERI0CkxRERERERERE1CgwSUFEREREREREjQKTFERERERERETUKDBJQURERERERESNApMURERERERERNQoMElBRERERERERI0CkxRERERERERE1CgwSUFEREREREREjQKTFERERERERETUKDBJQURERERERESNApMURERERERERNQoMElBRERERERERI0CkxRERERERERE1CgwSUFEREREREREjQKTFERERERERETUKDBJQURERERERESNApMURERERERERNQoMElBRERERERERI1Cq0KJ2CZqEFevXsUgCyuMe2O0iBARERERUXOybftORO/eDiPD7iJCVDVMUlCDk5MUS5aGij0iIiIiImqOnJ3HMklB1cYkBRERERERERE1CqxJQURERERERESNApMURERERERERNQoMElBRERERERERI0CkxRERERERERE1CgwSUFEREREREREjQKTFERERERERETUKDBJQURERERERESNApMURERERERERNQoMElBRERERERERI0CkxRERERERERE1CgwSUFEREREREREjQKTFERERERERETUKDBJQURERERERESNApMURERERERERNQIAP8P2954UXUBk48AAAAASUVORK5CYII=;imageBorder=default;connectable=0;allowArrows=0;fontSize=16;fontColor=#FF3333;" vertex="1" parent="1">
                    <mxGeometry x="-120" y="-120" width="1080" height="760" as="geometry"/>
                </mxCell>
                <mxCell id="4" value="&lt;font style=&quot;font-size: 16px;&quot;&gt;100MHz&lt;/font&gt;" style="text;html=1;strokeColor=none;fillColor=none;align=center;verticalAlign=middle;whiteSpace=wrap;rounded=0;fontSize=16;fontColor=#FF3333;" vertex="1" parent="1">
                    <mxGeometry x="890" y="-40" width="60" height="30" as="geometry"/>
                </mxCell>
                <mxCell id="5" value="&lt;font style=&quot;font-size: 16px;&quot;&gt;200MHz&lt;/font&gt;" style="text;html=1;strokeColor=none;fillColor=none;align=center;verticalAlign=middle;whiteSpace=wrap;rounded=0;fontSize=16;fontColor=#FF3333;" vertex="1" parent="1">
                    <mxGeometry x="890" y="70" width="60" height="30" as="geometry"/>
                </mxCell>
                <mxCell id="6" value="&lt;font style=&quot;font-size: 16px;&quot;&gt;400MHz&lt;/font&gt;" style="text;html=1;strokeColor=none;fillColor=none;align=center;verticalAlign=middle;whiteSpace=wrap;rounded=0;fontSize=16;fontColor=#FF3333;" vertex="1" parent="1">
                    <mxGeometry x="890" y="180" width="60" height="30" as="geometry"/>
                </mxCell>
                <mxCell id="7" value="4" style="text;html=1;strokeColor=none;fillColor=none;align=center;verticalAlign=middle;whiteSpace=wrap;rounded=0;fontSize=16;fontColor=#FF3333;" vertex="1" parent="1">
                    <mxGeometry x="630" y="-80" width="60" height="30" as="geometry"/>
                </mxCell>
                <mxCell id="8" value="2" style="text;html=1;strokeColor=none;fillColor=none;align=center;verticalAlign=middle;whiteSpace=wrap;rounded=0;fontSize=16;fontColor=#FF3333;" vertex="1" parent="1">
                    <mxGeometry x="630" y="30" width="60" height="30" as="geometry"/>
                </mxCell>
                <mxCell id="9" value="1" style="text;html=1;strokeColor=none;fillColor=none;align=center;verticalAlign=middle;whiteSpace=wrap;rounded=0;fontSize=16;fontColor=#FF3333;" vertex="1" parent="1">
                    <mxGeometry x="630" y="140" width="60" height="30" as="geometry"/>
                </mxCell>
                <mxCell id="11" value="&lt;font style=&quot;font-size: 16px;&quot;&gt;M = 5&lt;/font&gt;" style="text;html=1;strokeColor=none;fillColor=none;align=center;verticalAlign=middle;whiteSpace=wrap;rounded=0;fontSize=16;fontColor=#FF3333;" vertex="1" parent="1">
                    <mxGeometry x="110" y="210" width="60" height="30" as="geometry"/>
                </mxCell>
                <mxCell id="12" value="&lt;font style=&quot;font-size: 16px;&quot;&gt;N =&amp;nbsp; 4&lt;/font&gt;" style="text;html=1;strokeColor=none;fillColor=none;align=center;verticalAlign=middle;whiteSpace=wrap;rounded=0;fontSize=16;fontColor=#FF3333;" vertex="1" parent="1">
                    <mxGeometry x="420" y="240" width="60" height="30" as="geometry"/>
                </mxCell>
                <mxCell id="13" value="&lt;font style=&quot;font-size: 16px;&quot;&gt;FB =&amp;nbsp; 5&lt;/font&gt;" style="text;html=1;strokeColor=none;fillColor=none;align=center;verticalAlign=middle;whiteSpace=wrap;rounded=0;fontSize=16;fontColor=#FF3333;" vertex="1" parent="1">
                    <mxGeometry x="110" y="340" width="60" height="30" as="geometry"/>
                </mxCell>
                <mxCell id="14" value="&lt;div style=&quot;&quot;&gt;&lt;span style=&quot;background-color: initial;&quot;&gt;M =&amp;nbsp; 2&lt;/span&gt;&lt;/div&gt;&lt;font style=&quot;font-size: 16px;&quot;&gt;&lt;div style=&quot;&quot;&gt;&lt;span style=&quot;background-color: initial;&quot;&gt;N = 4&lt;/span&gt;&lt;/div&gt;&lt;div style=&quot;&quot;&gt;&lt;span style=&quot;background-color: initial;&quot;&gt;FB = 2&lt;/span&gt;&lt;/div&gt;&lt;div style=&quot;&quot;&gt;&lt;span style=&quot;background-color: initial;&quot;&gt;Marche pas car &lt;br&gt;FIN / M &amp;lt; 40MHz&lt;/span&gt;&lt;/div&gt;&lt;/font&gt;" style="text;html=1;strokeColor=none;fillColor=none;align=left;verticalAlign=middle;whiteSpace=wrap;rounded=0;fontSize=16;fontColor=#FF3333;" vertex="1" parent="1">
                    <mxGeometry y="650" width="160" height="110" as="geometry"/>
                </mxCell>
                <mxCell id="15" value="&lt;div style=&quot;&quot;&gt;&lt;span style=&quot;background-color: initial;&quot;&gt;M =&amp;nbsp; 5&lt;/span&gt;&lt;/div&gt;&lt;font style=&quot;font-size: 16px;&quot;&gt;&lt;div style=&quot;&quot;&gt;&lt;span style=&quot;background-color: initial;&quot;&gt;N = 4&lt;/span&gt;&lt;/div&gt;&lt;div style=&quot;&quot;&gt;&lt;span style=&quot;background-color: initial;&quot;&gt;FB = 5&lt;br&gt;Ca marche&lt;/span&gt;&lt;/div&gt;&lt;/font&gt;" style="text;html=1;strokeColor=none;fillColor=none;align=left;verticalAlign=middle;whiteSpace=wrap;rounded=0;fontSize=16;fontColor=#FF3333;" vertex="1" parent="1">
                    <mxGeometry x="200" y="650" width="160" height="110" as="geometry"/>
                </mxCell>
                <mxCell id="17" value="&lt;div style=&quot;&quot;&gt;FIN = 100MHz&lt;/div&gt;" style="text;html=1;strokeColor=none;fillColor=none;align=center;verticalAlign=middle;whiteSpace=wrap;rounded=0;fontSize=16;fontColor=#FF3333;" vertex="1" parent="1">
                    <mxGeometry x="-90" y="35" width="130" height="35" as="geometry"/>
                </mxCell>
            </root>
        </mxGraphModel>
    </diagram>
</mxfile>
